<?xml version="1.0" encoding="utf-8"?>
<svg version="1.1" x="0px" y="0px" width="92" height="92" viewBox="0 0 92 92">
  <g id="AccidentalDoubleSharp">
    <path d="M 0.48,48.495 C 0.16,48.177 0,47.808 0,47.392 0,47.008 0.151,46.68 0.456,46.408 0.76,46.136 1.087,46 1.44,46 c 0.384,0 0.704,0.144 0.96,0.432 0.64,0.576 1.168,1.24 1.584,1.991 C 4.4,49.176 4.608,49.888 4.608,50.56 3.775,50.56 2.88,50.256 1.92,49.648 1.248,49.231 0.768,48.849 0.48,48.495 z m -0.048,6.289 c 0.255,0.256 0.592,0.383 1.008,0.383 0.384,0 0.704,-0.144 0.96,-0.432 0.448,-0.384 0.864,-0.863 1.248,-1.439 0.64,-0.961 0.96,-1.873 0.96,-2.736 -0.704,0 -1.409,0.184 -2.112,0.552 C 1.791,51.48 1.12,51.984 0.48,52.625 0.16,52.942 0,53.327 0,53.775 c 0,0.384 0.144,0.72 0.432,1.009 z m 8.304,-8.4 C 8.479,46.128 8.128,46 7.68,46 7.263,46 6.912,46.161 6.624,46.48 6.048,47.152 5.68,47.617 5.52,47.873 c -0.608,0.959 -0.912,1.855 -0.912,2.688 0.928,0 1.824,-0.288 2.688,-0.863 0.799,-0.673 1.248,-1.057 1.344,-1.152 0.319,-0.32 0.48,-0.721 0.48,-1.2 0,-0.323 -0.128,-0.642 -0.384,-0.962 z m -0.096,6.24 c 0.319,0.318 0.48,0.703 0.48,1.151 0,0.384 -0.144,0.72 -0.432,1.009 -0.288,0.287 -0.624,0.432 -1.008,0.432 -0.384,0 -0.737,-0.16 -1.056,-0.48 C 6.112,54.16 5.744,53.68 5.52,53.297 4.912,52.336 4.608,51.424 4.608,50.561 c 1.056,0 2.112,0.416 3.168,1.248 0.512,0.479 0.8,0.751 0.864,0.815 z" style="fill:#000000" />
  </g>
</svg>