<?xml version="1.0" encoding="utf-8"?>
<svg version="1.1" x="0px" y="0px" width="92" height="92" viewBox="0 0 92 92">
  <g id="AccidentalDoubleFlat">
    <path d="M 0.884,46.601 C 1.404,46.324 1.82,46.116 2.132,45.977 3.137,45.526 3.9,45.301 4.42,45.301 c 0.45,0 0.953,0.121 1.508,0.363 V 33.601 h 0.884 v 13 c 0.485,-0.277 0.884,-0.485 1.196,-0.624 1.005,-0.451 1.837,-0.676 2.496,-0.676 0.554,0 1.04,0.129 1.456,0.39 0.416,0.26 0.728,0.718 0.936,1.377 0.104,0.311 0.156,0.623 0.156,0.934 0,1.074 -0.486,2.129 -1.456,3.168 -0.728,0.797 -1.63,1.438 -2.704,1.922 -0.347,0.174 -0.789,0.52 -1.326,1.039 -0.538,0.52 -1.084,1.072 -1.638,1.662 V 50.502 C 5.546,50.955 5.2,51.34 4.888,51.654 4.333,52.213 3.674,52.683 2.912,53.068 2.461,53.277 1.889,53.75 1.196,54.482 0.78,54.902 0.381,55.338 0,55.793 V 33.601 h 0.884 v 13 z M 3.9,46.498 C 3.83,46.463 3.761,46.43 3.692,46.394 3.518,46.324 3.362,46.289 3.224,46.289 c -0.312,0 -0.642,0.078 -0.988,0.234 -0.347,0.156 -0.798,0.461 -1.352,0.911 v 6.449 c 0.658,-0.66 1.317,-1.318 1.976,-1.977 1.317,-1.596 1.976,-2.877 1.976,-3.848 0,-0.693 -0.312,-1.213 -0.936,-1.56 z m 5.928,0 C 9.793,46.463 9.706,46.43 9.568,46.394 9.36,46.324 9.204,46.289 9.1,46.289 c -0.312,0 -0.633,0.078 -0.962,0.234 -0.33,0.156 -0.772,0.461 -1.326,0.911 v 6.449 c 0.658,-0.66 1.317,-1.318 1.976,-1.977 1.317,-1.596 1.976,-2.877 1.976,-3.848 0,-0.693 -0.312,-1.213 -0.936,-1.56 z" style="fill:#000000" />
  </g>
</svg>