<?xml version="1.0" encoding="utf-8"?>
<svg version="1.1" x="0px" y="0px" width="92" height="92" viewBox="0 0 92 92">
  <g id="AccidentalFlat">
    <path d="m 0,33.601 h 0.936 v 13 c 0.485,-0.277 0.866,-0.484 1.144,-0.624 0.936,-0.416 1.768,-0.624 2.496,-0.624 0.52,0 0.979,0.131 1.378,0.391 0.398,0.26 0.702,0.701 0.91,1.323 0.104,0.312 0.156,0.624 0.156,0.935 0,1.005 -0.503,2.043 -1.508,3.116 C 4.784,51.88 3.934,52.555 2.964,53.144 2.548,53.386 1.993,53.835 1.3,54.494 0.849,54.91 0.416,55.343 0,55.793 V 33.601 z M 3.9,46.497 C 3.83,46.462 3.761,46.428 3.692,46.393 3.518,46.324 3.362,46.289 3.224,46.289 c -0.278,0 -0.59,0.078 -0.936,0.234 -0.347,0.156 -0.798,0.46 -1.352,0.91 v 6.448 c 0.658,-0.659 1.317,-1.317 1.976,-1.976 1.282,-1.561 1.924,-2.843 1.924,-3.849 0,-0.692 -0.312,-1.212 -0.936,-1.559 z" style="fill:#000000" />
  </g>
</svg>