<?xml version="1.0" encoding="utf-8"?>
<svg version="1.1" x="0px" y="0px" width="92" height="92" viewBox="0 0 92 92">
  <g id="ClefF">
    <path d="m 5.332,39.189 c -0.538,0.496 -0.807,1.096 -0.807,1.798 0,0.331 0.041,0.662 0.124,0.992 0.083,0.331 0.382,0.579 0.899,0.744 0.516,0.166 1.25,0.31 2.201,0.434 0.949,0.124 1.59,0.538 1.922,1.24 0.164,0.372 0.248,0.991 0.248,1.86 0,0.95 -0.435,1.684 -1.303,2.202 -0.867,0.516 -1.859,0.773 -2.976,0.773 -1.282,0 -2.294,-0.289 -3.038,-0.867 -0.91,-0.703 -1.364,-1.696 -1.364,-2.977 0,-1.156 0.237,-2.345 0.714,-3.564 0.475,-1.219 1.188,-2.345 2.139,-3.379 0.702,-0.744 1.632,-1.292 2.789,-1.643 1.157,-0.351 2.336,-0.527 3.535,-0.527 0.453,0 0.836,0.011 1.146,0.031 0.311,0.021 0.816,0.093 1.52,0.217 2.438,0.455 4.442,1.757 6.014,3.906 1.446,1.984 2.17,4.092 2.17,6.325 0,0.412 -0.021,0.723 -0.063,0.93 -0.331,2.811 -2.191,5.828 -5.58,9.051 -2.728,2.605 -5.91,4.939 -9.547,7.006 -3.309,1.902 -5.271,2.75 -5.891,2.543 L 0,65.602 c 0.949,-0.332 1.973,-0.787 3.068,-1.365 1.095,-0.578 2.18,-1.24 3.256,-1.982 2.768,-1.984 4.773,-3.846 6.014,-5.58 1.528,-2.109 2.521,-4.713 2.976,-7.813 0.206,-1.281 0.31,-2.107 0.31,-2.481 0,-0.371 0,-0.682 0,-0.93 0,-3.224 -1.096,-5.518 -3.285,-6.882 -0.992,-0.579 -2.006,-0.868 -3.039,-0.868 -0.785,0 -1.539,0.155 -2.262,0.465 -0.725,0.31 -1.294,0.651 -1.706,1.023 z m 19.715,0.186 c 0.661,0 1.219,0.228 1.675,0.682 0.454,0.456 0.682,1.014 0.682,1.674 0,0.662 -0.228,1.219 -0.682,1.674 -0.456,0.455 -1.014,0.682 -1.675,0.682 -0.661,0 -1.219,-0.227 -1.674,-0.682 -0.455,-0.455 -0.682,-1.012 -0.682,-1.674 0,-0.661 0.227,-1.219 0.682,-1.674 0.455,-0.454 1.013,-0.682 1.674,-0.682 z m 0,8.369 c 0.661,0 1.219,0.229 1.675,0.684 0.454,0.453 0.682,1.012 0.682,1.674 0,0.66 -0.228,1.219 -0.682,1.674 -0.456,0.453 -1.014,0.682 -1.675,0.682 -0.661,0 -1.219,-0.229 -1.674,-0.682 -0.455,-0.455 -0.682,-1.014 -0.682,-1.674 0,-0.662 0.227,-1.221 0.682,-1.674 0.455,-0.455 1.013,-0.684 1.674,-0.684 z" style="fill:#000000" />
  </g>
</svg>