<?xml version="1.0" encoding="utf-8"?>
<svg version="1.1" x="0px" y="0px" width="92" height="92" viewBox="0 0 92 92">
  <g id="ClefC">
    <path d="M 0,64.386 V 27.788 H 4.582 V 64.386 H 0 z m 6.148,0 V 27.788 H 7.656 V 64.386 H 6.148 z M 10.73,48.551 C 10.304,48.016 9.869,47.547 9.424,47.148 8.98,46.746 8.467,46.393 7.888,46.087 c 1.068,-0.582 2,-1.358 2.791,-2.33 1.109,-1.358 1.803,-2.892 2.08,-4.601 0.17,1.276 0.461,2.166 0.87,2.668 0.657,0.735 1.701,1.102 3.132,1.102 1.508,0 2.59,-0.814 3.248,-2.446 0.502,-1.242 0.754,-2.911 0.754,-5.008 0,-1.979 -0.252,-3.552 -0.754,-4.717 -0.695,-1.552 -1.798,-2.329 -3.306,-2.329 -0.89,0 -1.673,0.184 -2.349,0.551 -0.678,0.368 -1.016,0.725 -1.016,1.073 0,0.194 0.232,0.252 0.696,0.174 0.464,-0.077 0.976,0.068 1.537,0.435 0.56,0.368 0.841,0.899 0.841,1.595 0,0.696 -0.232,1.257 -0.696,1.682 -0.464,0.426 -1.083,0.638 -1.856,0.638 -0.734,0 -1.383,-0.241 -1.942,-0.725 -0.562,-0.483 -0.841,-1.053 -0.841,-1.711 0,-1.121 0.561,-2.126 1.682,-3.016 1.276,-1.005 2.822,-1.508 4.641,-1.508 2.281,0 4.127,0.748 5.539,2.241 1.41,1.494 2.117,3.347 2.117,5.558 0,2.483 -0.861,4.588 -2.582,6.315 -1.721,1.727 -3.818,2.59 -6.293,2.59 -0.58,0 -1.043,-0.038 -1.392,-0.116 -0.542,-0.193 -0.985,-0.348 -1.334,-0.464 -0.155,0.497 -0.483,0.994 -0.985,1.49 -0.117,0.153 -0.484,0.439 -1.103,0.859 0.386,0.196 0.754,0.527 1.103,0.997 0.502,0.508 0.889,1.055 1.159,1.643 0.657,-0.311 1.132,-0.504 1.421,-0.58 0.29,-0.078 0.705,-0.117 1.247,-0.117 2.474,0 4.572,0.857 6.293,2.573 1.72,1.714 2.581,3.804 2.581,6.27 0,2.119 -0.731,3.902 -2.193,5.348 -1.463,1.443 -3.324,2.166 -5.585,2.166 -1.833,0 -3.343,-0.474 -4.532,-1.421 -1.189,-0.948 -1.783,-1.981 -1.783,-3.103 0,-0.696 0.279,-1.286 0.841,-1.77 0.56,-0.484 1.208,-0.725 1.942,-0.725 0.697,0 1.296,0.232 1.799,0.695 0.502,0.465 0.754,1.045 0.754,1.74 0,0.657 -0.281,1.17 -0.841,1.537 -0.562,0.367 -1.073,0.512 -1.537,0.436 -0.464,-0.078 -0.696,0 -0.696,0.231 0,0.271 0.354,0.609 1.061,1.015 0.707,0.406 1.473,0.609 2.297,0.609 1.531,0 2.652,-0.773 3.359,-2.32 0.51,-1.121 0.766,-2.688 0.766,-4.697 0,-2.012 -0.252,-3.635 -0.754,-4.872 -0.658,-1.663 -1.721,-2.494 -3.19,-2.494 -1.431,0 -2.427,0.31 -2.987,0.928 -0.56,0.618 -0.938,1.566 -1.131,2.843 -0.234,-1.643 -0.91,-3.133 -2.031,-4.468 z" style="fill:#000000" />
  </g>
</svg>