<?xml version="1.0" encoding="utf-8"?>
<svg version="1.1" x="0px" y="0px" width="92" height="92" viewBox="0 0 92 92">
  <g id="ClefG">
    <path d="m 14.397,16.858 c 0.955,0 1.863,1.149 2.723,3.448 0.861,2.3 1.291,4.342 1.291,6.127 0,2.433 -0.363,4.712 -1.09,6.84 -1.033,3.002 -2.713,5.453 -5.039,7.353 l 1.082,5.643 c 0.683,-0.151 1.326,-0.228 1.934,-0.228 2.842,0 5.041,1.098 6.596,3.294 1.327,1.855 1.991,4.107 1.991,6.758 0,2.045 -0.652,3.795 -1.954,5.254 -1.302,1.457 -2.99,2.432 -5.064,2.924 l 1.546,8.162 c -0.001,0.455 -0.001,0.777 -0.001,0.969 0,1.52 -0.541,2.82 -1.625,3.904 -1.082,1.082 -2.441,1.814 -4.075,2.195 -0.267,0.074 -0.627,0.113 -1.083,0.113 -1.559,0 -2.945,-0.627 -4.16,-1.881 -1.217,-1.254 -1.824,-2.527 -1.824,-3.82 0,-0.227 0.018,-0.398 0.057,-0.512 0.189,-1.064 0.646,-1.91 1.368,-2.537 0.722,-0.627 1.614,-0.939 2.679,-0.939 1.025,0 1.918,0.342 2.68,1.025 0.76,0.684 1.139,1.52 1.139,2.508 0,1.063 -0.352,1.984 -1.054,2.764 -0.704,0.779 -1.606,1.17 -2.708,1.17 -0.266,0 -0.455,0 -0.57,0 0.422,0.363 0.824,0.637 1.207,0.82 0.729,0.365 1.438,0.547 2.127,0.547 1.149,0 2.357,-0.627 3.621,-1.879 0.949,-0.986 1.425,-2.145 1.425,-3.473 0,-0.191 -0.013,-0.551 -0.036,-1.082 l -1.389,-7.766 c -0.496,0.115 -1.049,0.193 -1.658,0.234 -0.61,0.037 -1.239,0.057 -1.888,0.057 -3.396,0 -6.351,-1.234 -8.867,-3.705 C 1.262,58.674 0,55.713 0,52.256 0,50.317 0.874,47.961 2.622,45.187 3.8,43.288 5.472,41.16 7.638,38.803 9.234,37.055 10.184,36.087 10.489,35.896 10.299,35.517 10.042,34.471 9.719,32.761 9.396,31.051 9.197,29.921 9.12,29.369 9.044,28.819 9.007,28.258 9.007,27.688 c 0,-2.356 0.543,-4.75 1.634,-7.182 1.088,-2.432 2.34,-3.648 3.756,-3.648 z M 12.556,46.27 11.587,41.197 c -0.418,0.305 -1.161,1.045 -2.227,2.223 -1.066,1.178 -1.904,2.166 -2.514,2.964 -1.104,1.406 -1.941,2.698 -2.513,3.876 -0.762,1.559 -1.142,3.078 -1.142,4.561 0,0.797 0.113,1.596 0.343,2.395 0.495,1.67 1.828,3.268 3.999,4.787 1.754,1.215 3.601,1.824 5.544,1.824 0.538,0 0.963,-0.039 1.271,-0.115 0.309,-0.078 0.809,-0.234 1.502,-0.467 L 13.036,49.807 c -1.78,0.229 -3.125,1.064 -4.033,2.508 -0.721,1.141 -1.08,2.375 -1.08,3.705 0,1.441 0.802,2.811 2.406,4.102 1.375,1.102 2.482,1.652 3.322,1.652 l -0.086,0.4 C 12.502,62.022 11.286,61.473 9.918,60.526 8.056,59.202 6.935,57.61 6.556,55.756 6.441,55.188 6.384,54.639 6.384,54.108 c 0,-1.854 0.563,-3.512 1.688,-4.969 1.122,-1.458 2.618,-2.415 4.484,-2.869 z m 4.373,-21.774 c -0.193,-1.254 -0.346,-2.014 -0.461,-2.28 -0.346,-0.76 -0.92,-1.14 -1.725,-1.14 -0.768,0 -1.572,0.827 -2.416,2.479 -0.844,1.652 -1.438,3.449 -1.782,5.387 -0.076,0.494 -0.018,1.567 0.176,3.22 0.192,1.653 0.366,2.727 0.522,3.221 l 1.32,-1.14 c 0.919,-0.456 1.972,-1.767 3.158,-3.933 0.881,-1.596 1.321,-3.135 1.321,-4.617 10e-4,-0.266 -0.037,-0.665 -0.113,-1.197 z m -2.963,25.309 2.621,13.041 c 1.578,-0.377 2.828,-1.145 3.749,-2.297 0.921,-1.152 1.382,-2.504 1.382,-4.053 0,-0.303 0,-0.529 0,-0.682 -0.191,-1.775 -0.938,-3.223 -2.24,-4.338 -1.303,-1.113 -2.814,-1.672 -4.536,-1.672 -0.421,10e-4 -0.748,10e-4 -0.976,10e-4 z" style="fill:#000000" />
  </g>
</svg>