<?xml version="1.0" encoding="utf-8"?>
<svg version="1.1" x="0px" y="0px" width="92" height="92" viewBox="0 0 92 92">
  <g id="Coda">
    <path d="m 5.929,58.991 v 2.397 H 5.345 v -2.397 c -1.521,0 -2.798,-0.652 -3.83,-1.959 -1.034,-1.306 -1.55,-2.797 -1.55,-4.474 h -1.989 v -0.585 h 1.989 c 0,-1.73 0.506,-3.284 1.52,-4.66 1.013,-1.376 2.3,-2.065 3.86,-2.065 V 43.26 h 0.584 v 1.989 c 1.521,0 2.768,0.679 3.743,2.036 0.975,1.356 1.462,2.92 1.462,4.689 h 2.281 v 0.585 h -2.281 c 0,1.677 -0.487,3.168 -1.462,4.474 -0.975,1.306 -2.222,1.958 -3.743,1.958 z M 5.345,51.974 V 46.067 C 4.33,46.184 3.678,46.779 3.386,47.851 3.094,48.924 2.948,50.298 2.948,51.974 h 2.397 z m -2.398,0.585 c 0,2.105 0.205,3.566 0.614,4.386 0.409,0.82 1.003,1.268 1.784,1.345 V 52.56 H 2.947 z M 5.929,51.974 H 8.268 C 8.268,50.202 8.17,48.942 7.976,48.194 7.625,46.856 6.943,46.128 5.929,46.009 v 5.965 z m 2.34,0.585 h -2.34 v 5.73 c 0.78,-0.077 1.365,-0.517 1.755,-1.315 0.389,-0.799 0.585,-2.271 0.585,-4.415 z" style="fill:#000000" />
  </g>
</svg>