<?xml version="1.0" encoding="utf-8"?>
<svg version="1.1" x="0px" y="0px" width="92" height="92" viewBox="0 0 92 92">
  <g id="DynamicF">
    <path d="m 9.239,52.131 v 0.396 H 7.29 L 7.109,53.43 C 6.628,55.379 6.135,56.871 5.63,57.905 4.956,59.325 4.09,60.36 3.031,61.009 2.694,61.226 2.261,61.334 1.732,61.334 0.961,61.334 0.457,61.118 0.216,60.685 0.072,60.418 0,60.166 0,59.926 c 0,-0.385 0.138,-0.71 0.415,-0.975 0.276,-0.266 0.571,-0.373 0.884,-0.324 0.554,0.096 0.83,0.36 0.83,0.793 0,0.168 -0.036,0.325 -0.107,0.47 -0.097,0.337 -0.325,0.554 -0.687,0.649 -0.12,0.023 -0.168,0.072 -0.144,0.145 0.048,0.192 0.228,0.289 0.541,0.289 0.168,-0.024 0.36,-0.145 0.577,-0.361 0.072,-0.072 0.229,-0.266 0.47,-0.578 0.528,-0.793 1.022,-2.057 1.479,-3.789 0.192,-0.77 0.385,-1.539 0.577,-2.31 L 5.16,52.528 H 3.789 v -0.396 h 1.444 c -0.145,-0.554 0.216,-1.396 1.082,-2.527 0.65,-0.842 1.444,-1.395 2.382,-1.66 0.289,-0.072 0.578,-0.107 0.866,-0.107 0.602,0 1.095,0.156 1.48,0.469 0.384,0.313 0.577,0.722 0.577,1.227 0,0.482 -0.145,0.813 -0.434,0.993 -0.288,0.18 -0.565,0.211 -0.83,0.09 -0.313,-0.145 -0.469,-0.384 -0.469,-0.722 0,-0.289 0.108,-0.529 0.325,-0.722 0.072,-0.072 0.228,-0.12 0.469,-0.145 0.24,-0.023 0.373,-0.084 0.397,-0.181 0.071,-0.289 -0.169,-0.433 -0.723,-0.433 -0.337,0 -0.649,0.06 -0.938,0.181 -0.771,0.337 -1.324,1.022 -1.66,2.057 -0.097,0.337 -0.205,0.83 -0.325,1.48 h 1.807 z" style="fill:#000000" />
  </g>
</svg>