<?xml version="1.0" encoding="utf-8"?>
<svg version="1.1" x="0px" y="0px" width="92" height="92" viewBox="0 0 92 92">
  <g id="DynamicP">
    <path d="m 4.181,56.676 -1.463,4.156 0.928,-0.004 v 0.505 H 0 v -0.505 h 0.938 l 3.104,-7.977 c 0.072,-0.096 0.108,-0.168 0.108,-0.216 0.072,-0.193 0.072,-0.338 0,-0.434 -0.145,-0.145 -0.277,-0.217 -0.397,-0.217 -0.385,0 -0.83,0.482 -1.335,1.444 -0.145,0.313 -0.349,0.793 -0.613,1.443 H 1.552 C 1.817,54.148 2.033,53.62 2.201,53.283 2.779,52.2 3.368,51.659 3.97,51.659 c 0.192,0 0.337,0.023 0.434,0.072 0.12,0.048 0.216,0.18 0.288,0.396 0.024,0.072 0.048,0.193 0.072,0.361 0.168,-0.265 0.47,-0.529 0.902,-0.795 0.434,-0.26 0.89,-0.393 1.371,-0.393 0.192,0 0.451,0.055 0.776,0.162 0.325,0.107 0.596,0.371 0.813,0.789 0.216,0.42 0.324,0.892 0.324,1.418 0,0.358 -0.024,0.646 -0.072,0.861 C 8.83,54.745 8.746,55.033 8.625,55.392 8.36,56.038 7.914,56.63 7.288,57.168 6.662,57.706 6.096,57.976 5.59,57.976 4.987,57.977 4.518,57.543 4.181,56.676 z m 3.073,-4.691 c -0.337,-0.145 -0.734,0.05 -1.19,0.582 -0.361,0.437 -0.674,0.921 -0.938,1.455 -0.266,0.533 -0.397,1.14 -0.397,1.817 0,0.485 0.096,0.789 0.289,0.91 0.265,0.145 0.625,0.004 1.083,-0.42 C 6.557,55.906 6.918,55.403 7.183,54.821 7.279,54.579 7.375,54.258 7.472,53.857 7.568,53.458 7.617,53.112 7.617,52.821 7.615,52.362 7.494,52.083 7.254,51.985 z" style="fill:#000000" />
  </g>
</svg>