<?xml version="1.0" encoding="utf-8"?>
<svg version="1.1" x="0px" y="0px" width="92" height="92" viewBox="0 0 92 92">
  <g id="DynamicM">
    <path d="m 5.49,57.784 -1.653,0.019 2.014,-5.021 c 0.07,-0.12 0.118,-0.217 0.142,-0.289 0.121,-0.265 0.18,-0.458 0.18,-0.578 0,-0.217 -0.084,-0.338 -0.252,-0.361 C 5.608,51.482 5.296,51.65 4.984,52.06 4.888,52.181 4.756,52.398 4.588,52.71 L 2.589,57.792 0.941,57.798 3.07,52.78 c 0.047,-0.1 0.072,-0.174 0.072,-0.224 0.048,-0.196 0.072,-0.371 0.072,-0.52 0,-0.174 -0.037,-0.285 -0.109,-0.335 -0.095,-0.1 -0.228,-0.148 -0.396,-0.148 -0.506,0 -1.168,0.609 -1.985,1.829 -0.12,0.194 -0.301,0.476 -0.541,0.841 H 0 c 0.433,-0.729 0.78,-1.266 1.046,-1.606 0.865,-1.069 1.659,-1.545 2.38,-1.425 0.169,0.025 0.373,0.211 0.613,0.56 0.071,0.101 0.181,0.286 0.325,0.56 0.144,-0.266 0.287,-0.457 0.431,-0.578 0.458,-0.408 1.011,-0.613 1.66,-0.613 0.313,0 0.541,0.193 0.686,0.578 0.023,0.12 0.061,0.324 0.108,0.613 0.215,-0.303 0.396,-0.513 0.54,-0.629 0.48,-0.398 1.01,-0.563 1.586,-0.49 0.552,0.07 0.899,0.303 1.045,0.699 0.023,0.116 0.034,0.303 0.034,0.559 l -1.638,4.377 c -0.127,0.191 -0.203,0.323 -0.227,0.394 -0.072,0.144 -0.048,0.228 0.071,0.251 0.218,0.025 0.542,-0.203 0.976,-0.686 0.145,-0.144 0.349,-0.396 0.613,-0.758 h 0.216 C 10.152,56.478 9.899,56.815 9.706,57.04 9.08,57.715 8.452,58.051 7.825,58.051 7.585,58.051 7.391,57.942 7.248,57.726 7.102,57.51 7.079,57.292 7.175,57.076 L 8.866,52.778 C 8.909,52.706 8.93,52.659 8.93,52.633 9.039,52.369 9.094,52.154 9.094,51.986 9.094,51.723 8.988,51.579 8.773,51.555 8.488,51.483 8.191,51.651 7.882,52.057 7.787,52.177 7.655,52.392 7.49,52.703 l -2,5.081 z" style="fill:#000000" />
  </g>
</svg>