<?xml version="1.0" encoding="utf-8"?>
<svg version="1.1" x="0px" y="0px" width="92" height="92" viewBox="0 0 92 92">
  <g id="FermataShort">
    <path d="M 2.703,57.985 1.598,57.999 8.204,50.864 14.769,58 14.103,57.987 8.474,51.869 2.703,57.985 z m 6.022,-2.066 c 0.293,0 0.54,0.1 0.74,0.3 0.2,0.2 0.3,0.446 0.3,0.74 0,0.294 -0.1,0.54 -0.3,0.741 -0.2,0.199 -0.447,0.3 -0.74,0.3 -0.294,0 -0.541,-0.101 -0.741,-0.3 -0.2,-0.201 -0.3,-0.447 -0.3,-0.741 0,-0.294 0.1,-0.54 0.3,-0.74 0.2,-0.2 0.447,-0.3 0.741,-0.3 z" style="fill:#000000" />
  </g>
</svg>