<?xml version="1.0" encoding="utf-8"?>
<svg version="1.1" x="0px" y="0px" width="92" height="92" viewBox="0 0 92 92">
  <g id="FermataNormal">
    <path d="m 8.547,50.585 c -2.167,0 -4.053,0.698 -5.658,2.096 C 1.284,54.077 0.334,55.851 0.04,58 0.014,57.839 0,57.679 0,57.518 0,57.303 0,57.156 0,57.076 0,54.795 0.841,52.797 2.522,51.08 c 1.681,-1.718 3.683,-2.576 6.004,-2.576 2.295,0 4.29,0.849 5.985,2.545 1.694,1.696 2.542,3.707 2.542,6.03 0,0.401 0,0.708 0,0.922 -0.269,-2.164 -1.198,-3.94 -2.789,-5.331 -1.591,-1.391 -3.496,-2.085 -5.717,-2.085 z m -0.021,5.373 c 0.294,0 0.541,0.101 0.741,0.301 0.2,0.2 0.3,0.447 0.3,0.74 0,0.295 -0.094,0.535 -0.28,0.721 C 9.101,57.907 8.847,58 8.526,58 8.259,58 8.019,57.907 7.805,57.72 7.591,57.534 7.485,57.294 7.485,56.999 c 0,-0.293 0.101,-0.54 0.301,-0.74 0.2,-0.2 0.446,-0.301 0.74,-0.301 z" style="fill:#000000" />
  </g>
</svg>