<?xml version="1.0" encoding="utf-8"?>
<svg version="1.1" x="0px" y="0px" width="92" height="92" viewBox="0 0 92 92">
  <g id="FermataLong">
    <path d="M 2.623,58 H 1.942 v -7.045 h 13.17 V 58 H 14.431 V 52.996 H 2.623 V 58 z m 5.924,-2.081 c 0.293,0 0.54,0.1 0.74,0.3 0.2,0.2 0.3,0.446 0.3,0.74 0,0.294 -0.1,0.54 -0.3,0.741 -0.2,0.199 -0.447,0.3 -0.74,0.3 -0.294,0 -0.541,-0.101 -0.741,-0.3 -0.2,-0.201 -0.3,-0.447 -0.3,-0.741 0,-0.294 0.1,-0.54 0.3,-0.74 0.2,-0.2 0.447,-0.3 0.741,-0.3 z" style="fill:#000000" />
  </g>
</svg>