<?xml version="1.0" encoding="utf-8"?>
<svg version="1.1" x="0px" y="0px" width="92" height="92" viewBox="0 0 92 92">
  <g id="FooterDownSixteenth">
    <path d="m 9.791,30.453 c 0,1.154 -0.202,2.248 -0.606,3.281 -0.404,1.035 -1.043,2.1 -1.916,3.195 C 6.718,37.615 5.901,38.456 4.817,39.456 3.733,40.454 3.006,41.144 2.637,41.52 2.268,41.899 1.896,42.468 1.521,43.23 1.146,43.992 0.926,44.916 0.861,46 H 0 V 30.953 h 0.861 v 0.721 c 0.369,-0.252 1.228,-0.791 2.575,-1.617 1.347,-0.826 2.421,-1.561 3.221,-2.201 0.8,-0.643 1.462,-1.41 1.986,-2.303 0.525,-0.895 0.787,-1.926 0.787,-3.098 0,-1.605 -0.542,-3.574 -1.626,-5.906 h 0.58 c 1.225,2.016 1.837,4.033 1.837,6.055 0,1.547 -0.313,2.998 -0.94,4.352 0.34,1.482 0.51,2.648 0.51,3.497 z M 6.798,30.264 c -0.806,0.775 -1.727,1.688 -2.764,2.732 -1.037,1.047 -1.816,2.059 -2.338,3.037 -0.522,0.978 -0.8,2.068 -0.835,3.27 C 6.187,36.35 8.85,33.028 8.85,29.336 8.85,29.19 8.844,28.961 8.832,28.65 8.82,28.339 8.815,28.1 8.815,27.93 8.276,28.709 7.604,29.486 6.798,30.264 z" style="fill:#000000" />
  </g>
</svg>