<?xml version="1.0" encoding="utf-8"?>
<svg version="1.1" x="0px" y="0px" width="92" height="92" viewBox="0 0 92 92">
  <g id="FooterDownSixtyFourth">
    <path d="m 0.875,30.101 0.004,0.877 C 1.682,30.322 2.775,29.582 4.157,28.759 5.54,27.935 6.511,27.323 7.071,26.925 7.63,26.526 8.13,25.958 8.57,25.22 c 0.44,-0.738 0.659,-1.688 0.659,-2.848 0,-1.541 -0.492,-3.715 -1.477,-6.521 h 0.65 c 1.078,2.303 1.617,4.547 1.617,6.732 0,1.547 -0.287,2.748 -0.861,3.604 0.48,0.938 0.721,1.992 0.721,3.164 0,1.195 -0.24,2.338 -0.721,3.428 0.434,1.078 0.65,2.23 0.65,3.455 0,1.277 -0.217,2.332 -0.65,3.164 0.24,1.295 0.36,2.422 0.36,3.383 0,1.986 -0.378,3.624 -1.134,4.91 -0.756,1.286 -1.878,2.62 -3.366,4.003 -1.488,1.383 -2.563,2.514 -3.221,3.393 -0.66,0.879 -0.989,2.021 -0.989,3.428 H -0.053 V 52.97 30.101 h 0.928 z m 5.546,4.322 C 8.052,32.694 8.868,30.767 8.868,28.64 8.868,28.206 8.809,27.687 8.692,27.083 8.37,27.774 7.764,28.56 6.878,29.438 5.989,30.317 5.054,31.247 4.069,32.225 3.084,33.203 2.295,34.207 1.7,35.239 1.105,36.271 0.808,37.393 0.808,38.606 2.918,37.546 4.789,36.151 6.421,34.423 z M 4.734,49.338 c 1.045,-0.791 1.984,-1.82 2.816,-3.088 0.832,-1.271 1.248,-2.737 1.248,-4.401 0,-0.428 -0.035,-0.873 -0.105,-1.336 -0.668,1.266 -1.32,2.232 -1.955,2.9 -0.637,0.668 -1.545,1.553 -2.725,2.651 -1.182,1.099 -1.999,2.053 -2.453,2.861 -0.454,0.808 -0.681,1.811 -0.681,3.006 1.524,-0.937 2.808,-1.802 3.855,-2.593 z m 0.021,-6.71 c 1.207,-0.982 2.2,-2.098 2.979,-3.35 0.779,-1.25 1.169,-2.568 1.169,-3.951 0,-0.533 -0.047,-1.025 -0.141,-1.477 -0.557,1.189 -1.169,2.133 -1.837,2.83 -0.668,0.697 -1.595,1.577 -2.785,2.633 -1.189,1.059 -2.03,2 -2.522,2.826 -0.492,0.826 -0.738,1.857 -0.738,3.094 1.376,-0.755 2.668,-1.625 3.875,-2.605 z" style="fill:#000000" />
  </g>
</svg>