<?xml version="1.0" encoding="utf-8"?>
<svg version="1.1" x="0px" y="0px" width="92" height="92" viewBox="0 0 92 92">
  <g id="FooterUpSixteenth">
    <path d="m 9.281,65.045 c 0.627,1.354 0.94,2.805 0.94,4.352 0,2.021 -0.612,4.039 -1.837,6.055 H 7.804 C 8.888,73.12 9.43,71.151 9.43,69.546 9.43,68.374 9.168,67.343 8.643,66.448 8.12,65.555 7.457,64.788 6.657,64.145 5.857,63.504 4.783,62.77 3.436,61.944 2.089,61.118 1.23,60.579 0.861,60.327 v 0.721 H 0 V 46 h 0.861 c 0.064,1.084 0.284,2.007 0.659,2.769 0.375,0.762 0.747,1.331 1.116,1.71 0.369,0.377 1.096,1.066 2.18,2.064 1.084,1 1.901,1.842 2.452,2.527 0.873,1.096 1.512,2.16 1.916,3.195 0.404,1.033 0.606,2.127 0.606,3.281 0.001,0.85 -0.169,2.017 -0.509,3.499 z M 8.815,64.07 c 0,-0.17 0.006,-0.41 0.018,-0.721 0.012,-0.311 0.018,-0.539 0.018,-0.686 0,-3.691 -2.663,-7.014 -7.989,-9.967 0.035,1.201 0.313,2.291 0.835,3.27 0.522,0.979 1.301,1.99 2.338,3.037 1.037,1.045 1.958,1.957 2.764,2.732 0.805,0.779 1.477,1.556 2.016,2.335 z" style="fill:#000000" />
  </g>
</svg>