<?xml version="1.0" encoding="utf-8"?>
<svg version="1.1" x="0px" y="0px" width="92" height="92" viewBox="0 0 92 92">
  <g id="FooterUpSixtyFourth">
    <path d="M 0.114,61.766 V 38.898 33.352 h 0.861 c 0,1.406 0.329,2.549 0.989,3.428 0.658,0.879 1.732,2.01 3.221,3.393 1.489,1.383 2.61,2.717 3.366,4.003 0.756,1.287 1.134,2.924 1.134,4.91 0,0.961 -0.12,2.088 -0.36,3.383 0.434,0.832 0.65,1.887 0.65,3.164 0,1.225 -0.217,2.377 -0.65,3.455 0.48,1.09 0.721,2.232 0.721,3.428 0,1.172 -0.24,2.227 -0.721,3.164 0.574,0.855 0.861,2.057 0.861,3.604 0,2.186 -0.539,4.43 -1.617,6.732 h -0.65 c 0.984,-2.807 1.477,-4.98 1.477,-6.521 0,-1.16 -0.22,-2.109 -0.659,-2.848 C 8.298,65.908 7.798,65.34 7.239,64.942 6.678,64.544 5.708,63.932 4.325,63.108 2.942,62.286 1.849,61.545 1.047,60.889 L 1.043,61.766 H 0.114 z M 0.976,53.26 c 0,1.213 0.297,2.336 0.892,3.367 0.595,1.031 1.385,2.035 2.369,3.014 0.984,0.979 1.92,1.908 2.809,2.787 0.887,0.879 1.492,1.664 1.814,2.355 C 8.977,64.179 9.036,63.66 9.036,63.226 9.036,61.099 8.22,59.171 6.589,57.443 4.955,55.715 3.085,54.32 0.976,53.26 z m 0.07,-13.325 c 0,1.195 0.227,2.197 0.681,3.006 0.454,0.809 1.271,1.762 2.453,2.861 1.18,1.098 2.088,1.983 2.725,2.651 0.635,0.668 1.287,1.635 1.955,2.9 0.07,-0.463 0.105,-0.908 0.105,-1.336 0,-1.664 -0.416,-3.131 -1.248,-4.401 C 6.885,44.348 5.946,43.318 4.901,42.527 3.854,41.737 2.569,40.873 1.046,39.935 z m 0,6.697 c 0,1.237 0.246,2.268 0.738,3.094 0.492,0.826 1.333,1.768 2.522,2.826 1.189,1.057 2.118,1.936 2.786,2.633 0.668,0.697 1.28,1.641 1.837,2.83 C 9.023,57.564 9.07,57.072 9.07,56.538 9.07,55.155 8.68,53.837 7.901,52.587 7.122,51.335 6.129,50.22 4.922,49.237 3.715,48.258 2.423,47.389 1.046,46.632 z" style="fill:#000000" />
  </g>
</svg>