<?xml version="1.0" encoding="utf-8"?>
<svg version="1.1" x="0px" y="0px" width="92" height="92" viewBox="0 0 92 92">
  <g id="FooterUpEighth">
    <path d="M 0.161,56.406 V 46 h 0.87 c 0.205,1.371 0.482,2.521 0.831,3.449 0.349,0.93 0.756,1.723 1.222,2.383 0.466,0.658 1.165,1.512 2.096,2.557 0.932,1.047 1.685,1.934 2.259,2.66 1.729,2.215 2.593,4.531 2.593,6.951 0,2.484 -1.058,5.508 -3.173,9.07 H 6.287 c 0.27,-0.621 0.583,-1.342 0.94,-2.162 0.357,-0.82 0.658,-1.564 0.901,-2.232 0.243,-0.668 0.435,-1.332 0.576,-1.994 0.141,-0.662 0.211,-1.316 0.211,-1.961 0,-1.02 -0.208,-2.047 -0.624,-3.084 C 7.875,60.6 7.293,59.641 6.546,58.762 5.799,57.883 4.949,57.172 3.997,56.627 3.045,56.082 2.056,55.779 1.031,55.721 v 0.686 h -0.87 z" style="fill:#000000" />
  </g>
</svg>