<?xml version="1.0" encoding="utf-8"?>
<svg version="1.1" x="0px" y="0px" width="92" height="92" viewBox="0 0 92 92">
  <g id="FooterUpThirtySecond">
    <path d="m 0,59.883 v -19.8 h 0.87 c 0.117,1.219 0.354,2.163 0.707,2.831 0.355,0.668 0.895,1.344 1.617,2.029 0.725,0.686 1.748,1.646 3.072,2.883 2.356,2.268 3.534,4.944 3.534,8.026 0,1.061 -0.146,2.117 -0.439,3.172 0.292,0.908 0.439,1.867 0.439,2.874 0,0.797 -0.12,1.711 -0.36,2.742 0.574,0.738 0.861,1.912 0.861,3.523 0,1.125 -0.155,2.267 -0.466,3.424 -0.311,1.157 -0.768,2.188 -1.371,3.09 H 7.884 C 8.968,72.439 9.51,70.495 9.51,68.849 9.51,67.806 9.302,66.857 8.886,66.001 8.47,65.145 7.894,64.371 7.159,63.677 6.423,62.983 5.625,62.341 4.763,61.752 3.901,61.163 2.604,60.323 0.869,59.233 v 0.648 H 0 z m 0.94,-6.985 c 0.07,1.137 0.391,2.154 0.963,3.054 0.57,0.899 1.299,1.765 2.184,2.597 0.885,0.832 1.797,1.689 2.738,2.571 0.939,0.882 1.606,1.683 1.999,2.403 0.023,-0.193 0.035,-0.482 0.035,-0.869 0,-3.633 -2.639,-6.884 -7.919,-9.756 z m 0.071,-6.257 c 0,1.066 0.237,1.976 0.712,2.729 0.475,0.753 1.298,1.667 2.47,2.742 1.172,1.075 2.092,1.972 2.76,2.689 0.668,0.717 1.292,1.68 1.872,2.887 C 8.895,57.26 8.93,56.854 8.93,56.467 8.93,55.002 8.527,53.662 7.722,52.449 6.915,51.236 6.005,50.234 4.988,49.443 3.972,48.652 2.646,47.719 1.011,46.641 z" style="fill:#000000" />
  </g>
</svg>