<?xml version="1.0" encoding="utf-8"?>
<svg version="1.1" x="0px" y="0px" width="92" height="92" viewBox="0 0 92 92">
  <g id="FooterDownThirtySecond">
    <path d="m 0.87,32.147 v 0.648 c 1.734,-1.09 3.032,-1.93 3.894,-2.519 0.862,-0.589 1.659,-1.23 2.396,-1.925 0.734,-0.694 1.311,-1.469 1.727,-2.324 0.416,-0.855 0.624,-1.805 0.624,-2.848 0,-1.646 -0.542,-3.59 -1.626,-5.828 h 0.58 c 0.604,0.902 1.061,1.933 1.371,3.09 0.31,1.157 0.466,2.299 0.466,3.424 0,1.611 -0.287,2.785 -0.861,3.523 0.24,1.031 0.36,1.945 0.36,2.742 0,1.008 -0.146,1.967 -0.439,2.875 0.291,1.057 0.438,2.113 0.438,3.174 0,3.082 -1.178,5.758 -3.533,8.025 -1.324,1.236 -2.348,2.197 -3.072,2.883 -0.723,0.686 -1.262,1.361 -1.617,2.029 -0.354,0.668 -0.59,1.611 -0.707,2.831 H 0 v -19.8 H 0.87 z M 8.859,29.376 C 8.859,28.989 8.847,28.7 8.824,28.507 8.431,29.228 7.764,30.028 6.825,30.91 5.884,31.792 4.971,32.649 4.087,33.481 3.203,34.313 2.474,35.178 1.903,36.078 1.331,36.977 1.01,37.995 0.94,39.132 6.22,36.261 8.859,33.009 8.859,29.376 z M 4.987,42.587 C 6.005,41.796 6.915,40.794 7.721,39.581 8.526,38.368 8.929,37.028 8.929,35.563 8.929,35.176 8.894,34.77 8.824,34.342 8.244,35.549 7.62,36.511 6.952,37.229 6.284,37.947 5.364,38.843 4.192,39.918 3.02,40.993 2.197,41.907 1.722,42.66 1.247,43.413 1.01,44.322 1.01,45.389 2.646,44.312 3.972,43.378 4.987,42.587 z" style="fill:#000000" />
  </g>
</svg>