<?xml version="1.0" encoding="utf-8"?>
<svg version="1.1" x="0px" y="0px" width="92" height="92" viewBox="0 0 92 92">
  <g id="FooterDownEighth">
    <path d="m 1.031,35.595 v 0.686 C 2.056,36.222 3.045,35.92 3.997,35.375 4.949,34.83 5.799,34.119 6.546,33.24 7.293,32.361 7.875,31.402 8.291,30.365 8.707,29.328 8.915,28.301 8.915,27.281 8.915,26.636 8.845,25.982 8.704,25.32 8.563,24.658 8.371,23.994 8.128,23.326 7.885,22.658 7.585,21.914 7.227,21.094 6.869,20.274 6.556,19.553 6.287,18.932 h 0.571 c 2.115,3.563 3.173,6.586 3.173,9.07 0,2.42 -0.864,4.736 -2.593,6.951 C 6.864,35.68 6.111,36.566 5.179,37.613 4.247,38.658 3.549,39.511 3.083,40.17 2.617,40.83 2.21,41.623 1.861,42.553 1.513,43.48 1.236,44.63 1.031,46 H 0.161 V 35.595 h 0.87 z" style="fill:#000000" />
  </g>
</svg>