<?xml version="1.0" encoding="utf-8"?>
<svg version="1.1" x="0px" y="0px" width="92" height="92" viewBox="0 0 92 92">
  <g id="GraceDown">
    <path d="M 0,49.609 C 0,48.918 0.23,48.295 0.69,47.74 1.15,47.184 1.729,46.756 2.427,46.453 3.126,46.151 3.805,46 4.463,46 c 1.332,0 2.038,0.63 2.117,1.891 0,0.544 -0.219,1.101 -0.656,1.67 C 5.487,50.13 4.925,50.596 4.236,50.957 3.547,51.318 2.852,51.5 2.154,51.5 1.516,51.5 0.966,51.353 0.505,51.059 V 62.102 C 1.411,61.952 2.225,61.598 2.946,61.039 3.667,60.48 4.229,59.81 4.633,59.029 5.035,58.249 5.237,57.47 5.237,56.693 5.219,55.78 5.106,55.002 4.896,54.357 4.687,53.712 4.317,52.804 3.788,51.633 L 4.136,51.5 c 0.34,0.602 0.646,1.229 0.919,1.883 0.271,0.652 0.487,1.316 0.646,1.989 0.159,0.673 0.239,1.334 0.239,1.981 0,0.967 -0.229,1.833 -0.685,2.598 C 4.798,60.715 4.12,61.614 3.222,62.646 2.324,63.679 1.646,64.584 1.189,65.357 0.733,66.131 0.505,67.012 0.505,68 H 0 V 49.609 z" style="fill:#000000" />
  </g>
</svg>