<?xml version="1.0" encoding="utf-8"?>
<svg version="1.1" x="0px" y="0px" width="92" height="92" viewBox="0 0 92 92">
  <g id="GraceUp">
    <path d="m 5.909,29.417 h 0.532 c 0.125,0.838 0.294,1.541 0.507,2.108 0.213,0.567 0.462,1.053 0.747,1.455 0.284,0.403 0.711,0.924 1.281,1.563 0.568,0.639 1.029,1.181 1.38,1.625 1.057,1.354 1.585,2.77 1.585,4.248 0,1.519 -0.646,3.366 -1.939,5.543 h -0.35 c 0.165,-0.379 0.356,-0.819 0.575,-1.32 0.219,-0.502 0.402,-0.957 0.551,-1.365 0.149,-0.408 0.266,-0.814 0.352,-1.219 0.086,-0.405 0.129,-0.804 0.129,-1.197 0,-0.623 -0.127,-1.252 -0.382,-1.886 C 10.623,38.338 10.268,37.752 9.812,37.215 9.355,36.678 8.836,36.243 8.254,35.91 7.672,35.577 7.067,35.392 6.441,35.357 v 12.45 c 0,0.709 -0.218,1.34 -0.653,1.895 -0.435,0.553 -0.991,0.977 -1.67,1.271 -0.679,0.297 -1.35,0.443 -2.012,0.443 -0.645,0 -1.18,-0.16 -1.606,-0.482 -0.426,-0.322 -0.639,-0.792 -0.639,-1.408 0,-0.654 0.216,-1.26 0.647,-1.814 0.432,-0.556 0.977,-0.993 1.636,-1.314 0.658,-0.32 1.298,-0.48 1.917,-0.48 0.855,0 1.472,0.169 1.848,0.506 V 35.181 29.417 z" style="fill:#000000" />
  </g>
</svg>