<?xml version="1.0" encoding="utf-8"?>
<svg version="1.1" x="0px" y="0px" width="92" height="92" viewBox="0 0 92 92">
  <g id="LowerMordent">
    <path d="M 0.314,55.507 V 53.558 L 4.31,48.973 c 0.344,-0.375 0.585,-0.564 0.725,-0.564 0.14,0 0.414,0.189 0.822,0.564 l 3.529,3.103 V 46 h 0.99 v 5.253 l 1.918,-2.28 c 0.381,-0.418 0.623,-0.629 0.725,-0.629 0.107,0 0.382,0.168 0.822,0.5 l 2.771,2.474 c 0.649,0.531 0.99,0.806 1.023,0.822 0.102,-0.027 0.246,-0.156 0.435,-0.387 0.188,-0.231 0.33,-0.398 0.427,-0.5 l 1.152,-1.427 v 1.79 l -3.496,4.125 c -0.264,0.349 -0.516,0.523 -0.758,0.523 -0.124,0 -0.4,-0.199 -0.83,-0.597 l -2.57,-2.304 C 11.533,52.9 11.16,52.67 10.876,52.67 c -0.07,0 -0.128,0.018 -0.174,0.053 -0.045,0.035 -0.099,0.094 -0.161,0.177 -0.062,0.083 -0.116,0.149 -0.165,0.198 v 6.074 H 9.386 V 54.25 L 8.17,55.741 C 7.853,56.09 7.601,56.264 7.412,56.264 7.337,56.264 7.261,56.241 7.183,56.196 7.105,56.149 6.996,56.067 6.857,55.946 6.718,55.825 6.604,55.732 6.518,55.668 l -2.9,-2.634 c -0.354,-0.285 -0.574,-0.428 -0.66,-0.428 -0.15,0 -0.338,0.143 -0.564,0.428 l -2.08,2.473 z" style="fill:#000000" />
  </g>
</svg>