<?xml version="1.0" encoding="utf-8"?>
<svg version="1.1" x="0px" y="0px" width="92" height="92" viewBox="0 0 92 92">
  <g id="NoteHiHat">
    <path d="m 9.272,50.637 c 0,1.291 -0.443,2.381 -1.33,3.268 -0.887,0.887 -1.976,1.33 -3.268,1.33 -1.318,0 -2.426,-0.438 -3.325,-1.311 C 0.45,53.049 0,51.953 0,50.637 0,49.344 0.45,48.249 1.349,47.35 2.248,46.451 3.356,46 4.674,46 c 1.292,0 2.381,0.443 3.268,1.33 0.887,0.887 1.33,1.989 1.33,3.307 z M 1.558,53.41 4.312,50.674 1.514,47.862 c -0.705,0.755 -1.059,1.673 -1.059,2.755 0.001,1.057 0.369,1.988 1.103,2.793 z m 0.304,-5.851 2.745,2.764 2.765,-2.802 C 6.602,46.786 5.697,46.419 4.654,46.419 3.586,46.418 2.656,46.799 1.862,47.559 z m 5.51,6.193 -2.764,-2.729 -2.728,2.709 c 0.839,0.723 1.767,1.084 2.784,1.084 0.534,0 1.011,-0.09 1.43,-0.266 0.42,-0.177 0.846,-0.443 1.278,-0.798 z M 7.713,47.824 4.9,50.672 7.675,53.411 c 0.76,-0.767 1.141,-1.697 1.141,-2.794 0,-1.07 -0.367,-2.002 -1.103,-2.793 z" style="fill:#000000" />
  </g>
</svg>