<?xml version="1.0" encoding="utf-8"?>
<svg version="1.1" x="0px" y="0px" width="92" height="92" viewBox="0 0 92 92">
  <g id="NoteDead">
    <path d="m 5.162,49.538 c 0.425,-0.154 0.705,-0.386 0.841,-0.696 0.135,-0.309 0.203,-1.023 0.203,-2.146 0,-0.309 0,-0.502 0,-0.58 0,-0.038 0,-0.077 0,-0.116 H 9.28 v 3.132 c -0.31,0 -0.542,0 -0.696,0 -0.387,0 -0.774,0.011 -1.16,0.029 -0.387,0.021 -0.725,0.087 -1.015,0.203 -0.29,0.116 -0.513,0.387 -0.667,0.812 v 0.813 c 0.154,0.425 0.386,0.705 0.696,0.841 0.309,0.135 1.024,0.203 2.146,0.203 0.309,0 0.502,0 0.58,0 0.038,0 0.077,0 0.116,0 v 3.132 H 6.206 c 0,-0.311 0,-0.542 0,-0.695 0,-0.388 -0.01,-0.774 -0.029,-1.16 C 6.157,52.922 6.09,52.584 5.974,52.294 5.858,52.004 5.587,51.781 5.162,51.627 H 4.118 c -0.426,0.154 -0.706,0.386 -0.841,0.696 -0.136,0.309 -0.203,1.023 -0.203,2.146 0,0.309 0,0.502 0,0.579 0,0.038 0,0.077 0,0.116 H 0 v -3.132 c 0.309,0 0.541,0 0.696,0 0.386,0 0.773,-0.011 1.16,-0.029 0.386,-0.021 0.725,-0.087 1.015,-0.203 0.29,-0.116 0.512,-0.387 0.667,-0.812 V 50.175 C 3.383,49.75 3.151,49.47 2.842,49.334 2.532,49.199 1.817,49.131 0.696,49.131 c -0.31,0 -0.503,0 -0.58,0 -0.039,0 -0.078,0 -0.116,0 V 46 h 3.074 c 0,0.31 0,0.542 0,0.696 0,0.387 0.009,0.774 0.029,1.16 0.019,0.388 0.087,0.726 0.203,1.016 0.116,0.29 0.386,0.513 0.812,0.667 h 1.044 z" style="fill:#000000" />
  </g>
</svg>