<?xml version="1.0" encoding="utf-8"?>
<svg version="1.1" x="0px" y="0px" width="92" height="92" viewBox="0 0 92 92">
  <g id="NoteWhole">
    <path d="M 0,50.5 C 0,49.41 0.404,48.527 1.213,47.85 2.022,47.174 2.988,46.696 4.113,46.418 5.238,46.14 6.278,46 7.233,46 c 1.043,0 2.137,0.138 3.283,0.413 1.146,0.275 2.14,0.749 2.984,1.419 0.844,0.672 1.289,1.561 1.336,2.668 0,1.102 -0.404,1.995 -1.213,2.681 -0.809,0.686 -1.777,1.172 -2.905,1.459 C 9.59,54.927 8.525,55.07 7.523,55.07 6.445,55.07 5.337,54.931 4.201,54.652 3.064,54.375 2.086,53.894 1.265,53.211 0.445,52.529 0.023,51.625 0,50.5 z m 4.5,-0.756 c 0.07,1.336 0.464,2.438 1.182,3.305 0.718,0.867 1.583,1.301 2.597,1.301 0.779,-0.088 1.317,-0.348 1.613,-0.777 0.296,-0.432 0.444,-1.18 0.444,-2.246 C 10.231,49.956 9.82,48.846 9.106,47.996 8.392,47.146 7.515,46.722 6.478,46.722 5.757,46.839 5.248,47.101 4.949,47.509 4.649,47.914 4.5,48.66 4.5,49.744 z" style="fill:#000000" />
  </g>
</svg>