<?xml version="1.0" encoding="utf-8"?>
<svg version="1.1" x="0px" y="0px" width="92" height="92" viewBox="0 0 92 92">
  <g id="NoteHiHatHalf">
    <path d="m 4.674,46 c 1.312,0 2.419,0.451 3.321,1.354 0.902,0.901 1.353,2.008 1.353,3.32 0,1.312 -0.451,2.419 -1.353,3.32 -0.902,0.902 -2.009,1.354 -3.321,1.354 -1.312,0 -2.419,-0.451 -3.321,-1.354 C 0.451,53.093 0,51.986 0,50.674 0,49.362 0.451,48.255 1.353,47.354 2.255,46.451 3.362,46 4.674,46 z m 0,0.492 c -1.148,0 -2.132,0.41 -2.952,1.23 -0.82,0.82 -1.23,1.804 -1.23,2.952 0,1.148 0.41,2.132 1.23,2.952 0.82,0.819 1.804,1.229 2.952,1.229 1.148,0 2.132,-0.41 2.952,-1.229 0.82,-0.82 1.23,-1.804 1.23,-2.952 0,-1.148 -0.41,-2.132 -1.23,-2.952 -0.82,-0.82 -1.804,-1.23 -2.952,-1.23 z" style="fill:#000000" />
  </g>
</svg>