<?xml version="1.0" encoding="utf-8"?>
<svg version="1.1" x="0px" y="0px" width="92" height="92" viewBox="0 0 92 92">
  <g id="NoteHalf">
    <path d="m 6.96,54.294 c -1.083,0.657 -2.166,0.985 -3.248,0.985 -1.199,0 -2.166,-0.426 -2.9,-1.275 C 0.27,53.424 0,52.708 0,51.857 0,50.929 0.299,50.021 0.899,49.131 1.498,48.241 2.262,47.546 3.19,47.043 4.311,46.348 5.432,46 6.554,46 c 1.082,0 2.01,0.367 2.784,1.102 0.58,0.58 0.87,1.315 0.87,2.205 0,0.928 -0.31,1.855 -0.928,2.783 -0.619,0.928 -1.392,1.662 -2.32,2.204 z M 1.218,53.656 c 0.193,0.231 0.58,0.348 1.16,0.348 0.657,0 1.324,-0.136 2.001,-0.406 0.676,-0.271 1.343,-0.647 2.001,-1.131 0.657,-0.484 1.276,-1.18 1.856,-2.088 0.58,-0.908 0.87,-1.691 0.87,-2.35 0,-0.231 -0.058,-0.443 -0.174,-0.637 C 8.816,47.238 8.584,47.16 8.236,47.16 c -0.464,0 -1.131,0.184 -2.001,0.551 -0.87,0.368 -1.644,0.773 -2.32,1.218 -0.677,0.445 -1.334,1.103 -1.972,1.972 -0.638,0.871 -0.957,1.596 -0.957,2.176 0,0.232 0.077,0.424 0.232,0.579 z" style="fill:#000000" />
  </g>
</svg>