<?xml version="1.0" encoding="utf-8"?>
<svg version="1.1" x="0px" y="0px" width="92" height="92" viewBox="0 0 92 92">
  <g id="NoteRideCymbal">
    <path d="m 9.342,50.629 -4.41,4.338 C 4.512,54.195 3.9,53.404 3.097,52.595 2.064,51.554 1.032,50.782 0,50.281 L 4.352,46 c 0.497,0.781 1.28,1.66 2.352,2.637 1.07,0.976 1.949,1.64 2.638,1.992 z m -4.41,3.293 3.366,-3.293 C 7.795,50.318 7.108,49.756 6.238,48.941 5.367,48.127 4.738,47.448 4.352,46.904 l -3.304,3.377 c 0.811,0.424 1.603,1.021 2.377,1.791 0.656,0.655 1.159,1.272 1.507,1.85 z" style="fill:#000000" />
  </g>
</svg>