<?xml version="1.0" encoding="utf-8"?>
<svg version="1.1" x="0px" y="0px" width="92" height="92" viewBox="0 0 92 92">
  <g id="NoteQuarter">
    <path d="M 6.949,54.795 C 5.868,55.451 4.786,55.78 3.706,55.78 2.509,55.78 1.543,55.354 0.81,54.504 0.27,53.924 0,53.209 0,52.358 0,51.429 0.298,50.522 0.897,49.632 1.495,48.742 2.258,48.046 3.185,47.544 4.304,46.849 5.424,46.5 6.544,46.5 c 1.081,0 2.007,0.368 2.78,1.103 0.579,0.58 0.869,1.315 0.869,2.204 0,0.928 -0.31,1.855 -0.926,2.783 -0.619,0.929 -1.391,1.662 -2.318,2.205 z" style="fill:#000000" />
  </g>
</svg>