<?xml version="1.0" encoding="utf-8"?>
<svg version="1.1" x="0px" y="0px" width="92" height="92" viewBox="0 0 92 92">
  <g id="Num0">
    <path d="M 0,54.533 C 0,52.229 0.45,50.303 1.35,48.755 2.394,46.919 3.888,46 5.832,46 c 1.872,0 3.33,0.918 4.374,2.754 0.899,1.585 1.35,3.51 1.35,5.778 0,2.303 -0.432,4.229 -1.296,5.777 -1.044,1.836 -2.52,2.754 -4.428,2.754 -1.872,0 -3.348,-0.918 -4.428,-2.754 C 0.467,58.727 0,56.801 0,54.533 z m 5.832,-7.614 c -1.008,0 -1.683,0.729 -2.025,2.187 -0.343,1.458 -0.513,3.268 -0.513,5.428 0,2.699 0.234,4.644 0.702,5.832 0.467,1.188 1.08,1.781 1.836,1.781 0.936,0 1.62,-0.883 2.052,-2.646 C 8.208,58.169 8.37,56.513 8.37,54.534 8.37,51.798 8.135,49.845 7.668,48.675 7.2,47.504 6.588,46.919 5.832,46.919 z" style="fill:#000000" />
  </g>
</svg>