<?xml version="1.0" encoding="utf-8"?>
<svg version="1.1" x="0px" y="0px" width="92" height="92" viewBox="0 0 92 92">
  <g id="Num2">
    <path d="m 4.104,47.188 c -0.937,0.107 -1.531,0.378 -1.782,0.81 0.072,0.145 0.144,0.271 0.216,0.378 0.684,0 1.152,0.072 1.404,0.217 0.54,0.288 0.81,0.863 0.81,1.728 0,0.612 -0.216,1.134 -0.648,1.565 C 3.672,52.319 3.167,52.534 2.592,52.534 1.98,52.534 1.458,52.337 1.026,51.94 0.594,51.544 0.378,51.022 0.378,50.374 0.378,49.186 0.882,48.16 1.89,47.296 2.897,46.433 4.031,46 5.292,46 c 1.692,0 3.113,0.36 4.266,1.08 1.368,0.864 2.052,2.034 2.052,3.511 0,1.295 -0.787,2.447 -2.361,3.455 -1.325,0.756 -2.631,1.53 -3.919,2.322 -0.787,0.611 -1.467,1.296 -2.04,2.053 -0.251,0.359 -0.502,0.736 -0.751,1.133 1.109,-0.647 2.112,-0.972 3.007,-0.972 0.645,0 1.307,0.18 1.987,0.54 0.393,0.18 0.876,0.521 1.45,1.026 0.465,0.396 0.823,0.594 1.074,0.594 0.824,0 1.378,-0.352 1.665,-1.054 0.071,-0.211 0.125,-0.58 0.161,-1.106 h 0.43 c 0,1.21 -0.181,2.169 -0.54,2.882 -0.54,1.066 -1.477,1.601 -2.808,1.601 -1.008,0 -2.061,-0.37 -3.159,-1.107 -1.099,-0.738 -2.007,-1.106 -2.727,-1.106 -1.08,0 -1.782,0.27 -2.106,0.81 -0.145,0.647 -0.235,1.026 -0.27,1.134 H 0 c 0.036,-0.359 0.089,-0.701 0.162,-1.025 0.072,-0.324 0.27,-0.793 0.594,-1.404 0.468,-0.937 1.512,-2.214 3.132,-3.834 3.132,-3.132 4.698,-5.058 4.698,-5.777 0,-2.38 -1.494,-3.568 -4.482,-3.568 z" style="fill:#000000" />
  </g>
</svg>