<?xml version="1.0" encoding="utf-8"?>
<svg version="1.1" x="0px" y="0px" width="92" height="92" viewBox="0 0 92 92">
  <g id="Num3">
    <path d="m 4.456,54.856 v -0.594 c 0.218,0 0.473,-0.055 0.765,-0.162 1.131,-0.396 1.933,-0.773 2.407,-1.134 0.729,-0.575 1.094,-1.296 1.094,-2.16 0,-1.115 -0.354,-2.042 -1.063,-2.78 -0.708,-0.738 -1.499,-1.107 -2.371,-1.107 -1.127,0 -1.944,0.324 -2.452,0.972 0.036,0.181 0.089,0.343 0.162,0.486 0.72,0 1.206,0.161 1.458,0.485 0.251,0.324 0.378,0.756 0.378,1.297 0,1.188 -0.667,1.781 -1.998,1.781 C 2.26,51.94 1.81,51.778 1.486,51.454 1.162,51.131 1,50.609 1,49.889 c 0,-1.26 0.44,-2.231 1.323,-2.916 0.881,-0.684 2.313,-1.026 4.293,-1.026 1.331,0 2.511,0.479 3.537,1.432 1.026,0.954 1.539,2.115 1.539,3.482 0,1.009 -0.216,1.773 -0.648,2.295 -0.432,0.523 -1.116,0.982 -2.052,1.377 0.864,0.359 1.493,0.774 1.89,1.242 0.54,0.648 0.81,1.477 0.81,2.484 0,1.332 -0.513,2.475 -1.539,3.429 -1.026,0.954 -2.206,1.431 -3.537,1.431 -1.944,0 -3.367,-0.342 -4.266,-1.025 C 1.45,61.408 1,60.437 1,59.177 1,58.421 1.153,57.89 1.459,57.583 1.765,57.277 2.242,57.124 2.89,57.124 c 1.296,0 1.944,0.595 1.944,1.783 0,0.574 -0.126,1.016 -0.378,1.322 -0.252,0.306 -0.756,0.459 -1.512,0.459 0.036,0.217 0.089,0.45 0.162,0.702 0.612,0.468 1.35,0.702 2.214,0.702 0.828,0 1.602,-0.36 2.322,-1.08 0.72,-0.721 1.08,-1.639 1.08,-2.754 0,-0.828 -0.36,-1.531 -1.08,-2.105 -0.54,-0.433 -1.35,-0.829 -2.43,-1.188 L 4.456,54.856 z" style="fill:#000000" />
  </g>
</svg>