<?xml version="1.0" encoding="utf-8"?>
<svg version="1.1" x="0px" y="0px" width="92" height="92" viewBox="0 0 92 92">
  <g id="Num4">
    <path d="m 9.609,46 c -0.864,1.477 -1.747,2.962 -2.646,4.455 -0.9,1.494 -1.62,2.584 -2.16,3.268 L 1.779,58.42 h 4.482 v -5.562 l 3.78,-3.187 v 8.748 h 1.62 v 0.756 h -1.62 c 0,0.396 0.008,0.811 0.027,1.242 0.018,0.433 0.063,0.783 0.135,1.053 0.072,0.271 0.396,0.531 0.972,0.783 0.072,0.036 0.234,0.09 0.486,0.162 v 0.756 H 4.533 v -0.756 c 0.324,-0.107 0.558,-0.18 0.702,-0.216 0.54,-0.216 0.828,-0.432 0.864,-0.647 0.035,-0.181 0.063,-0.514 0.081,-1 0.018,-0.485 0.044,-0.944 0.081,-1.377 H 0.375 V 58.42 C 1.958,57.305 3.165,55.54 3.993,53.129 4.425,50.752 4.874,48.377 5.343,46 h 4.266 z" style="fill:#000000" />
  </g>
</svg>