<?xml version="1.0" encoding="utf-8"?>
<svg version="1.1" x="0px" y="0px" width="92" height="92" viewBox="0 0 92 92">
  <g id="Num5">
    <path d="m 1.202,45.946 c 0.108,0.072 0.639,0.188 1.593,0.351 0.954,0.162 1.773,0.243 2.457,0.243 0.899,0 1.719,-0.054 2.457,-0.161 C 8.446,46.27 9.104,46.145 9.68,46 c 0,0.613 -0.081,1.126 -0.243,1.539 -0.162,0.414 -0.478,0.783 -0.945,1.107 -0.216,0.145 -0.621,0.27 -1.215,0.378 -0.594,0.108 -1.125,0.161 -1.593,0.161 -0.721,0 -1.458,-0.053 -2.214,-0.161 C 2.714,48.916 2.3,48.809 2.228,48.7 v 4.752 c 0.936,-1.044 1.979,-1.565 3.132,-1.565 1.584,0 2.862,0.434 3.834,1.303 0.972,0.867 1.458,1.988 1.458,3.363 0,1.736 -0.612,3.256 -1.836,4.559 -1.224,1.302 -2.665,1.953 -4.32,1.953 C 4.1,63.065 3.812,63.046 3.632,63.01 2.768,62.865 2.084,62.578 1.58,62.147 0.859,61.533 0.5,60.58 0.5,59.284 c 0,-0.612 0.162,-1.099 0.486,-1.458 0.324,-0.36 0.828,-0.54 1.512,-0.54 1.368,0 2.052,0.647 2.052,1.944 0,1.08 -0.432,1.691 -1.296,1.836 -0.252,0.108 -0.504,0.234 -0.756,0.378 0.324,0.323 0.684,0.548 1.08,0.675 0.396,0.126 0.792,0.189 1.188,0.189 0.936,0 1.709,-0.453 2.322,-1.357 0.612,-0.906 0.918,-2.191 0.918,-3.857 0,-1.122 -0.27,-2.091 -0.81,-2.904 -0.54,-0.816 -1.278,-1.223 -2.214,-1.223 -1.188,0 -2.106,0.539 -2.754,1.619 H 1.202 v -8.64 z" style="fill:#000000" />
  </g>
</svg>