<?xml version="1.0" encoding="utf-8"?>
<svg version="1.1" x="0px" y="0px" width="92" height="92" viewBox="0 0 92 92">
  <g id="Num6">
    <path d="M 8.773,47.675 C 8.701,47.562 8.647,47.447 8.611,47.334 8.035,46.806 7.423,46.541 6.775,46.541 c -0.324,0 -0.63,0.072 -0.918,0.216 -0.648,0.36 -1.143,1.106 -1.485,2.241 -0.343,1.134 -0.513,2.277 -0.513,3.429 0,1.656 0.198,2.538 0.594,2.646 0.75,-1.08 1.857,-1.619 3.322,-1.619 1.107,0 2.018,0.521 2.733,1.565 0.607,0.899 0.911,1.907 0.911,3.024 0,1.547 -0.478,2.781 -1.431,3.699 -0.954,0.918 -2.133,1.377 -3.537,1.377 -1.909,0 -3.412,-0.892 -4.509,-2.674 C 0.843,58.664 0.295,56.62 0.295,54.316 0.295,52.229 0.943,50.32 2.239,48.592 3.536,46.865 5.029,46 6.722,46 c 1.583,0 2.735,0.492 3.456,1.473 0.503,0.689 0.756,1.488 0.756,2.396 0,0.545 -0.198,1.036 -0.594,1.472 -0.396,0.437 -0.792,0.653 -1.188,0.653 -0.684,0 -1.224,-0.162 -1.62,-0.485 -0.397,-0.324 -0.594,-0.864 -0.594,-1.62 0,-0.684 0.216,-1.215 0.648,-1.593 0.432,-0.378 0.827,-0.585 1.187,-0.621 z M 8.558,58.529 c 0,-1.297 -0.09,-2.215 -0.27,-2.754 -0.324,-0.938 -0.918,-1.404 -1.782,-1.404 -0.829,0 -1.377,0.387 -1.647,1.16 -0.27,0.774 -0.405,1.773 -0.405,2.998 0,1.08 0.144,1.998 0.432,2.754 0.288,0.756 0.828,1.133 1.62,1.133 0.72,0 1.242,-0.396 1.566,-1.188 0.324,-0.791 0.486,-1.692 0.486,-2.699 z" style="fill:#000000" />
  </g>
</svg>