<?xml version="1.0" encoding="utf-8"?>
<svg version="1.1" x="0px" y="0px" width="92" height="92" viewBox="0 0 92 92">
  <g id="Num7">
    <path d="M 3.393,63.064 C 3.5,62.2 3.626,61.336 3.771,60.473 4.203,58.744 4.959,57.34 6.039,56.26 c 1.224,-1.188 2.178,-2.214 2.862,-3.078 0.9,-1.115 1.422,-2.016 1.566,-2.699 l 0.27,-1.242 c -0.468,0.303 -0.964,0.568 -1.485,0.794 -0.522,0.227 -1.035,0.34 -1.539,0.34 -0.937,0 -2.07,-0.407 -3.402,-1.224 -0.648,-0.408 -1.207,-0.612 -1.674,-0.612 -0.576,0 -0.981,0.171 -1.215,0.513 -0.235,0.343 -0.424,0.658 -0.567,0.945 H 0.207 v -3.564 h 0.54 c 0.072,0.217 0.162,0.441 0.27,0.676 0.108,0.235 0.306,0.351 0.594,0.351 0.251,0 0.629,-0.162 1.134,-0.485 1.08,-0.721 1.854,-1.08 2.322,-1.08 0.756,0 1.494,0.262 2.214,0.782 0.72,0.522 1.404,0.783 2.052,0.783 0.468,0 0.828,-0.224 1.08,-0.671 0.108,-0.187 0.197,-0.484 0.27,-0.895 h 0.702 v 3.401 c 0,1.075 -0.176,2.062 -0.525,2.958 -0.105,0.252 -0.876,1.596 -2.311,4.034 -0.351,0.646 -0.605,1.425 -0.762,2.341 -0.158,0.914 -0.236,1.783 -0.236,2.607 0,1.148 0,1.758 0,1.83 H 3.393 z" style="fill:#000000" />
  </g>
</svg>