<?xml version="1.0" encoding="utf-8"?>
<svg version="1.1" x="0px" y="0px" width="92" height="92" viewBox="0 0 92 92">
  <g id="Num8">
    <path d="m 7.841,53.668 c 0.575,0.181 1.26,0.775 2.052,1.782 0.648,0.792 0.972,1.513 0.972,2.16 0,1.836 -0.576,3.239 -1.728,4.212 -0.972,0.828 -2.142,1.242 -3.51,1.242 -1.512,0 -2.764,-0.496 -3.753,-1.485 -0.99,-0.99 -1.485,-2.313 -1.485,-3.969 0,-0.685 0.342,-1.386 1.026,-2.106 C 1.919,54.965 2.477,54.568 3.089,54.316 2.368,53.92 1.811,53.371 1.415,52.67 1.019,51.967 0.821,51.221 0.821,50.428 c 0,-1.367 0.486,-2.447 1.458,-3.24 C 3.251,46.396 4.367,46 5.627,46 c 1.331,0 2.457,0.405 3.375,1.215 0.918,0.811 1.377,1.953 1.377,3.43 0,0.576 -0.324,1.206 -0.972,1.89 -0.504,0.539 -1.026,0.917 -1.566,1.133 z m -4.05,1.35 c -0.576,0.289 -1.026,0.612 -1.35,0.973 -0.468,0.54 -0.702,1.188 -0.702,1.943 0,1.08 0.356,2.043 1.069,2.89 0.713,0.845 1.655,1.269 2.824,1.269 1.06,0 1.855,-0.242 2.385,-0.729 0.53,-0.487 0.796,-1.035 0.796,-1.646 0,-0.396 -0.268,-0.883 -0.801,-1.459 C 7.479,57.683 6.889,57.196 6.246,56.802 5.602,56.406 5.005,55.991 4.453,55.56 4.27,55.414 4.049,55.234 3.791,55.018 z m 3.186,-2.051 c 0.468,-0.18 0.891,-0.531 1.269,-1.054 0.378,-0.521 0.567,-1.071 0.567,-1.647 0,-1.007 -0.289,-1.836 -0.864,-2.483 -0.576,-0.647 -1.369,-0.972 -2.376,-0.972 -0.792,0 -1.45,0.262 -1.971,0.783 -0.522,0.521 -0.783,1.125 -0.783,1.809 0,0.36 0.251,0.756 0.756,1.188 0.251,0.217 0.729,0.541 1.431,0.973 0.702,0.432 1.215,0.774 1.539,1.025 0.108,0.107 0.252,0.233 0.432,0.378 z" style="fill:#000000" />
  </g>
</svg>