<?xml version="1.0" encoding="utf-8"?>
<svg version="1.1" x="0px" y="0px" width="92" height="92" viewBox="0 0 92 92">
  <g id="Num9">
    <path d="m 3.03,61.471 c 0.036,0.107 0.09,0.216 0.162,0.324 0.576,0.504 1.188,0.756 1.836,0.756 0.324,0 0.629,-0.072 0.918,-0.217 0.684,-0.359 1.179,-1.07 1.485,-2.133 0.305,-1.063 0.459,-2.223 0.459,-3.482 0,-1.693 -0.181,-2.592 -0.54,-2.7 -0.756,1.115 -1.854,1.674 -3.294,1.674 -1.116,0 -2.007,-0.489 -2.673,-1.466 C 0.716,53.25 0.384,52.2 0.384,51.078 c 0,-1.557 0.477,-2.797 1.431,-3.72 0.954,-0.924 2.151,-1.385 3.591,-1.385 1.908,0 3.438,0.937 4.59,2.809 1.007,1.656 1.512,3.654 1.512,5.993 0,2.087 -0.648,3.996 -1.944,5.724 -1.296,1.729 -2.79,2.593 -4.482,2.593 -1.584,0 -2.736,-0.486 -3.456,-1.458 C 1.122,60.949 0.87,60.157 0.87,59.258 c 0,-0.54 0.197,-1.026 0.594,-1.458 0.396,-0.432 0.864,-0.648 1.404,-0.648 0.611,0 1.098,0.162 1.458,0.486 0.359,0.324 0.54,0.863 0.54,1.62 0,0.683 -0.252,1.241 -0.756,1.674 -0.36,0.322 -0.72,0.502 -1.08,0.539 z M 3.246,50.589 c 0,1.304 0.089,2.229 0.27,2.772 0.324,0.942 0.899,1.413 1.728,1.413 0.828,0 1.385,-0.407 1.674,-1.223 0.288,-0.815 0.432,-1.803 0.432,-2.963 0,-1.123 -0.126,-1.993 -0.378,-2.61 -0.36,-0.869 -0.937,-1.304 -1.728,-1.304 -0.756,0 -1.278,0.38 -1.566,1.142 -0.288,0.761 -0.432,1.686 -0.432,2.773 z" style="fill:#000000" />
  </g>
</svg>