<?xml version="1.0" encoding="utf-8"?>
<svg version="1.1" x="0px" y="0px" width="92" height="92" viewBox="0 0 92 92">
  <g id="OpenNote">
    <path d="M 4.432,56.921 C 3.186,56.921 2.136,56.47 1.282,55.566 0.427,54.663 0,53.589 0,52.343 c 0,-1.306 0.421,-2.395 1.264,-3.269 0.842,-0.872 1.897,-1.309 3.168,-1.309 1.22,0 2.255,0.394 3.104,1.182 0.848,0.786 1.309,1.772 1.382,2.956 0,1.453 -0.418,2.635 -1.254,3.543 -0.837,0.91 -1.914,1.402 -3.232,1.475 z M 4.267,48.662 c -1.014,0 -1.828,0.357 -2.444,1.071 -0.617,0.715 -0.925,1.584 -0.925,2.609 0,1.014 0.329,1.855 0.988,2.527 0.659,0.672 1.508,1.008 2.546,1.008 1.135,0 2.017,-0.364 2.646,-1.09 C 7.707,54.06 8.02,53.099 8.02,51.902 7.801,49.743 6.549,48.662 4.267,48.662 z" style="fill:#000000" />
  </g>
</svg>