<?xml version="1.0" encoding="utf-8"?>
<svg version="1.1" x="0px" y="0px" width="92" height="92" viewBox="0 0 92 92">
  <g id="OttavaAbove">
    <path d="m 5.367,51.836 c 0.787,0.09 1.476,0.457 2.065,1.102 0.589,0.645 0.885,1.387 0.885,2.227 0,0.959 -0.394,1.715 -1.18,2.27 -0.787,0.555 -1.755,0.832 -2.904,0.832 -1.12,0 -2.081,-0.285 -2.882,-0.854 -0.802,-0.568 -1.203,-1.348 -1.203,-2.336 0,-0.42 0.054,-0.779 0.159,-1.078 C 0.413,53.7 0.602,53.385 0.874,53.056 1.146,52.726 1.645,52.427 2.371,52.158 2.492,52.128 2.658,52.083 2.87,52.023 2.174,51.9 1.599,51.541 1.146,50.945 0.692,50.349 0.465,49.715 0.465,49.042 c 0,-0.886 0.378,-1.612 1.134,-2.178 0.756,-0.566 1.589,-0.849 2.496,-0.849 0.968,0 1.853,0.291 2.655,0.871 0.801,0.581 1.202,1.314 1.202,2.2 0,0.734 -0.227,1.346 -0.681,1.835 -0.242,0.245 -0.62,0.474 -1.135,0.688 C 5.957,51.668 5.7,51.744 5.367,51.836 z M 3.28,52.094 c -0.666,0.213 -1.188,0.575 -1.566,1.09 -0.378,0.514 -0.566,1.119 -0.566,1.814 0,0.727 0.279,1.415 0.839,2.064 0.56,0.65 1.309,0.977 2.247,0.977 0.907,0 1.663,-0.363 2.269,-1.09 0.514,-0.604 0.771,-1.24 0.771,-1.906 0,-0.544 -0.212,-1.013 -0.636,-1.406 C 6.335,53.366 5.957,53.138 5.504,52.956 L 3.28,52.094 z M 5.094,51.686 C 6.395,51.293 7.046,50.415 7.046,49.054 7.046,48.389 6.788,47.76 6.275,47.17 5.76,46.58 5.049,46.285 4.142,46.285 c -0.878,0 -1.551,0.288 -2.02,0.862 -0.47,0.575 -0.704,1.195 -0.704,1.86 0,0.363 0.144,0.727 0.432,1.09 0.287,0.363 0.688,0.635 1.202,0.816 l 2.042,0.773 z M 8.907,49.326 8.77,49.229 9.452,48.645 c 0.241,-0.211 0.514,-0.287 0.816,-0.227 0.272,0.031 0.408,0.242 0.408,0.636 0,0.362 -0.158,1.006 -0.477,1.929 -0.317,0.923 -0.477,1.49 -0.477,1.701 0,0.334 0.137,0.47 0.409,0.408 0.423,-0.029 0.944,-0.477 1.565,-1.338 0.619,-0.862 0.93,-1.566 0.93,-2.11 0,-0.12 -0.075,-0.228 -0.227,-0.317 -0.182,-0.092 -0.288,-0.166 -0.317,-0.228 -0.152,-0.302 -0.076,-0.499 0.227,-0.59 0.302,-0.12 0.529,0.091 0.681,0.636 0.182,0.756 -0.129,1.672 -0.931,2.745 -0.802,1.074 -1.475,1.611 -2.019,1.611 -0.575,0 -0.862,-0.242 -0.862,-0.726 0,-0.182 0.045,-0.379 0.136,-0.591 0.091,-0.211 0.234,-0.657 0.432,-1.339 0.196,-0.68 0.295,-1.202 0.295,-1.565 0,-0.151 -0.016,-0.257 -0.046,-0.317 C 9.904,48.781 9.753,48.766 9.541,48.918 l -0.634,0.408 z m 7.941,3.721 0.816,-0.681 -0.726,0.839 c -0.182,0.197 -0.363,0.296 -0.545,0.296 -0.151,0 -0.212,-0.151 -0.182,-0.454 l 0.409,-1.68 c -0.031,0.213 -0.288,0.591 -0.771,1.135 -0.575,0.666 -1.09,0.999 -1.543,0.999 -0.666,0 -0.999,-0.394 -0.999,-1.181 0,-0.785 0.287,-1.595 0.862,-2.428 0.574,-0.831 1.226,-1.248 1.951,-1.248 0.394,0 0.741,0.152 1.044,0.454 l 0.091,-0.454 h 0.318 l -0.953,4.078 c -0.062,0.186 -0.076,0.309 -0.046,0.369 0.032,0.062 0.123,0.047 0.274,-0.044 z m -2.541,0 c 0.514,0 1.073,-0.371 1.679,-1.113 0.182,-0.248 0.438,-0.634 0.771,-1.16 l 0.317,-1.346 c -0.333,-0.34 -0.665,-0.51 -0.998,-0.51 -0.545,0 -1.052,0.402 -1.521,1.206 -0.469,0.804 -0.703,1.546 -0.703,2.227 10e-4,0.463 0.152,0.696 0.455,0.696 z" style="fill:#000000" />
  </g>
</svg>