<?xml version="1.0" encoding="utf-8"?>
<svg version="1.1" x="0px" y="0px" width="92" height="92" viewBox="0 0 92 92">
  <g id="OttavaBelow">
    <path d="m 5.457,51.89 c 0.756,0.062 1.43,0.419 2.02,1.071 0.59,0.652 0.885,1.419 0.885,2.3 0,0.972 -0.394,1.739 -1.18,2.3 -0.787,0.562 -1.755,0.843 -2.904,0.843 -1.12,0 -2.081,-0.288 -2.882,-0.865 -0.802,-0.577 -1.202,-1.366 -1.202,-2.368 0,-0.334 0.06,-0.684 0.181,-1.048 0.121,-0.364 0.311,-0.69 0.567,-0.979 C 1.198,52.855 1.6,52.589 2.145,52.347 2.327,52.286 2.583,52.195 2.916,52.074 2.22,51.953 1.652,51.603 1.214,51.027 0.776,50.449 0.556,49.812 0.556,49.113 c 0,-0.85 0.378,-1.563 1.135,-2.14 0.756,-0.577 1.572,-0.866 2.45,-0.866 0.938,0 1.822,0.289 2.655,0.866 0.832,0.578 1.248,1.305 1.248,2.186 0,0.729 -0.228,1.337 -0.681,1.821 C 7.12,51.223 6.742,51.451 6.228,51.664 6.047,51.723 5.79,51.799 5.457,51.89 z m -2.179,0.341 c -0.665,0.212 -1.18,0.575 -1.543,1.089 -0.362,0.516 -0.544,1.12 -0.544,1.815 0,0.726 0.279,1.415 0.84,2.065 0.559,0.65 1.308,0.975 2.246,0.975 0.938,0 1.693,-0.362 2.269,-1.088 0.483,-0.605 0.727,-1.24 0.727,-1.906 0,-0.514 -0.212,-0.982 -0.636,-1.407 C 6.334,53.472 5.971,53.246 5.548,53.093 l -2.27,-0.862 z m 1.816,-0.408 c 1.301,-0.396 1.951,-1.281 1.951,-2.654 0,-0.671 -0.257,-1.304 -0.771,-1.898 -0.515,-0.595 -1.21,-0.893 -2.087,-0.893 -0.878,0 -1.551,0.298 -2.02,0.893 -0.47,0.595 -0.703,1.197 -0.703,1.808 0,0.365 0.136,0.739 0.408,1.121 0.272,0.381 0.665,0.663 1.18,0.846 l 2.042,0.777 z M 9.042,49.286 H 8.906 l 0.635,-0.458 c 0.242,-0.272 0.529,-0.393 0.862,-0.363 0.242,0.031 0.363,0.234 0.363,0.607 0,0.343 -0.152,0.98 -0.454,1.915 -0.303,0.935 -0.454,1.542 -0.454,1.821 0,0.342 0.137,0.497 0.409,0.467 0.423,-0.031 0.945,-0.492 1.565,-1.383 0.619,-0.891 0.931,-1.618 0.931,-2.182 0,-0.124 -0.106,-0.25 -0.318,-0.375 -0.151,-0.063 -0.227,-0.125 -0.227,-0.188 -0.151,-0.303 -0.091,-0.501 0.182,-0.593 0.332,-0.12 0.574,0.093 0.726,0.642 0.182,0.764 -0.129,1.688 -0.93,2.771 -0.803,1.083 -1.46,1.626 -1.975,1.626 -0.635,0 -0.953,-0.282 -0.953,-0.846 0,-0.089 0.03,-0.223 0.091,-0.4 0.182,-0.475 0.355,-1.023 0.522,-1.646 0.166,-0.622 0.249,-1.053 0.249,-1.29 0,-0.178 -0.03,-0.297 -0.091,-0.357 C 9.978,48.994 9.857,49.009 9.677,49.1 l -0.635,0.186 z m 5.854,-2.818 -0.727,-0.091 c 0.239,0.061 0.539,0.011 0.899,-0.151 0.119,-0.033 0.3,-0.15 0.539,-0.352 l -1.314,4.447 c 0.304,-0.451 0.645,-0.814 1.024,-1.086 0.379,-0.272 0.767,-0.408 1.162,-0.408 0.394,0 0.683,0.115 0.864,0.344 0.183,0.229 0.274,0.558 0.274,0.984 0,0.795 -0.303,1.566 -0.908,2.314 -0.605,0.748 -1.377,1.123 -2.314,1.123 -0.303,0 -0.574,-0.08 -0.816,-0.24 -0.242,-0.16 -0.333,-0.367 -0.272,-0.623 l 1.589,-6.261 z m -1.18,6.486 c 0.151,0.214 0.424,0.321 0.817,0.321 0.786,0 1.467,-0.428 2.042,-1.285 0.483,-0.733 0.726,-1.453 0.726,-2.156 0,-0.305 -0.075,-0.504 -0.227,-0.596 -0.182,-0.092 -0.363,-0.138 -0.545,-0.138 -0.362,0 -0.771,0.176 -1.225,0.527 -0.454,0.352 -0.817,0.772 -1.089,1.261 l -0.499,2.066 z" style="fill:#000000" />
  </g>
</svg>