<?xml version="1.0" encoding="utf-8"?>
<svg version="1.1" x="0px" y="0px" width="92" height="92" viewBox="0 0 92 92">
  <g id="QuindicesimaAbove">
    <path d="M 2.179,56.409 V 49.26 48.54 c -0.095,-0.089 -0.3,-0.135 -0.615,-0.135 -0.253,0 -0.427,0.016 -0.521,0.046 L 0.049,48.768 0,48.541 3.177,46.636 v 9.803 c 0,0.393 0.068,0.688 0.204,0.885 0.137,0.197 0.311,0.34 0.522,0.431 l 1.452,0.408 v 0.091 H 0.045 L 0,58.073 1.498,57.669 C 1.74,57.579 1.921,57.429 2.043,57.218 2.134,57.069 2.179,56.8 2.179,56.409 z m 4.402,-6.461 c 0.604,0.152 1.059,0.272 1.361,0.363 0.968,0.272 1.679,0.529 2.133,0.771 1.754,0.878 2.632,1.922 2.632,3.131 0,0.727 -0.159,1.407 -0.477,2.043 -0.317,0.635 -0.703,1.111 -1.157,1.429 -0.454,0.318 -0.87,0.538 -1.248,0.658 -0.379,0.12 -0.946,0.182 -1.702,0.182 -0.665,0 -1.286,-0.136 -1.86,-0.409 C 5.688,57.845 5.4,57.481 5.4,57.028 c 0,-0.242 0.166,-0.363 0.499,-0.363 0.182,0 0.416,0.053 0.704,0.158 0.287,0.106 0.612,0.356 0.976,0.749 0.363,0.394 0.695,0.59 0.998,0.59 0.968,0 1.709,-0.393 2.224,-1.18 0.424,-0.636 0.636,-1.315 0.636,-2.042 0,-0.574 -0.189,-1.082 -0.567,-1.521 C 10.491,52.981 10.076,52.641 9.622,52.398 9.168,52.155 8.366,51.853 7.217,51.49 6.854,51.369 6.339,51.219 5.674,51.037 l 1.543,-4.266 h 4.266 c 0.363,0 0.65,-0.045 0.862,-0.136 L 12.799,46.293 13.024,46 h 0.091 l -1.271,1.951 H 7.352 l -0.771,1.997 z m 11.208,2.224 h -0.59 l 1.452,-3.676 c 0,-0.182 0,-0.302 0,-0.363 -0.061,-0.271 -0.212,-0.423 -0.453,-0.453 -0.243,-0.03 -0.515,0.136 -0.817,0.499 -0.03,0.062 -0.091,0.167 -0.182,0.317 l -1.452,3.676 h -0.681 l 1.543,-3.797 c -0.03,-0.155 -0.045,-0.264 -0.045,-0.324 -0.062,-0.217 -0.182,-0.34 -0.363,-0.371 -0.454,-0.061 -0.983,0.343 -1.588,1.209 -0.091,0.125 -0.213,0.341 -0.363,0.651 h -0.182 c 0.302,-0.474 0.545,-0.829 0.726,-1.066 0.575,-0.71 1.119,-1.066 1.634,-1.066 0.182,0.028 0.348,0.142 0.5,0.341 0.029,0.057 0.09,0.17 0.181,0.34 0.091,-0.17 0.166,-0.283 0.228,-0.34 0.241,-0.228 0.604,-0.341 1.089,-0.341 0.182,0 0.333,0.114 0.454,0.342 0.029,0.057 0.075,0.185 0.136,0.384 0.182,-0.211 0.317,-0.348 0.408,-0.408 0.363,-0.271 0.741,-0.378 1.135,-0.317 0.302,0.062 0.499,0.242 0.59,0.544 0.03,0.092 0.061,0.258 0.091,0.5 l -1.226,3.04 c -0.03,0.152 -0.045,0.258 -0.045,0.318 0,0.09 0.061,0.136 0.182,0.136 0.182,0 0.393,-0.174 0.635,-0.522 0.061,-0.115 0.166,-0.289 0.318,-0.521 l 0.136,0.044 c -0.151,0.293 -0.272,0.498 -0.363,0.614 -0.303,0.439 -0.56,0.658 -0.771,0.658 -0.515,0 -0.711,-0.207 -0.59,-0.623 l 1.226,-3.067 c 0,-0.178 0,-0.297 0,-0.355 -0.062,-0.237 -0.227,-0.356 -0.499,-0.356 -0.272,0 -0.515,0.106 -0.727,0.317 -0.061,0.062 -0.151,0.182 -0.272,0.363 l -1.455,3.673 z m 7.488,-0.362 0.771,-0.636 -0.727,0.737 c -0.182,0.174 -0.362,0.261 -0.544,0.261 -0.152,0 -0.212,-0.12 -0.182,-0.362 l 0.408,-1.589 c -0.061,0.318 -0.438,0.781 -1.135,1.39 -0.453,0.404 -0.847,0.607 -1.18,0.607 -0.666,0 -0.998,-0.383 -0.998,-1.146 0,-0.794 0.287,-1.58 0.862,-2.359 0.574,-0.778 1.225,-1.169 1.951,-1.169 0.241,0 0.483,0.055 0.726,0.162 0.061,0.027 0.166,0.094 0.318,0.201 l 0.091,-0.363 h 0.317 l -0.953,3.952 c -0.061,0.18 -0.076,0.3 -0.045,0.359 0.032,0.06 0.139,0.044 0.32,-0.045 z m -2.631,0 c 0.514,0 1.089,-0.359 1.724,-1.078 0.212,-0.238 0.469,-0.612 0.771,-1.121 l 0.272,-1.347 c -0.303,-0.299 -0.635,-0.448 -0.998,-0.448 -0.545,0 -1.052,0.39 -1.521,1.167 -0.469,0.778 -0.703,1.495 -0.703,2.153 0,0.449 0.152,0.674 0.455,0.674 z" style="fill:#000000" />
  </g>
</svg>