<?xml version="1.0" encoding="utf-8"?>
<svg version="1.1" x="0px" y="0px" width="92" height="92" viewBox="0 0 92 92">
  <g id="QuindicesimaBelow">
    <path d="m 2.246,55.965 v -7.149 -0.72 C 2.15,48.006 1.945,47.961 1.631,47.961 c -0.253,0 -0.427,0.016 -0.521,0.045 L 0.116,48.324 0.068,48.096 3.245,46.19 v 9.801 c 0,0.395 0.068,0.689 0.205,0.886 0.135,0.196 0.309,0.341 0.521,0.431 l 1.453,0.408 v 0.092 H 0.114 L 0.068,57.628 1.565,57.224 C 1.807,57.133 1.989,56.983 2.11,56.773 2.201,56.624 2.246,56.354 2.246,55.965 z m 4.401,-6.461 c 0.605,0.151 1.06,0.271 1.361,0.363 0.968,0.271 1.679,0.529 2.133,0.771 1.755,0.877 2.633,1.921 2.633,3.131 0,0.727 -0.159,1.406 -0.477,2.041 -0.318,0.637 -0.704,1.113 -1.157,1.43 -0.454,0.318 -0.871,0.539 -1.248,0.658 C 9.514,58.02 8.946,58.08 8.19,58.08 7.524,58.08 6.904,57.944 6.329,57.672 5.755,57.4 5.468,57.037 5.468,56.582 c 0,-0.24 0.166,-0.362 0.499,-0.362 0.182,0 0.415,0.054 0.704,0.159 0.286,0.105 0.612,0.355 0.975,0.748 0.363,0.395 0.696,0.59 0.999,0.59 0.968,0 1.708,-0.393 2.223,-1.18 0.425,-0.635 0.637,-1.316 0.637,-2.041 0,-0.574 -0.189,-1.082 -0.568,-1.521 C 10.559,52.537 10.143,52.197 9.689,51.954 9.235,51.713 8.434,51.41 7.285,51.047 6.922,50.926 6.407,50.774 5.742,50.593 l 1.543,-4.266 h 4.266 c 0.363,0 0.649,-0.046 0.861,-0.136 l 0.454,-0.342 0.228,-0.293 h 0.091 l -1.271,1.951 H 7.419 l -0.772,1.997 z m 11.209,2.223 h -0.591 l 1.453,-3.675 c 0,-0.182 0,-0.303 0,-0.364 -0.061,-0.271 -0.212,-0.422 -0.454,-0.453 -0.242,-0.029 -0.515,0.137 -0.816,0.5 -0.03,0.061 -0.091,0.166 -0.183,0.317 l -1.451,3.675 h -0.681 l 1.543,-3.797 c -0.031,-0.154 -0.046,-0.263 -0.046,-0.324 -0.061,-0.217 -0.182,-0.34 -0.362,-0.371 -0.454,-0.061 -0.983,0.344 -1.589,1.21 -0.091,0.124 -0.212,0.341 -0.362,0.65 h -0.183 c 0.302,-0.474 0.545,-0.829 0.727,-1.065 0.574,-0.711 1.119,-1.067 1.633,-1.067 0.183,0.028 0.348,0.142 0.5,0.34 0.03,0.057 0.091,0.17 0.182,0.34 0.09,-0.17 0.166,-0.283 0.227,-0.34 0.242,-0.227 0.605,-0.34 1.089,-0.34 0.182,0 0.333,0.114 0.454,0.342 0.03,0.056 0.075,0.185 0.137,0.383 0.182,-0.21 0.317,-0.347 0.408,-0.408 0.363,-0.271 0.741,-0.377 1.134,-0.317 0.302,0.061 0.5,0.243 0.591,0.544 0.03,0.091 0.06,0.257 0.09,0.499 l -1.226,3.041 c -0.029,0.151 -0.044,0.258 -0.044,0.317 0,0.091 0.06,0.136 0.181,0.136 0.183,0 0.393,-0.173 0.636,-0.521 0.061,-0.115 0.166,-0.289 0.317,-0.521 l 0.136,0.043 c -0.15,0.293 -0.271,0.498 -0.363,0.614 -0.302,0.438 -0.559,0.658 -0.771,0.658 -0.516,0 -0.712,-0.206 -0.59,-0.622 l 1.226,-3.068 c 0,-0.178 0,-0.295 0,-0.355 -0.062,-0.236 -0.228,-0.355 -0.5,-0.355 -0.271,0 -0.515,0.106 -0.726,0.316 -0.061,0.062 -0.152,0.183 -0.272,0.364 l -1.454,3.674 z" style="fill:#000000" />
  </g>
</svg>