<?xml version="1.0" encoding="utf-8"?>
<svg version="1.1" x="0px" y="0px" width="92" height="92" viewBox="0 0 92 92">
  <g id="RestEighth">
    <path d="m 2.432,46 c 0.656,0 1.235,0.252 1.738,0.754 0.501,0.503 0.752,1.044 0.752,1.624 0,0.271 -0.097,0.6 -0.29,0.986 -0.193,0.387 -0.483,0.695 -0.869,0.928 0.232,0.078 0.463,0.154 0.695,0.232 0.154,0 0.385,-0.059 0.695,-0.176 0.888,-0.314 1.756,-1.137 2.606,-2.469 0.386,-0.627 0.772,-1.253 1.158,-1.88 H 9.322 L 5.501,62.705 4.374,62.699 7.684,49.534 c -0.732,1.28 -1.983,1.919 -3.755,1.919 -0.193,0 -0.386,0 -0.579,0 C 3.08,51.414 2.656,51.318 2.079,51.162 1.501,51.01 1.01,50.699 0.606,50.234 0.202,49.771 0,49.172 0,48.437 0,47.741 0.231,47.161 0.695,46.697 1.158,46.233 1.737,46 2.432,46 z" style="fill:#000000" />
  </g>
</svg>