<?xml version="1.0" encoding="utf-8"?>
<svg version="1.1" x="0px" y="0px" width="92" height="92" viewBox="0 0 92 92">
  <g id="RestSixteenth">
    <path d="M 5.028,59.631 C 5.796,59.36 6.525,58.719 7.216,57.713 7.446,57.402 7.734,56.899 8.079,56.201 L 9.693,49.53 c -0.731,1.281 -1.98,1.922 -3.748,1.922 -0.308,0 -0.615,0 -0.923,0 C 4.676,51.336 4.446,51.26 4.331,51.221 3.639,51.028 3.081,50.699 2.659,50.235 2.235,49.77 2.024,49.172 2.024,48.436 2.024,47.741 2.256,47.161 2.719,46.697 3.182,46.233 3.781,46 4.515,46 c 0.656,0 1.226,0.242 1.708,0.725 0.482,0.484 0.724,1.035 0.724,1.654 0,0.309 -0.078,0.637 -0.232,0.985 -0.154,0.348 -0.444,0.657 -0.869,0.928 0.193,0.078 0.406,0.155 0.637,0.232 0.154,0 0.386,-0.058 0.695,-0.176 C 7.911,50.113 8.587,49.555 9.205,48.673 9.822,47.792 10.421,46.9 11,45.999 h 0.406 L 5.383,71.869 4.315,71.861 7.499,58.695 c -0.731,1.281 -1.963,1.922 -3.693,1.922 -0.193,0 -0.386,0 -0.578,0 C 2.958,60.578 2.545,60.48 1.987,60.326 1.43,60.172 0.939,59.863 0.516,59.398 0.093,58.933 -0.118,58.334 -0.118,57.599 c 0,-0.656 0.231,-1.217 0.695,-1.682 0.463,-0.464 1.062,-0.695 1.795,-0.695 0.656,0 1.225,0.24 1.708,0.725 0.482,0.482 0.724,1.035 0.724,1.652 0,0.311 -0.078,0.639 -0.231,0.986 -0.155,0.348 -0.444,0.639 -0.869,0.871 0.459,0.154 0.729,0.23 0.806,0.23 0.23,0.002 0.402,-0.018 0.518,-0.055 z" style="fill:#000000" />
  </g>
</svg>