<?xml version="1.0" encoding="utf-8"?>
<svg version="1.1" x="0px" y="0px" width="92" height="92" viewBox="0 0 92 92">
  <g id="RestThirtySecond">
    <path d="m 7.302,59.572 c 0.93,-0.309 1.743,-1.042 2.441,-2.202 0.388,-0.656 0.658,-1.274 0.813,-1.854 l 1.408,-6.041 c -0.693,1.279 -1.963,1.92 -3.812,1.92 -0.5,0 -1.059,-0.077 -1.674,-0.232 C 5.862,51.009 5.342,50.699 4.919,50.235 4.495,49.771 4.284,49.153 4.284,48.38 4.284,47.722 4.515,47.161 4.979,46.697 5.443,46.233 6.023,46 6.718,46 c 0.656,0 1.235,0.252 1.737,0.754 0.501,0.504 0.753,1.045 0.753,1.625 0,0.309 -0.078,0.637 -0.231,0.985 -0.155,0.349 -0.444,0.638 -0.869,0.87 0.231,0.115 0.482,0.213 0.753,0.29 0.077,0 0.27,-0.039 0.579,-0.118 0.733,-0.234 1.428,-0.803 2.085,-1.703 C 12.104,47.802 12.683,46.9 13.262,46 h 0.405 L 5.501,81.031 4.431,81.025 7.619,67.859 c -0.731,1.279 -1.963,1.92 -3.694,1.92 -0.192,0 -0.385,0 -0.577,0 C 3.078,69.74 2.664,69.644 2.106,69.49 1.548,69.336 1.057,69.025 0.634,68.562 0.211,68.098 0,67.498 0,66.764 0,66.106 0.231,65.547 0.695,65.082 1.159,64.617 1.757,64.387 2.49,64.387 c 0.656,0 1.225,0.24 1.708,0.725 0.482,0.482 0.724,1.033 0.724,1.652 0,0.309 -0.078,0.639 -0.231,0.986 -0.155,0.348 -0.444,0.639 -0.869,0.869 0.46,0.154 0.71,0.232 0.749,0.232 0.076,0 0.268,-0.039 0.576,-0.115 0.922,-0.271 1.786,-1.086 2.593,-2.439 0.115,-0.195 0.269,-0.504 0.461,-0.93 l 1.614,-6.672 c -0.731,1.281 -1.981,1.92 -3.75,1.92 -0.308,0 -0.615,0 -0.923,0 C 4.795,60.5 4.564,60.424 4.45,60.385 3.758,60.192 3.2,59.863 2.777,59.399 2.353,58.934 2.142,58.336 2.142,57.6 c 0,-0.695 0.232,-1.275 0.695,-1.739 0.463,-0.464 1.062,-0.696 1.795,-0.696 0.656,0 1.226,0.242 1.708,0.725 0.482,0.484 0.724,1.035 0.724,1.654 0,0.309 -0.078,0.637 -0.232,0.985 -0.154,0.348 -0.444,0.657 -0.869,0.928 0.232,0.078 0.464,0.155 0.698,0.232 0.117,-10e-4 0.331,-0.039 0.641,-0.117 z" style="fill:#000000" />
  </g>
</svg>