<?xml version="1.0" encoding="utf-8"?>
<svg version="1.1" x="0px" y="0px" width="92" height="92" viewBox="0 0 92 92">
  <g id="RestSixtyFourth">
    <path d="m 7.308,59.734 c 0.773,-0.27 1.44,-0.77 2.001,-1.5 0.56,-0.73 1.015,-1.75 1.363,-3.057 l 1.276,-5.479 C 11.252,50.973 9.976,51.612 8.12,51.612 7.656,51.612 7.114,51.536 6.496,51.38 5.877,51.226 5.355,50.917 4.93,50.452 4.504,49.989 4.292,49.37 4.292,48.597 c 0,-0.658 0.232,-1.219 0.696,-1.683 0.464,-0.464 1.044,-0.696 1.74,-0.696 0.657,0 1.237,0.252 1.74,0.754 0.502,0.504 0.754,1.045 0.754,1.625 0,0.309 -0.078,0.637 -0.232,0.986 -0.155,0.348 -0.445,0.637 -0.87,0.869 0.462,0.154 0.712,0.232 0.751,0.232 0.076,0 0.27,-0.039 0.578,-0.117 0.77,-0.23 1.482,-0.811 2.138,-1.74 0.539,-0.736 0.866,-1.375 0.982,-1.917 l 1.549,-6.385 c -0.732,1.281 -1.983,1.922 -3.753,1.922 -0.308,0 -0.616,0 -0.924,0 C 9.095,42.331 8.864,42.254 8.749,42.215 8.056,42.022 7.498,41.693 7.074,41.229 6.65,40.765 6.439,40.166 6.439,39.431 c 0,-0.696 0.232,-1.276 0.696,-1.74 0.464,-0.464 1.044,-0.696 1.74,-0.696 0.696,0 1.285,0.242 1.769,0.725 0.483,0.484 0.725,1.035 0.725,1.653 0,0.31 -0.078,0.638 -0.232,0.986 -0.155,0.348 -0.426,0.658 -0.812,0.928 0.192,0.078 0.405,0.155 0.637,0.232 0.115,0 0.327,-0.039 0.636,-0.119 0.732,-0.238 1.408,-0.804 2.025,-1.697 0.617,-0.894 1.215,-1.797 1.794,-2.711 L 15.834,36.995 5.511,81.252 4.441,81.244 7.631,68.078 C 6.898,69.359 5.665,70 3.931,70 3.738,70 3.545,70 3.353,70 3.083,69.961 2.668,69.863 2.11,69.709 1.551,69.555 1.06,69.246 0.635,68.781 0.21,68.316 0,67.717 0,66.982 0,66.326 0.232,65.765 0.696,65.3 1.16,64.837 1.759,64.605 2.494,64.605 c 0.657,0 1.227,0.24 1.711,0.725 0.483,0.482 0.725,1.035 0.725,1.652 0,0.311 -0.078,0.639 -0.232,0.986 -0.155,0.348 -0.445,0.639 -0.87,0.871 0.461,0.154 0.711,0.23 0.75,0.23 0.076,0 0.268,-0.037 0.576,-0.115 0.769,-0.232 1.5,-0.832 2.192,-1.801 0.576,-0.775 0.865,-1.297 0.865,-1.568 l 1.616,-6.672 c -0.732,1.242 -1.983,1.863 -3.754,1.863 -0.308,0 -0.616,0 -0.924,0 C 4.803,60.661 4.572,60.585 4.456,60.547 3.763,60.356 3.205,60.029 2.781,59.57 2.357,59.111 2.146,58.517 2.146,57.791 c 0,-0.688 0.232,-1.262 0.696,-1.721 0.464,-0.459 1.063,-0.689 1.798,-0.689 0.657,0 1.227,0.24 1.711,0.719 0.483,0.479 0.725,1.023 0.725,1.635 0,0.307 -0.078,0.631 -0.232,0.977 -0.155,0.344 -0.445,0.65 -0.87,0.918 0.232,0.072 0.464,0.146 0.696,0.219 0.116,0.001 0.328,-0.038 0.638,-0.115 z" style="fill:#000000" />
  </g>
</svg>