<?xml version="1.0" encoding="utf-8"?>
<svg version="1.1" x="0px" y="0px" width="92" height="92" viewBox="0 0 92 92">
  <g id="RestQuarter">
    <path d="m 3.011,32.142 7.065,8.178 c -0.541,0.232 -1.371,1.141 -2.49,2.726 -1.274,1.779 -1.911,3.132 -1.911,4.062 0,1.121 0.367,2.262 1.101,3.422 0.733,1.16 1.602,2.066 2.606,2.725 L 9.034,54.068 C 8.803,54.029 8.464,53.99 8.021,53.953 7.577,53.914 7.258,53.894 7.065,53.894 c -1.042,0 -1.824,0.096 -2.346,0.289 -0.521,0.193 -0.889,0.455 -1.1,0.783 -0.213,0.328 -0.319,0.705 -0.319,1.131 0,0.813 0.425,1.76 1.274,2.844 0.695,0.889 1.158,1.371 1.39,1.449 l -0.29,0.465 C 5.403,60.931 4.438,60.236 2.778,58.765 0.927,57.141 0,55.768 0,54.646 c 0,-0.928 0.356,-1.682 1.071,-2.262 0.714,-0.58 1.593,-0.871 2.635,-0.871 0.54,0 1.09,0.078 1.65,0.232 0.559,0.154 1.109,0.426 1.65,0.813 L 0.578,44.263 C 1.118,43.953 1.784,43.19 2.576,41.972 3.367,40.754 3.975,39.585 4.4,38.463 4.477,38.309 4.516,38.038 4.516,37.651 4.516,36.723 4.072,35.544 3.184,34.113 2.45,32.953 1.968,32.296 1.736,32.141 h 1.275 z" style="fill:#000000" />
  </g>
</svg>