<?xml version="1.0" encoding="utf-8"?>
<svg version="1.1" x="0px" y="0px" width="92" height="92" viewBox="0 0 92 92">
  <g id="Segno">
    <path d="M 4.588,51.721 C 3.223,50.878 2.164,50.058 1.411,49.26 0.47,48.275 0,47.351 0,46.483 0,45.616 0.319,44.855 0.957,44.199 1.594,43.543 2.41,43.215 3.403,43.215 c 0.732,0 1.464,0.242 2.197,0.726 0.732,0.483 1.098,1.056 1.098,1.716 0,0.425 -0.07,0.779 -0.209,1.062 -0.141,0.283 -0.375,0.425 -0.702,0.425 -0.748,0 -1.157,-0.343 -1.227,-1.029 0,-0.141 0.064,-0.342 0.192,-0.603 0.128,-0.26 0.158,-0.473 0.088,-0.639 -0.167,-0.52 -0.646,-0.781 -1.435,-0.781 -0.502,0 -0.92,0.152 -1.255,0.458 -0.335,0.305 -0.502,0.633 -0.502,0.984 0,1.009 0.482,1.853 1.446,2.531 0.188,0.141 1.164,0.657 2.926,1.548 l 4.267,-6.292 1.105,-0.004 -4.561,6.722 c 1.464,0.91 2.499,1.669 3.103,2.275 0.882,0.887 1.324,1.832 1.324,2.835 0,0.839 -0.324,1.597 -0.972,2.273 -0.647,0.677 -1.446,1.015 -2.395,1.015 -0.764,0 -1.51,-0.254 -2.238,-0.766 C 4.924,57.162 4.56,56.535 4.56,55.794 c 0,-0.278 0.101,-0.591 0.303,-0.939 0.201,-0.348 0.433,-0.521 0.695,-0.521 0.356,0 0.618,0.097 0.785,0.289 0.167,0.191 0.286,0.491 0.356,0.896 0.047,0.165 0.006,0.382 -0.123,0.651 -0.128,0.271 -0.169,0.487 -0.122,0.652 0.068,0.233 0.263,0.421 0.583,0.563 0.32,0.141 0.686,0.212 1.098,0.212 0.434,0 0.789,-0.163 1.063,-0.486 0.273,-0.323 0.411,-0.67 0.411,-1.04 0,-1.039 -0.671,-1.964 -2.013,-2.772 C 6.6,52.79 5.86,52.422 5.374,52.19 L 1.312,58.239 0.174,58.228 4.588,51.721 z m -3.009,-0.44 c 0.256,0 0.479,0.082 0.666,0.245 0.188,0.163 0.281,0.386 0.281,0.667 0,0.257 -0.094,0.479 -0.281,0.665 -0.187,0.188 -0.409,0.281 -0.666,0.281 -0.258,0 -0.48,-0.093 -0.667,-0.281 -0.187,-0.187 -0.281,-0.408 -0.281,-0.665 0,-0.608 0.316,-0.912 0.948,-0.912 z m 8.135,-2.946 c 0.257,0 0.48,0.094 0.667,0.28 0.187,0.188 0.281,0.409 0.281,0.667 0,0.233 -0.094,0.444 -0.281,0.631 -0.187,0.188 -0.41,0.28 -0.667,0.28 -0.257,0 -0.473,-0.088 -0.648,-0.263 -0.176,-0.175 -0.263,-0.392 -0.263,-0.648 0,-0.258 0.082,-0.479 0.246,-0.667 0.163,-0.186 0.385,-0.28 0.665,-0.28 z" style="fill:#000000" />
  </g>
</svg>