<?xml version="1.0" encoding="utf-8"?>
<svg version="1.1" x="0px" y="0px" width="92" height="92" viewBox="0 0 92 92">
  <g id="SimileMark2">
    <path d="M 4.469,55.015 0,55.052 18.098,36.954 22.596,36.888 4.469,55.015 z M 3.725,41.22 c 0,-0.57 0.189,-1.045 0.57,-1.425 0.379,-0.379 0.873,-0.57 1.481,-0.57 0.57,0 1.055,0.2 1.454,0.599 0.398,0.399 0.598,0.883 0.598,1.454 0,0.57 -0.19,1.045 -0.569,1.424 -0.381,0.381 -0.894,0.57 -1.539,0.57 -0.57,0 -1.046,-0.189 -1.425,-0.57 -0.381,-0.38 -0.57,-0.874 -0.57,-1.482 z m 8.116,13.759 -4.469,0.035 18.125,-18.127 4.469,-0.035 -18.125,18.127 z m 10.409,-4.24 c 0,-0.57 0.189,-1.045 0.569,-1.426 0.38,-0.379 0.874,-0.568 1.483,-0.568 0.568,0 1.045,0.189 1.424,0.568 0.379,0.381 0.57,0.855 0.57,1.426 0,0.571 -0.191,1.045 -0.57,1.426 -0.379,0.379 -0.875,0.57 -1.482,0.57 -0.569,0 -1.044,-0.191 -1.424,-0.57 -0.381,-0.381 -0.57,-0.855 -0.57,-1.426 z" style="fill:#000000" />
  </g>
</svg>