<?xml version="1.0" encoding="utf-8"?>
<svg version="1.1" x="0px" y="0px" width="92" height="92" viewBox="0 0 92 92">
  <g id="SimileMark">
    <path d="M 4.469,55.018 0,55.053 18.041,36.983 22.537,36.948 4.469,55.018 z M 3.648,41.315 c 0,-0.532 0.208,-1.006 0.627,-1.425 0.417,-0.417 0.911,-0.627 1.481,-0.627 0.57,0 1.045,0.19 1.425,0.57 0.38,0.38 0.57,0.875 0.57,1.482 0,0.57 -0.199,1.054 -0.599,1.453 C 6.755,43.167 6.27,43.367 5.7,43.367 5.13,43.367 4.645,43.168 4.246,42.768 3.848,42.369 3.648,41.885 3.648,41.315 z m 11.058,9.462 c 0,-0.57 0.189,-1.045 0.57,-1.426 0.379,-0.379 0.873,-0.57 1.481,-0.57 0.57,0 1.045,0.191 1.425,0.57 0.38,0.381 0.57,0.855 0.57,1.426 0,0.571 -0.19,1.045 -0.57,1.424 -0.38,0.381 -0.874,0.57 -1.481,0.57 -0.57,0 -1.046,-0.189 -1.425,-0.57 -0.38,-0.379 -0.57,-0.853 -0.57,-1.424 z" style="fill:#000000" />
  </g>
</svg>