<?xml version="1.0" encoding="utf-8"?>
<svg version="1.1" x="0px" y="0px" width="92" height="92" viewBox="0 0 92 92">
  <g id="Trill">
    <path d="M 1.429,55.12 2.912,50.806 H 0 L 0.335,49.829 H 3.22 L 3.835,47.867 5.742,46.5 h 0.561 l -1.148,3.33 c 0.401,0 1.006,-0.076 1.814,-0.227 0.81,-0.15 1.435,-0.225 1.877,-0.225 0.265,0 0.452,0.052 0.564,0.156 0.111,0.105 0.167,0.297 0.167,0.574 0,0.087 -0.039,0.377 -0.116,0.869 0.729,-1.066 1.552,-1.6 2.468,-1.6 0.72,0.082 1.103,0.503 1.148,1.264 0,0.429 -0.094,0.736 -0.28,0.924 -0.187,0.187 -0.401,0.279 -0.643,0.279 -0.487,0 -0.768,-0.29 -0.841,-0.871 0.109,-0.221 0.164,-0.436 0.164,-0.646 0,-0.113 -0.094,-0.17 -0.28,-0.17 -0.784,0 -1.475,0.869 -2.071,2.607 L 7.813,56.828 H 5.961 L 6.303,55.904 C 6.084,55.996 5.77,56.168 5.36,56.421 4.95,56.674 4.589,56.869 4.28,57.009 3.971,57.149 3.635,57.217 3.275,57.217 2.769,57.217 2.324,57.082 1.938,56.811 1.553,56.54 1.347,56.181 1.32,55.735 1.339,55.662 1.356,55.554 1.375,55.413 1.393,55.272 1.41,55.175 1.429,55.12 z m 4.983,-0.255 1.401,-4.12 c 0,-0.041 0.009,-0.096 0.027,-0.164 0.018,-0.068 0.027,-0.107 0.027,-0.117 0,-0.09 -0.075,-0.137 -0.226,-0.137 -0.347,0 -0.813,0.071 -1.401,0.213 -0.588,0.141 -1.044,0.211 -1.367,0.211 l -1.429,4.232 c -0.068,0.232 -0.125,0.446 -0.171,0.643 0,0.273 0.169,0.441 0.506,0.506 0.502,-0.051 1.38,-0.473 2.633,-1.267 z" style="fill:#000000" />
  </g>
</svg>