<?xml version="1.0" encoding="utf-8"?>
<svg version="1.1" x="0px" y="0px" width="92" height="92" viewBox="0 0 92 92">
  <g id="Turn">
    <path d="M 12.126,54.394 C 11.922,54.221 11.467,53.834 10.762,53.235 10.057,52.634 9.327,52.061 8.573,51.513 7.819,50.966 7.072,50.511 6.333,50.15 5.594,49.788 4.928,49.607 4.334,49.607 3.592,49.675 2.953,50.061 2.418,50.766 1.883,51.471 1.597,52.198 1.56,52.947 c 0.081,1.193 0.776,1.79 2.088,1.79 0.186,0 0.335,-0.032 0.45,-0.097 0.114,-0.065 0.312,-0.2 0.594,-0.403 0.281,-0.205 0.531,-0.356 0.751,-0.455 0.22,-0.1 0.484,-0.148 0.793,-0.148 0.897,0 1.467,0.393 1.707,1.178 0,0.762 -0.312,1.326 -0.937,1.693 C 6.381,56.873 5.707,57.058 4.984,57.058 3.327,56.977 2.082,56.525 1.25,55.703 0.418,54.881 0,53.874 0,52.687 c 0,-0.859 0.225,-1.712 0.673,-2.556 0.448,-0.845 1.079,-1.556 1.893,-2.134 0.813,-0.579 1.746,-0.929 2.798,-1.053 1.379,0 2.675,0.298 3.887,0.895 1.212,0.597 2.401,1.372 3.567,2.324 1.165,0.952 2.29,1.88 3.372,2.783 0.427,0.358 0.979,0.696 1.656,1.011 0.677,0.316 1.315,0.474 1.916,0.474 0.928,-0.05 1.628,-0.356 2.101,-0.919 0.474,-0.563 0.71,-1.219 0.71,-1.967 0,-0.648 -0.185,-1.191 -0.552,-1.628 -0.368,-0.436 -0.855,-0.653 -1.462,-0.653 -0.21,0 -0.507,0.127 -0.891,0.38 -0.383,0.254 -0.686,0.438 -0.908,0.552 -0.223,0.115 -0.535,0.172 -0.938,0.172 -0.421,0 -0.798,-0.146 -1.132,-0.44 -0.334,-0.294 -0.501,-0.667 -0.501,-1.118 0,-0.6 0.316,-1.049 0.951,-1.346 0.634,-0.297 1.303,-0.445 2.008,-0.445 1.027,0 1.924,0.243 2.691,0.729 0.767,0.486 1.353,1.123 1.758,1.911 0.404,0.789 0.607,1.619 0.607,2.491 0,0.878 -0.201,1.688 -0.604,2.431 -0.401,0.742 -1.017,1.341 -1.846,1.795 -0.829,0.455 -1.85,0.683 -3.062,0.683 -1.169,0 -2.248,-0.223 -3.237,-0.668 -0.988,-0.448 -2.099,-1.114 -3.329,-1.997 z" style="fill:#000000" />
  </g>
</svg>