<?xml version="1.0" encoding="utf-8"?>
<svg version="1.1" x="0px" y="0px" width="92" height="92" viewBox="0 0 92 92">
  <g id="UpperMordent">
    <path d="m 0,55.093 v -1.949 l 4.254,-4.947 c 0.344,-0.22 0.531,-0.331 0.564,-0.331 0.198,0 0.33,0.068 0.395,0.202 l 3.496,3.062 c 0.172,0.172 0.36,0.282 0.564,0.331 0.198,-0.064 0.33,-0.129 0.395,-0.193 l 2.643,-3.07 c 0.333,-0.22 0.531,-0.331 0.596,-0.331 0.172,0 0.293,0.068 0.363,0.202 l 3.496,3.062 c 0.204,0.215 0.39,0.349 0.557,0.403 0.209,-0.076 0.343,-0.164 0.402,-0.266 l 2.24,-2.643 v 1.949 l -4.223,4.947 c -0.322,0.22 -0.542,0.33 -0.66,0.33 -0.156,0 -0.266,-0.064 -0.33,-0.193 l -3.465,-3.102 c -0.155,-0.156 -0.376,-0.234 -0.66,-0.234 -0.167,0 -0.266,0.032 -0.299,0.097 l -2.674,3.103 c -0.258,0.22 -0.468,0.33 -0.629,0.33 -0.145,0 -0.255,-0.064 -0.33,-0.193 L 3.23,52.556 C 3.042,52.357 2.822,52.257 2.57,52.257 c -0.146,0 -0.253,0.054 -0.322,0.161 L 0,55.093 z" style="fill:#000000" />
  </g>
</svg>