<?xml version="1.0" encoding="utf-8"?>
<svg version="1.1" x="0px" y="0px" width="92" height="92" viewBox="0 0 92 92">
  <g id="WaveHorizontal">
    <path d="m 14.078,51.972 c -0.432,0.326 -0.92,0.697 -1.465,1.111 -0.545,0.416 -1.043,0.766 -1.494,1.051 -0.451,0.285 -0.898,0.514 -1.341,0.685 C 9.335,54.99 8.909,55.084 8.5,55.101 8.024,55.035 7.627,54.908 7.309,54.719 6.991,54.53 6.512,54.202 5.873,53.736 5.233,53.268 4.699,52.925 4.27,52.707 3.841,52.489 3.37,52.379 2.855,52.379 2.064,52.379 1.112,52.936 0,54.047 v -1.12 c 1.328,-1.106 2.418,-1.939 3.271,-2.499 0.853,-0.559 1.666,-0.838 2.44,-0.838 0.487,0 0.934,0.113 1.341,0.34 0.406,0.228 0.887,0.564 1.44,1.014 0.553,0.447 1.033,0.792 1.439,1.033 0.407,0.24 0.859,0.375 1.357,0.402 0.896,-0.072 1.826,-0.559 2.789,-1.461 v 1.054 z" style="fill:#000000" />
  </g>
</svg>