<?xml version="1.0" encoding="utf-8"?>
<svg version="1.1" x="0px" y="0px" width="92" height="92" viewBox="0 0 92 92">
  <g id="WaveVertical">
    <path d="m 1.596,46.5 h 0.507 c 0.479,0.448 0.865,0.856 1.157,1.225 0.292,0.369 0.438,0.752 0.438,1.148 0,0.316 -0.097,0.6 -0.29,0.854 -0.193,0.252 -0.479,0.55 -0.857,0.893 -0.378,0.342 -0.664,0.645 -0.86,0.906 -0.195,0.262 -0.3,0.557 -0.313,0.887 h 0.053 c 0,0.316 0.091,0.604 0.273,0.859 0.183,0.258 0.464,0.568 0.844,0.934 0.38,0.366 0.667,0.684 0.86,0.955 0.193,0.273 0.29,0.58 0.29,0.924 0,0.33 -0.097,0.627 -0.29,0.893 -0.193,0.266 -0.479,0.574 -0.857,0.926 -0.378,0.352 -0.659,0.65 -0.844,0.895 -0.185,0.242 -0.276,0.518 -0.276,0.82 0,0.172 0.224,0.596 0.672,1.271 H 1.596 C 1.002,60.32 0.588,59.884 0.353,59.589 0.117,59.291 0,58.914 0,58.457 0,58.123 0.092,57.834 0.277,57.59 0.461,57.346 0.745,57.055 1.127,56.717 1.51,56.379 1.795,56.084 1.984,55.834 2.172,55.582 2.267,55.279 2.267,54.924 2.267,54.752 2.179,54.545 2.003,54.305 1.827,54.063 1.581,53.764 1.265,53.41 0.949,53.056 0.733,52.805 0.619,52.656 0.206,52.014 0,51.564 0,51.305 0.018,50.897 0.204,50.5 0.561,50.116 0.916,49.731 1.286,49.341 1.668,48.946 2.05,48.55 2.25,48.176 2.268,47.825 2.268,47.636 2.223,47.468 2.133,47.321 2.042,47.173 1.863,46.899 1.596,46.5 z" style="fill:#000000" />
  </g>
</svg>