<?xml version="1.0" encoding="UTF-8"?>
<!DOCTYPE score-partwise PUBLIC "-//Recordare//DTD MusicXML 4.0 Partwise//EN"
                                "http://www.musicxml.org/dtds/partwise.dtd">
<score-partwise version="4.0">
  <movement-title>MusicXML notations (attached to note)</movement-title>
  <identification>
    <miscellaneous>
      <miscellaneous-field name="description">All &lt;notation&gt; elements
          defined in MusicXML.  The lyrics show the notation assigned to each
          note.

          The third-last bar is a full-measure rest with a
          fermata.</miscellaneous-field>
    </miscellaneous>
  </identification>
  <part-list>
    <score-part id="P1">
      <part-name></part-name>
    </score-part>
  </part-list>
  <!--=========================================================-->
  <part id="P1">
    <!-- General Notation elements (no spanners, which are tested separately):
         fermata | arpeggiate | non-arpeggiate | accidental-mark -->
    <measure number="1">
      <attributes>
        <divisions>1</divisions>
        <key>
          <fifths>0</fifths>
          <mode>major</mode>
        </key>
        <clef>
          <sign>G</sign>
          <line>2</line>
        </clef>
      </attributes>
      <note>
        <pitch>
          <step>C</step><octave>5</octave>
        </pitch>
        <duration>1</duration>
        <voice>1</voice>
        <type>quarter</type>
        <notations>
          <fermata type="upright"/>
        </notations>
        <lyric number="1"><text>fermata</text></lyric>
      </note>
      <note>
        <pitch>
          <step>C</step><octave>5</octave>
        </pitch>
        <duration>1</duration>
        <voice>1</voice>
        <type>quarter</type>
        <notations>
          <fermata>normal</fermata>
        </notations>
        <lyric number="1"><text>normal</text></lyric>
        <lyric number="2"><text>fermata</text></lyric>
      </note>
      <note>
        <pitch>
          <step>C</step><octave>5</octave>
        </pitch>
        <duration>1</duration>
        <voice>1</voice>
        <type>quarter</type>
        <notations>
          <fermata>angled</fermata>
        </notations>
        <lyric number="1"><text>angled</text></lyric>
        <lyric number="2"><text>fermata</text></lyric>
      </note>
      <note>
        <pitch>
          <step>C</step><octave>5</octave>
        </pitch>
        <duration>1</duration>
        <voice>1</voice>
        <type>quarter</type>
        <notations>
          <fermata>square</fermata>
        </notations>
        <lyric number="1"><text>square</text></lyric>
        <lyric number="2"><text>fermata</text></lyric>
      </note>
    </measure>
    <!--=======================================================-->
    <measure number="2">
      <note>
        <pitch>
          <step>C</step><octave>5</octave>
        </pitch>
        <duration>1</duration>
        <voice>1</voice>
        <type>quarter</type>
        <notations>
          <fermata type="inverted"/>
        </notations>
        <lyric number="1"><text>inverted</text></lyric>
        <lyric number="2"><text>fermata</text></lyric>
      </note>
      <note>
        <pitch>
          <step>C</step><octave>5</octave>
        </pitch>
        <duration>1</duration>
        <voice>1</voice>
        <type>quarter</type>
        <notations><arpeggiate/></notations>
        <lyric number="1"><text>arpeggio</text></lyric>
      </note>
      <note>
        <chord/>
        <pitch>
          <step>E</step><octave>5</octave>
        </pitch>
        <duration>1</duration>
        <voice>1</voice>
        <type>quarter</type>
        <notations><arpeggiate/></notations>
      </note>
      <note>
        <chord/>
        <pitch>
          <step>G</step><octave>5</octave>
        </pitch>
        <duration>1</duration>
        <voice>1</voice>
        <type>quarter</type>
        <notations><arpeggiate/></notations>
      </note>
      <note>
        <pitch>
          <step>C</step><octave>5</octave>
        </pitch>
        <duration>1</duration>
        <voice>1</voice>
        <type>quarter</type>
        <notations><non-arpeggiate type="bottom"/></notations>
        <lyric number="1"><text>non-</text></lyric>
        <lyric number="2"><text>arpeggio</text></lyric>
      </note>
      <note>
        <chord/>
        <pitch>
          <step>E</step><octave>5</octave>
        </pitch>
        <duration>1</duration>
        <voice>1</voice>
        <type>quarter</type>
      </note>
      <note>
        <chord/>
        <pitch>
          <step>G</step><octave>5</octave>
        </pitch>
        <duration>1</duration>
        <voice>1</voice>
        <type>quarter</type>
        <notations><non-arpeggiate type="top"/></notations>
      </note>
      <note>
        <pitch>
          <step>C</step><octave>5</octave>
        </pitch>
        <duration>1</duration>
        <voice>1</voice>
        <type>quarter</type>
        <notations>
          <accidental-mark placement="above">double-sharp</accidental-mark>
        </notations>
        <lyric number="1"><text>accidental</text></lyric>
        <lyric number="2"><text>mark</text></lyric>
      </note>
      <barline location="right">
        <bar-style>light-light</bar-style>
      </barline>
    </measure>

    <!-- Articulations:
            accent | strong-accent | staccato | tenuto |
            detached-legato | staccatissimo | spiccato |
            scoop | plop | doit | falloff | breath-mark |
            caesura | stress | unstress | other-articulation -->
    <measure number="3">
      <note>
        <pitch>
          <step>C</step><octave>5</octave>
        </pitch>
        <duration>1</duration>
        <voice>1</voice>
        <type>quarter</type>
        <notations>
          <articulations><accent/></articulations>
        </notations>
        <lyric number="1"><text>accent</text></lyric>
      </note>
      <note>
        <pitch>
          <step>C</step><octave>5</octave>
        </pitch>
        <duration>1</duration>
        <voice>1</voice>
        <type>quarter</type>
        <notations>
          <articulations><strong-accent/></articulations>
        </notations>
        <lyric number="1"><text>strong</text></lyric>
        <lyric number="2"><text>accent</text></lyric>
      </note>
      <note>
        <pitch>
          <step>C</step><octave>5</octave>
        </pitch>
        <duration>1</duration>
        <voice>1</voice>
        <type>quarter</type>
        <notations>
          <articulations><staccato/></articulations>
        </notations>
        <lyric number="1"><text>staccato</text></lyric>
      </note>
      <note>
        <pitch>
          <step>C</step><octave>5</octave>
        </pitch>
        <duration>1</duration>
        <voice>1</voice>
        <type>quarter</type>
        <notations>
          <articulations><tenuto/></articulations>
        </notations>
        <lyric number="1"><text>tenuto</text></lyric>
      </note>
    </measure>
    <!--=======================================================-->
    <measure number="4">
      <note>
        <pitch>
          <step>C</step><octave>5</octave>
        </pitch>
        <duration>1</duration>
        <voice>1</voice>
        <type>quarter</type>
        <notations>
          <articulations><detached-legato/></articulations>
        </notations>
        <lyric number="1"><text>detached</text></lyric>
        <lyric number="2"><text>legato</text></lyric>
      </note>
      <note>
        <pitch>
          <step>C</step><octave>5</octave>
        </pitch>
        <duration>1</duration>
        <voice>1</voice>
        <type>quarter</type>
        <notations>
          <articulations><staccatissimo/></articulations>
        </notations>
        <lyric number="1"><text>stacca-</text></lyric>
        <lyric number="2"><text>tissimo</text></lyric>
      </note>
      <note>
        <pitch>
          <step>C</step><octave>5</octave>
        </pitch>
        <duration>1</duration>
        <voice>1</voice>
        <type>quarter</type>
        <notations>
          <articulations><spiccato/></articulations>
        </notations>
        <lyric number="1"><text>spiccato</text></lyric>
      </note>
      <note>
        <pitch>
          <step>C</step><octave>5</octave>
        </pitch>
        <duration>1</duration>
        <voice>1</voice>
        <type>quarter</type>
        <notations>
          <articulations><scoop/></articulations>
        </notations>
        <lyric number="1"><text>scoop</text></lyric>
      </note>
    </measure>
    <!--=======================================================-->
    <measure number="5">
      <note>
        <pitch>
          <step>C</step><octave>5</octave>
        </pitch>
        <duration>1</duration>
        <voice>1</voice>
        <type>quarter</type>
        <notations>
          <articulations><plop/></articulations>
        </notations>
        <lyric number="1"><text>plop</text></lyric>
      </note>
      <note>
        <pitch>
          <step>C</step><octave>5</octave>
        </pitch>
        <duration>1</duration>
        <voice>1</voice>
        <type>quarter</type>
        <notations>
          <articulations><doit/></articulations>
        </notations>
        <lyric number="1"><text>doit</text></lyric>
      </note>
      <note>
        <pitch>
          <step>C</step><octave>5</octave>
        </pitch>
        <duration>1</duration>
        <voice>1</voice>
        <type>quarter</type>
        <notations>
          <articulations><falloff/></articulations>
        </notations>
        <lyric number="1"><text>falloff</text></lyric>
      </note>
      <note>
        <pitch>
          <step>C</step><octave>5</octave>
        </pitch>
        <duration>1</duration>
        <voice>1</voice>
        <type>quarter</type>
        <notations>
          <articulations><breath-mark/></articulations>
        </notations>
        <lyric number="1"><text>breath</text></lyric>
        <lyric number="2"><text>mark</text></lyric>
      </note>
    </measure>
    <!--=======================================================-->
    <measure number="6">
      <note>
        <pitch>
          <step>C</step><octave>5</octave>
        </pitch>
        <duration>1</duration>
        <voice>1</voice>
        <type>quarter</type>
        <notations>
          <articulations><caesura/></articulations>
        </notations>
        <lyric number="1"><text>caesura</text></lyric>
      </note>
      <note>
        <pitch>
          <step>C</step><octave>5</octave>
        </pitch>
        <duration>1</duration>
        <voice>1</voice>
        <type>quarter</type>
        <notations>
          <articulations><stress/></articulations>
        </notations>
        <lyric number="1"><text>stress</text></lyric>
      </note>
      <note>
        <pitch>
          <step>C</step><octave>5</octave>
        </pitch>
        <duration>1</duration>
        <voice>1</voice>
        <type>quarter</type>
        <notations>
          <articulations><unstress/></articulations>
        </notations>
        <lyric number="1"><text>un-</text></lyric>
        <lyric number="2"><text>stress</text></lyric>
      </note>
      <note>
        <rest/>
        <duration>1</duration>
        <voice>1</voice>
        <type>quarter</type>
      </note>
      <barline location="right">
        <bar-style>light-light</bar-style>
      </barline>
    </measure>

    <!-- Ornaments:
         trill-mark | turn | delayed-turn | inverted-turn |
         shake | wavy-line | mordent | inverted-mordent |
         schleifer | tremolo | other-ornament),
         accidental-mark

         Test cases for various tremolo options are in a separate
         unit test file
         -->
    <measure number="7">
      <note>
        <pitch>
          <step>C</step><octave>5</octave>
        </pitch>
        <duration>1</duration>
        <voice>1</voice>
        <type>quarter</type>
        <notations>
          <ornaments>
            <trill-mark/>
          </ornaments>
        </notations>
        <lyric number="1"><text>trill</text></lyric>
        <lyric number="2"><text>mark</text></lyric>
      </note>
      <note>
        <pitch>
          <step>C</step><octave>5</octave>
        </pitch>
        <duration>1</duration>
        <voice>1</voice>
        <type>quarter</type>
        <notations>
          <ornaments><turn/></ornaments>
        </notations>
        <lyric number="1"><text>turn</text></lyric>
      </note>
      <note>
        <pitch>
          <step>C</step><octave>5</octave>
        </pitch>
        <duration>1</duration>
        <voice>1</voice>
        <type>quarter</type>
        <notations>
          <ornaments><delayed-turn/></ornaments>
        </notations>
        <lyric number="1"><text>delayed</text></lyric>
        <lyric number="2"><text>turn</text></lyric>
      </note>
      <note>
        <pitch>
          <step>C</step><octave>5</octave>
        </pitch>
        <duration>1</duration>
        <voice>1</voice>
        <type>quarter</type>
        <notations>
          <ornaments><inverted-turn/></ornaments>
        </notations>
        <lyric number="1"><text>inverted</text></lyric>
        <lyric number="2"><text>turn</text></lyric>
      </note>
    </measure>
    <!--=======================================================-->
    <measure number="8">
      <note>
        <pitch>
          <step>C</step><octave>5</octave>
        </pitch>
        <duration>1</duration>
        <voice>1</voice>
        <type>quarter</type>
        <notations>
          <ornaments><shake/></ornaments>
        </notations>
        <lyric number="1"><text>shake</text></lyric>
      </note>
      <note>
        <pitch>
          <step>C</step><octave>5</octave>
        </pitch>
        <duration>1</duration>
        <voice>1</voice>
        <type>quarter</type>
        <notations>
          <ornaments>
            <wavy-line placement="below" type="start"/>
          </ornaments>
        </notations>
        <lyric number="1"><syllabic>begin</syllabic><text>wa</text></lyric>
      </note>
      <note>
        <pitch>
          <step>C</step><octave>5</octave>
        </pitch>
        <duration>1</duration>
        <voice>1</voice>
        <type>quarter</type>
        <notations>
          <ornaments>
            <wavy-line placement="below" type="continue"/>
          </ornaments>
        </notations>
        <lyric number="1"><syllabic>middle</syllabic><text>vy</text></lyric>
      </note>
      <note>
        <pitch>
          <step>C</step><octave>5</octave>
        </pitch>
        <duration>1</duration>
        <voice>1</voice>
        <type>quarter</type>
        <notations>
          <ornaments>
            <wavy-line placement="below" type="stop"/>
          </ornaments>
        </notations>
        <lyric number="1"><syllabic>end</syllabic><text>line</text></lyric>
      </note>
    </measure>
    <!--=======================================================-->
    <measure number="9">
      <note>
        <pitch>
          <step>C</step><octave>5</octave>
        </pitch>
        <duration>1</duration>
        <voice>1</voice>
        <type>quarter</type>
        <notations>
          <ornaments><mordent/></ornaments>
        </notations>
        <lyric number="1"><text>mordent</text></lyric>
      </note>
      <note>
        <pitch>
          <step>C</step><octave>5</octave>
        </pitch>
        <duration>1</duration>
        <voice>1</voice>
        <type>quarter</type>
        <notations>
          <ornaments><inverted-mordent/></ornaments>
        </notations>
        <lyric number="1"><text>inverted</text></lyric>
        <lyric number="2"><text>mordent</text></lyric>
      </note>
      <note>
        <pitch>
          <step>C</step><octave>5</octave>
        </pitch>
        <duration>1</duration>
        <voice>1</voice>
        <type>quarter</type>
        <notations>
          <ornaments><schleifer/></ornaments>
        </notations>
        <lyric number="1"><text>schleifer</text></lyric>
      </note>
      <note>
        <pitch>
          <step>C</step><octave>5</octave>
        </pitch>
        <duration>1</duration>
        <voice>1</voice>
        <type>quarter</type>
        <notations>
          <ornaments><tremolo>3</tremolo></ornaments>
        </notations>
        <lyric number="1"><text>tremolo</text></lyric>
      </note>
    </measure>
    <!--=======================================================-->
    <measure number="10">
      <note>
        <pitch>
          <step>C</step><octave>5</octave>
        </pitch>
        <duration>1</duration>
        <voice>1</voice>
        <type>quarter</type>
        <notations>
          <ornaments>
            <turn/>
            <accidental-mark placement="above">natural</accidental-mark>
          </ornaments>
        </notations>
        <lyric number="1"><text>turn + acc.</text></lyric>
        <lyric number="2"><text>mark ↑</text></lyric>
      </note>
      <note>
        <pitch>
          <step>C</step>
          <octave>5</octave>
        </pitch>
        <duration>1</duration>
        <voice>1</voice>
        <type>quarter</type>
        <notations>
          <ornaments>
            <turn/>
            <accidental-mark placement="above">sharp</accidental-mark>
            <accidental-mark placement="below">three-quarters-flat</accidental-mark>
          </ornaments>
        </notations>
        <lyric number="1"><text>turn + acc.</text></lyric>
        <lyric number="2"><text>marks ↑↓</text></lyric>
      </note>
      <note>
        <pitch>
          <step>C</step>
          <octave>5</octave>
        </pitch>
        <duration>1</duration>
        <voice>1</voice>
        <type>quarter</type>
        <notations>
          <ornaments>
            <turn/>
            <accidental-mark placement="above">sharp</accidental-mark>
            <accidental-mark placement="above"
                             bracket="yes">double-sharp</accidental-mark>
          </ornaments>
        </notations>
        <lyric number="1"><text>turn + acc.</text></lyric>
        <lyric number="2"><text>marks ↑[↑]</text></lyric>
      </note>
      <note>
        <pitch>
          <step>C</step><octave>5</octave>
        </pitch>
        <duration>1</duration>
        <voice>1</voice>
        <type>quarter</type>
        <notations>
          <ornaments>
            <trill-mark/>
            <accidental-mark placement="above">sharp</accidental-mark>
          </ornaments>
        </notations>
        <lyric number="1"><text>trill + acc.</text></lyric>
        <lyric number="2"><text>mark ↑</text></lyric>
      </note>
      <barline location="right">
        <bar-style>light-light</bar-style>
      </barline>
    </measure>

    <!-- Technical:
         up-bow | down-bow | harmonic | open-string |
         thumb-position | fingering | pluck | double-tongue |
         triple-tongue | stopped | snap-pizzicato | fret |
         string | hammer-on | pull-off | bend | tap | heel |
         toe | fingernails | other-technical -->
    <measure number="11">
      <note>
        <pitch>
          <step>C</step><octave>5</octave>
        </pitch>
        <duration>1</duration>
        <voice>1</voice>
        <type>quarter</type>
        <notations>
          <technical><up-bow/></technical>
        </notations>
        <lyric number="1"><text>up-</text></lyric>
        <lyric number="2"><text>bow</text></lyric>
      </note>
      <note>
        <pitch>
          <step>C</step><octave>5</octave>
        </pitch>
        <duration>1</duration>
        <voice>1</voice>
        <type>quarter</type>
        <notations>
          <technical><down-bow/></technical>
        </notations>
        <lyric number="1"><text>down-</text></lyric>
        <lyric number="2"><text>bow</text></lyric>
      </note>
      <note>
        <pitch>
          <step>G</step><octave>5</octave>
        </pitch>
        <duration>1</duration>
        <voice>1</voice>
        <type>quarter</type>
        <notations>
          <technical>
            <harmonic/>
          </technical>
        </notations>
        <lyric number="1"><text>harmonic</text></lyric>
      </note>
      <note>
        <pitch>
          <step>G</step><octave>5</octave>
        </pitch>
        <duration>1</duration>
        <voice>1</voice>
        <type>quarter</type>
        <notations>
          <technical>
            <harmonic><natural/></harmonic>
          </technical>
        </notations>
        <lyric number="1"><text>natural</text></lyric>
        <lyric number="2"><text>harmonic</text></lyric>
      </note>
    </measure>
    <!--=======================================================-->
    <measure number="12">
      <note>
        <pitch>
          <step>A</step><octave>5</octave>
        </pitch>
        <duration>1</duration>
        <voice>1</voice>
        <type>quarter</type>
        <notations>
          <technical>
            <harmonic><artificial/></harmonic>
          </technical>
        </notations>
        <lyric number="1"><text>artificial</text></lyric>
        <lyric number="2"><text>harmonic</text></lyric>
      </note>
      <note>
        <pitch>
          <step>G</step><octave>3</octave>
        </pitch>
        <duration>1</duration>
        <voice>1</voice>
        <type>quarter</type>
        <notations>
          <technical>
            <harmonic><natural/><base-pitch/></harmonic>
          </technical>
        </notations>
        <lyric number="1"><text>natural</text></lyric>
        <lyric number="2"><text>harmonic</text></lyric>
        <lyric number="3"><text>(base+touch)</text></lyric>
      </note>
      <note>
        <chord/>
        <pitch>
          <step>C</step><octave>4</octave>
        </pitch>
        <duration>1</duration>
        <voice>1</voice>
        <type>quarter</type>
        <notations>
          <technical>
            <harmonic><natural/><touching-pitch/></harmonic>
          </technical>
        </notations>
       </note>
      <note>
        <pitch>
          <step>C</step><octave>4</octave>
        </pitch>
        <duration>1</duration>
        <voice>1</voice>
        <type>quarter</type>
        <notations>
          <technical>
            <harmonic><natural/><touching-pitch/></harmonic>
          </technical>
        </notations>
        <lyric number="1"><text>natural</text></lyric>
        <lyric number="2"><text>harmonic</text></lyric>
        <lyric number="3"><text>(touch)</text></lyric>
      </note>
      <note>
        <pitch>
          <step>C</step><octave>4</octave>
        </pitch>
        <duration>1</duration>
        <voice>1</voice>
        <type>quarter</type>
        <notations>
          <technical>
            <harmonic><natural/><touching-pitch/></harmonic>
          </technical>
        </notations>
        <lyric number="1"><text>natural</text></lyric>
        <lyric number="2"><text>harmonic</text></lyric>
        <lyric number="3"><text>(touch+sound)</text></lyric>
      </note>
      <note>
        <chord/>
        <pitch>
          <step>G</step><octave>5</octave>
        </pitch>
        <duration>1</duration>
        <voice>1</voice>
        <type>quarter</type>
        <notations>
          <technical>
            <harmonic><natural/><sounding-pitch/></harmonic>
          </technical>
        </notations>
      </note>
    </measure>
    <!--=======================================================-->
    <measure number="13">
      <note>
        <pitch>
          <step>G</step><octave>3</octave>
        </pitch>
        <duration>1</duration>
        <voice>1</voice>
        <type>quarter</type>
        <notations>
          <technical>
            <harmonic><natural/><base-pitch/></harmonic>
          </technical>
        </notations>
        <lyric number="1"><text>nat. harm.</text></lyric>
        <lyric number="2"><text>(base+touch</text></lyric>
        <lyric number="3"><text>+sound)</text></lyric>
      </note>
      <note>
        <chord/>
        <pitch>
          <step>C</step><octave>4</octave>
        </pitch>
        <duration>1</duration>
        <voice>1</voice>
        <type>quarter</type>
        <notations>
          <technical>
            <harmonic><natural/><touching-pitch/></harmonic>
          </technical>
        </notations>
      </note>
      <note>
        <chord/>
        <pitch>
          <step>G</step><octave>5</octave>
        </pitch>
        <duration>1</duration>
        <voice>1</voice>
        <type>quarter</type>
        <notations>
          <technical>
            <harmonic><natural/><sounding-pitch/></harmonic>
          </technical>
        </notations>
      </note>
      <note>
        <pitch>
          <step>A</step><octave>3</octave>
        </pitch>
        <duration>1</duration>
        <voice>1</voice>
        <type>quarter</type>
        <notations>
          <technical>
            <harmonic><artificial/><base-pitch/></harmonic>
          </technical>
        </notations>
        <lyric number="1"><text>artificial</text></lyric>
        <lyric number="2"><text>harmonic</text></lyric>
        <lyric number="3"><text>(base+touch)</text></lyric>
      </note>
      <note>
        <chord/>
        <pitch>
          <step>D</step><octave>4</octave>
        </pitch>
        <duration>1</duration>
        <voice>1</voice>
        <type>quarter</type>
        <notations>
          <technical>
            <harmonic><artificial/><touching-pitch/></harmonic>
          </technical>
        </notations>
      </note>
      <note>
        <pitch>
          <step>A</step><octave>3</octave>
        </pitch>
        <duration>1</duration>
        <voice>1</voice>
        <type>quarter</type>
        <notations>
          <technical>
            <harmonic><artificial/><base-pitch/></harmonic>
          </technical>
        </notations>
        <lyric number="1"><text>art. harm.</text></lyric>
        <lyric number="2"><text>(base+touch</text></lyric>
        <lyric number="3"><text>+sound)</text></lyric>
      </note>
      <note>
        <chord/>
        <pitch>
          <step>D</step><octave>4</octave>
        </pitch>
        <duration>1</duration>
        <voice>1</voice>
        <type>quarter</type>
        <notations>
          <technical>
            <harmonic><artificial/><touching-pitch/></harmonic>
          </technical>
        </notations>
      </note>
      <note>
        <chord/>
        <pitch>
          <step>A</step><octave>5</octave>
        </pitch>
        <duration>1</duration>
        <voice>1</voice>
        <type>quarter</type>
        <notations>
          <technical>
            <harmonic><artificial/><sounding-pitch/></harmonic>
          </technical>
        </notations>
      </note>
      <note>
        <pitch>
          <step>C</step><octave>5</octave>
        </pitch>
        <duration>1</duration>
        <voice>1</voice>
        <type>quarter</type>
        <notations>
          <technical><open-string/></technical>
        </notations>
        <lyric number="1"><text>open</text></lyric>
        <lyric number="2"><text>string</text></lyric>
      </note>
    </measure>
    <!--=======================================================-->
    <measure number="14">
      <note>
        <pitch>
          <step>C</step><octave>5</octave>
        </pitch>
        <duration>1</duration>
        <voice>1</voice>
        <type>quarter</type>
        <notations>
          <technical><thumb-position/></technical>
        </notations>
        <lyric number="1"><text>thumb-</text></lyric>
        <lyric number="2"><text>position</text></lyric>
      </note>
      <note>
        <pitch>
          <step>C</step><octave>5</octave>
        </pitch>
        <duration>1</duration>
        <voice>1</voice>
        <type>quarter</type>
        <notations>
          <technical><fingering>1</fingering></technical>
        </notations>
        <lyric number="1"><text>fingering</text></lyric>
        <lyric number="2"><text>1</text></lyric>
      </note>
      <note>
        <pitch>
          <step>C</step><octave>5</octave>
        </pitch>
        <duration>1</duration>
        <voice>1</voice>
        <type>quarter</type>
        <notations>
          <technical><fingering>2</fingering></technical>
        </notations>
        <lyric number="1"><text>fingering</text></lyric>
        <lyric number="2"><text>2,3,4,5</text></lyric>
      </note>
      <note>
        <chord/>
        <pitch>
          <step>D</step><octave>5</octave>
        </pitch>
        <duration>1</duration>
        <voice>1</voice>
        <type>quarter</type>
        <notations>
          <technical><fingering>3</fingering></technical>
        </notations>
      </note>
      <note>
        <chord/>
        <pitch>
          <step>E</step><octave>5</octave>
        </pitch>
        <duration>1</duration>
        <voice>1</voice>
        <type>quarter</type>
        <notations>
          <technical><fingering>4</fingering></technical>
        </notations>
      </note>
      <note>
        <chord/>
        <pitch>
          <step>F</step><octave>5</octave>
        </pitch>
        <duration>1</duration>
        <voice>1</voice>
        <type>quarter</type>
        <notations>
          <technical><fingering>5</fingering></technical>
        </notations>
      </note>
      <note>
        <pitch>
          <step>C</step><octave>5</octave>
        </pitch>
        <duration>1</duration>
        <voice>1</voice>
        <type>quarter</type>
        <notations>
          <technical>
            <fingering placement="above">0</fingering>
            <fingering placement="above">1</fingering>
            <fingering placement="above">2</fingering>
            <fingering placement="below">3</fingering>
            <fingering placement="below">4</fingering>
            <fingering placement="below">5</fingering>
          </technical>
        </notations>
        <lyric number="1"><text>fingering</text></lyric>
        <lyric number="2"><text>0,1,2↑</text></lyric>
        <lyric number="3"><text>3,4,5↓</text></lyric>
      </note>
    </measure>
    <!--=======================================================-->
    <measure number="15">
      <note>
        <pitch>
          <step>C</step><octave>5</octave>
        </pitch>
        <duration>1</duration>
        <voice>1</voice>
        <type>quarter</type>
        <notations>
          <technical>
            <fingering>2</fingering>
            <fingering substitution="yes">3</fingering>
          </technical>
        </notations>
        <lyric number="1"><text>fingering</text></lyric>
        <lyric number="2"><text>2, subst. 3</text></lyric>
      </note>
      <note>
        <pitch>
          <step>C</step><octave>5</octave>
        </pitch>
        <duration>1</duration>
        <voice>1</voice>
        <type>quarter</type>
        <notations>
          <technical>
            <fingering>2</fingering>
            <fingering alternate="yes">3</fingering>
          </technical>
        </notations>
        <lyric number="1"><text>fingering</text></lyric>
        <lyric number="2"><text>2, alt. 3</text></lyric>
      </note>
      <note>
        <pitch>
          <step>C</step><octave>5</octave>
        </pitch>
        <duration>1</duration>
        <voice>1</voice>
        <type>quarter</type>
        <notations>
          <technical><pluck>a</pluck></technical>
        </notations>
        <lyric number="1"><text>pluck</text></lyric>
        <lyric number="2"><text>a</text></lyric>
      </note>
      <note>
        <pitch>
          <step>C</step><octave>5</octave>
        </pitch>
        <duration>1</duration>
        <voice>1</voice>
        <type>quarter</type>
        <notations>
          <technical>
            <pluck placement="below">a</pluck>
            <pluck placement="below">m</pluck>
            <pluck placement="below">i</pluck>
          </technical>
        </notations>
        <lyric number="1"><text>pluck</text></lyric>
        <lyric number="2"><text>a,m,i↓</text></lyric>
      </note>
    </measure>
    <!--=======================================================-->
    <measure number="16">
      <note>
        <pitch>
          <step>C</step><octave>5</octave>
        </pitch>
        <duration>1</duration>
        <voice>1</voice>
        <type>quarter</type>
        <notations>
          <technical><double-tongue/></technical>
        </notations>
        <lyric number="1"><text>double</text></lyric>
        <lyric number="2"><text>tongue</text></lyric>
      </note>
      <note>
        <pitch>
          <step>C</step><octave>5</octave>
        </pitch>
        <duration>1</duration>
        <voice>1</voice>
        <type>quarter</type>
        <notations>
          <technical><triple-tongue/></technical>
        </notations>
        <lyric number="1"><text>triple</text></lyric>
        <lyric number="2"><text>tongue</text></lyric>
      </note>
      <note>
        <pitch>
          <step>C</step><octave>5</octave>
        </pitch>
        <duration>1</duration>
        <voice>1</voice>
        <type>quarter</type>
        <notations>
          <technical><stopped/></technical>
        </notations>
        <lyric number="1"><text>stopped</text></lyric>
      </note>
      <note>
        <pitch>
          <step>C</step><octave>5</octave>
        </pitch>
        <duration>1</duration>
        <voice>1</voice>
        <type>quarter</type>
        <notations>
          <technical><snap-pizzicato/></technical>
        </notations>
        <lyric number="1"><text>snap-</text></lyric>
        <lyric number="2"><text>pizz.</text></lyric>
      </note>
    </measure>
    <!--=======================================================-->
    <measure number="17">
      <note>
        <pitch>
          <step>C</step><octave>5</octave>
        </pitch>
        <duration>1</duration>
        <voice>1</voice>
        <type>quarter</type>
        <notations>
          <technical><fret>0</fret></technical>
        </notations>
        <lyric number="1"><text>fret</text></lyric>
        <lyric number="2"><text>0</text></lyric>
      </note>
      <note>
        <pitch>
          <step>C</step><octave>5</octave>
        </pitch>
        <duration>1</duration>
        <voice>1</voice>
        <type>quarter</type>
        <notations>
          <technical>
            <string>5</string>
          </technical>
        </notations>
        <lyric number="1"><text>string</text></lyric>
        <lyric number="2"><text>5</text></lyric>
      </note>
      <note>
        <pitch>
          <step>C</step><octave>5</octave>
        </pitch>
        <duration>1</duration>
        <voice>1</voice>
        <type>quarter</type>
        <notations>
          <technical>
            <hammer-on type="start"/>
          </technical>
        </notations>
        <lyric number="1"><syllabic>begin</syllabic><text>hammer</text></lyric>
      </note>
      <note>
        <pitch>
          <step>C</step><octave>5</octave>
        </pitch>
        <duration>1</duration>
        <voice>1</voice>
        <type>quarter</type>
        <notations>
          <technical>
            <hammer-on type="stop"/>
          </technical>
        </notations>
        <lyric number="1"><syllabic>end</syllabic><text>on</text></lyric>
      </note>
    </measure>
    <!--=======================================================-->
    <measure number="18">
      <note>
        <pitch>
          <step>C</step><octave>5</octave>
        </pitch>
        <duration>1</duration>
        <voice>1</voice>
        <type>quarter</type>
        <notations>
          <technical>
            <pull-off type="start"/>
          </technical>
        </notations>
        <lyric number="1"><syllabic>begin</syllabic><text>pull</text></lyric>
      </note>
      <note>
        <pitch>
          <step>C</step><octave>5</octave>
        </pitch>
        <duration>1</duration>
        <voice>1</voice>
        <type>quarter</type>
        <notations>
          <technical>
            <pull-off type="stop"/>
          </technical>
        </notations>
        <lyric number="1"><syllabic>end</syllabic><text>off</text></lyric>
      </note>
      <note>
        <pitch>
          <step>C</step><octave>5</octave>
        </pitch>
        <duration>1</duration>
        <voice>1</voice>
        <type>quarter</type>
        <notations>
          <technical>
            <bend><bend-alter>4</bend-alter></bend>
          </technical>
        </notations>
        <lyric number="1"><text>bend 4</text></lyric>
      </note>
      <note>
        <pitch>
          <step>C</step><octave>5</octave>
        </pitch>
        <duration>1</duration>
        <voice>1</voice>
        <type>quarter</type>
        <notations>
          <technical>
            <bend><bend-alter>3</bend-alter><release/><with-bar/></bend>
          </technical>
        </notations>
        <lyric number="1"><text>bend 3</text></lyric>
        <lyric number="2"><text>with bar</text></lyric>
      </note>
    </measure>
    <!--=======================================================-->
    <measure number="19">
      <note>
        <pitch>
          <step>C</step><octave>5</octave>
        </pitch>
        <duration>1</duration>
        <voice>1</voice>
        <type>quarter</type>
        <notations>
          <technical>
            <bend><bend-alter>-0.5</bend-alter><pre-bend/></bend>
          </technical>
        </notations>
        <lyric number="1"><text>bend -0.5</text></lyric>
        <lyric number="2"><text>pre-bend</text></lyric>
      </note>
      <note>
        <pitch>
          <step>C</step><octave>5</octave>
        </pitch>
        <duration>1</duration>
        <voice>1</voice>
        <type>quarter</type>
        <notations>
          <technical>
            <bend><bend-alter>3.5</bend-alter><release/></bend>
          </technical>
        </notations>
        <lyric number="1"><text>bend 3.5</text></lyric>
        <lyric number="2"><text>release</text></lyric>
      </note>
      <note>
        <pitch>
          <step>C</step><octave>5</octave>
        </pitch>
        <duration>1</duration>
        <voice>1</voice>
        <type>quarter</type>
        <notations>
          <technical><tap/></technical>
        </notations>
        <lyric number="1"><text>tap</text></lyric>
      </note>
      <note>
        <pitch>
          <step>C</step><octave>5</octave>
        </pitch>
        <duration>1</duration>
        <voice>1</voice>
        <type>quarter</type>
        <notations>
          <technical><tap>T</tap></technical>
        </notations>
        <lyric number="1"><text>tap</text></lyric>
        <lyric number="2"><text>T</text></lyric>
      </note>
    </measure>
    <!--=======================================================-->
    <measure number="20">
      <note>
        <pitch>
          <step>C</step><octave>5</octave>
        </pitch>
        <duration>1</duration>
        <voice>1</voice>
        <type>quarter</type>
        <notations>
          <technical><heel/></technical>
        </notations>
        <lyric number="1"><text>heel</text></lyric>
      </note>
      <note>
        <pitch>
          <step>C</step><octave>5</octave>
        </pitch>
        <duration>1</duration>
        <voice>1</voice>
        <type>quarter</type>
        <notations>
          <technical><toe substitution="yes"/></technical>
        </notations>
        <lyric number="1"><text>toe</text></lyric>
      </note>
      <note>
        <pitch>
          <step>C</step><octave>5</octave>
        </pitch>
        <duration>1</duration>
        <voice>1</voice>
        <type>quarter</type>
        <notations>
          <technical><fingernails/></technical>
        </notations>
        <lyric number="1"><text>finger-</text></lyric>
        <lyric number="2"><text>nails</text></lyric>
      </note>
      <note>
        <rest/>
        <duration>1</duration>
        <voice>1</voice>
        <type>quarter</type>
      </note>
      <barline location="right">
        <bar-style>light-light</bar-style>
      </barline>
    </measure>

    <!-- Dynamics, attached to notes or rests by putting them inside
         <notations> tags -->
    <measure number="21">
      <note>
        <rest measure="yes"/>
        <duration>4</duration>
        <voice>1</voice>
        <type>whole</type>
        <notations>
          <fermata type="upright"/>
        </notations>
      </note>
    </measure>
    <!--=======================================================-->
    <measure number="22">
      <note>
        <pitch>
          <step>C</step><octave>5</octave>
        </pitch>
        <duration>1</duration>
        <voice>1</voice>
        <type>quarter</type>
        <notations>
          <dynamics><f/></dynamics>
        </notations>
        <lyric number="1"><text>f</text></lyric>
      </note>
      <note>
        <pitch>
          <step>C</step><octave>5</octave>
        </pitch>
        <duration>1</duration>
        <voice>1</voice>
        <type>quarter</type>
        <notations>
          <dynamics><sfp/></dynamics>
        </notations>
        <lyric number="1"><text>sfp</text></lyric>
      </note>
      <note>
        <pitch>
          <step>C</step><octave>5</octave>
        </pitch>
        <duration>2</duration>
        <voice>1</voice>
        <type>half</type>
        <notations>
          <dynamics><other-dynamics>sfffz</other-dynamics></dynamics>
        </notations>
        <lyric number="1"><text>other</text></lyric>
        <lyric number="2"><text>dynamics</text></lyric>
      </note>
    </measure>

    <!-- General tests: multiple notations, directions, etc. -->
    <measure number="23">
      <note>
        <pitch>
          <step>G</step>
          <octave>4</octave>
        </pitch>
        <duration>1</duration>
        <voice>1</voice>
        <type>quarter</type>
        <notations>
          <articulations>
            <strong-accent placement="above" type="up"/>
            <staccato placement="above"/>
          </articulations>
        </notations>
        <lyric number="1"><text>strong ↑</text></lyric>
        <lyric number="2"><text>stacc. ↑</text></lyric>
      </note>
      <note>
        <pitch>
          <step>G</step>
          <octave>4</octave>
        </pitch>
        <duration>1</duration>
        <voice>1</voice>
        <type>quarter</type>
        <notations>
          <articulations>
            <accent placement="below"/>
            <tenuto placement="below"/>
            <staccato placement="above"/>
          </articulations>
        </notations>
        <lyric number="1"><text>acc. ↓</text></lyric>
        <lyric number="2"><text>ten. ↓</text></lyric>
        <lyric number="3"><text>stacc. ↑</text></lyric>
      </note>
      <note>
        <rest/>
        <duration>2</duration>
        <voice>1</voice>
        <type>half</type>
      </note>
      <barline location="right">
        <bar-style>light-heavy</bar-style>
      </barline>
    </measure>
  </part>
</score-partwise>
