<svg xmlns="http://www.w3.org/2000/svg">
<defs>
<font id="7377dd80c36b825ad2214a14c2421925" horiz-adv-x='1024' >
  <font-face 
    font-family="Bravura"
    font-weight="400"
    font-stretch="normal"
    units-per-em="2048"
    panose-1="5 6 0 0 0 0 0 0 0 0"
    ascent="1638"
    descent="-410"
    bbox="-889 -3574 4749 4096"
    underline-thickness="102"
    underline-position="-102"
    unicode-range="U+0020-1D1DD"
  />
<missing-glyph horiz-adv-x="608" 
 />
    <glyph glyph-name="uniE527" unicode="&#xe520;&#xe520;&#xe520;&#xe520;&#xe520;&#xe520;" horiz-adv-x="4349" 
d="M4168 414q0 66 -27 80q-4 2 -14 2q-35 0 -80 -50t-87 -140q-42 -88 -42 -156t26 -80q4 -2 15 -2q35 0 81 49t87 140t41 157zM3414 496q-33 0 -79 -50t-88 -140t-42 -164t43 -74q33 0 80 50t88 140t41 156t-27 80q-6 2 -16 2zM2703 496q-35 0 -80 -50t-87 -140t-42 -164
t41 -74q35 0 81 49t87 137t41 156t-26 84q-4 2 -15 2zM2034 422q0 74 -41 74q-35 0 -81 -50t-87 -138q-41 -86 -41 -156t26 -82q4 -2 15 -2q35 0 81 49t87 140t41 165zM1282 496q-35 0 -80 -50t-87 -140t-42 -164t41 -74q35 0 81 49t87 140t41 157t-27 80q-4 2 -14 2z
M569 496q-33 0 -79 -50t-88 -140t-42 -164t43 -74q33 0 80 50t88 140t41 156t-26 80q-6 2 -17 2zM4350 379q0 -87 -26 -143t-60 -100t-100 -91t-136 -47h-8q-86 6 -123 34t-39 27q-12 0 -20 -32q-92 -218 -92 -234t24 -16h64q29 0 29 -27t-31 -26h-426q-31 0 -31 26t31 27
h92q29 0 39 18l262 606q8 25 8 55t-24 29q-53 0 -148 -151q-9 -68 -27 -105t-40 -69q-116 -162 -250 -162h-8q-88 6 -123 34t-39 27q-12 0 -23 -32q-92 -225 -92 -237q0 -13 25 -13h65q27 0 27 -27t-31 -26h-424q-33 0 -33 26t33 27h92q29 0 37 18l262 606q8 25 8 55t-22 29
q-54 0 -147 -151q-8 -68 -37 -126t-107 -134t-174 -76h-10q-86 6 -123 34t-39 27q-10 0 -61 -126t-51 -141q-1 -15 24 -15h63q29 0 29 -27t-31 -26h-426q-31 0 -30 26q0 27 30 27h93q29 0 39 18l262 606q8 25 8 55t-23 29q-51 0 -147 -151q-12 -95 -70 -173
q-117 -163 -250 -163h-8q-88 6 -124 34t-38 27q-12 0 -20 -32q-92 -218 -92 -234t24 -16h64q29 0 29 -27t-31 -26h-426q-33 0 -33 26t33 27h92q29 0 39 18l260 606q10 13 10 49t-24 35q-14 0 -25 -8q-49 -25 -123 -143q-23 -177 -181 -289q-67 -47 -136 -47h-8
q-86 6 -123 34t-39 27q-12 0 -21 -32q-92 -218 -92 -234t25 -16h63q29 0 29 -27t-31 -26h-426q-31 0 -31 26t31 27h92q29 0 39 18l262 606q8 25 8 55t-24 29q-53 0 -147 -151q-8 -68 -33 -118t-77 -108q-100 -110 -208 -110h-8q-88 6 -123 34t-39 27q-12 0 -22 -32
q-91 -222 -92 -236t24 -14h66q27 0 26 -25q0 -29 -31 -28h-424q-33 0 -32 26q0 27 32 27h93q29 0 37 18l262 606q8 25 8 55t-30 30t-76 -61q-46 -60 -70 -101l-23 -41q-10 -25 -28 -25q-7 0 -15 5t-8 18l10 24q43 78 112 164t126 94l33 2q76 0 110 -71l6 -9q13 -27 19 -27
t24 24q18 22 84 56t127 34t97 -47q36 -46 43 -109q100 137 167 147l33 2q78 0 111 -71l4 -7q12 -29 19 -29t20 13q27 33 93 67q147 77 222 -14q33 -43 43 -108q100 137 166 147l33 2q78 0 110 -71l7 -9q12 -27 18 -27q7 0 25 24q18 22 85 56q149 76 224 -14q37 -49 43 -108
q100 137 166 147l33 2q78 0 110 -71l4 -7q12 -29 21 -28q6 0 18 12q26 33 92 67q147 76 224 -14q35 -41 45 -108q100 137 165 147l33 2q74 0 111 -71l6 -9q14 -27 19 -27t24 24q19 22 85 56t126 34q61 0 98 -48q37 -47 43 -108q100 137 166 147l33 2q78 0 110 -71l5 -7
q12 -29 19 -29t20 13q26 33 92 67q147 77 223 -14q45 -57 45 -145z" />
    <glyph glyph-name="uniE528" unicode="&#xe520;&#xe520;&#xe520;&#xe520;&#xe520;" horiz-adv-x="3637" 
d="M3414 496q-33 0 -79 -50t-88 -138q-42 -90 -42 -164t43 -74q33 0 80 50t88 138t41 156t-27 80q-6 2 -16 2zM2703 496q-35 0 -80 -50t-87 -138q-42 -90 -42 -164t41 -74q35 0 81 49t87 136t41 157t-26 82q-4 2 -15 2zM2034 421q0 75 -41 75q-35 0 -81 -50t-87 -136
t-41 -156t26 -82q4 -2 15 -2q35 0 81 49t87 138t41 164zM1282 496q-35 0 -80 -50t-87 -138q-42 -90 -42 -164t41 -74q35 0 81 49t87 138t41 157t-27 80q-4 2 -14 2zM569 496q-33 0 -79 -50t-88 -138q-42 -90 -42 -164t43 -74q33 0 80 50t88 138t41 156t-26 80q-6 2 -17 2z
M1702 567q76 0 110 -71q20 -36 25 -35q7 1 25 23t85 56q149 76 224 -14q37 -47 43 -110q102 139 166 147q25 4 33 4q78 0 114 -80q12 -27 21 -26q6 0 18 12q26 33 92 67q147 76 224 -14q33 -41 45 -110q102 139 165 147q20 4 33 4q79 0 115 -80q12 -27 19 -27t26 24
q19 22 85 56t126 34q61 0 102 -55q41 -54 41 -140t-35 -157q-36 -70 -112 -146t-174 -76h-15q-84 6 -122 35q-25 25 -33 24q-12 0 -23 -30q-92 -225 -92 -238q0 -14 25 -14h65q27 0 27 -26t-31 -25h-424q-33 0 -33 26t33 25h92q29 0 37 20l262 604q21 88 -14 86
q-54 0 -147 -153q-8 -72 -33 -115q-33 -67 -111 -143t-174 -76h-16q-82 6 -116 33t-42 27t-59 -126q-51 -125 -51 -141q-1 -16 24 -16h63q29 0 29 -26t-31 -25h-426q-31 0 -30 26q0 25 30 25h93q29 0 39 20l262 604q8 33 8 60t-23 26q-54 0 -147 -153q-8 -66 -38 -124
t-106 -134t-176 -76h-14q-84 6 -117 33t-39 26q-12 0 -20 -30q-92 -218 -92 -235t24 -17h64q29 0 29 -26t-31 -25h-426q-33 0 -33 26t33 25h92q29 0 39 20l260 604q10 19 10 53t-24 33q-14 0 -25 -8q-53 -29 -123 -145q-8 -66 -36 -124q-27 -58 -105 -134t-176 -76h-15
q-81 6 -115 33t-40 26q-12 0 -21 -30q-92 -218 -92 -235t25 -17h63q29 0 29 -26t-31 -25h-426q-31 0 -31 26t31 25h92q29 0 39 20l262 604q8 33 8 60t-24 26q-10 0 -25 -8q-51 -27 -122 -145q-8 -72 -33 -115q-33 -67 -110 -143t-175 -76h-14q-84 6 -123 35q-25 25 -33 24
q-12 0 -22 -30q-92 -225 -92 -238q-1 -14 24 -14h66q27 0 26 -25q0 -27 -31 -26h-424q-33 0 -32 26q0 25 32 25h93q29 0 37 20l262 604q8 33 8 60t-30 27t-76 -61q-46 -60 -70 -101l-23 -41q-11 -25 -31 -25t-20 23l10 24q65 112 132 181t106 75q20 4 33 4q78 0 114 -80
q15 -27 21 -27t24 24q18 22 84 56t127 34t97 -46q36 -45 43 -112q102 139 167 147q20 4 33 4q79 0 115 -80q12 -27 19 -27t20 13q27 33 93 67t122 33q115 0 143 -157q102 139 166 147q20 4 33 4z" />
    <glyph glyph-name="uniE529" unicode="&#xe520;&#xe520;&#xe520;&#xe520;" horiz-adv-x="2926" 
d="M2703 496q-35 0 -80 -50t-87 -138q-42 -90 -42 -164t41 -74q35 0 81 49t87 136t41 157t-26 82q-4 2 -15 2zM2034 421q0 75 -41 75q-35 0 -81 -50t-87 -136t-41 -156t26 -82q4 -2 15 -2q35 0 81 49t87 138t41 164zM1282 496q-35 0 -80 -50t-87 -138q-42 -90 -42 -164
t41 -74q35 0 81 49t87 138t41 157t-27 80q-4 2 -14 2zM569 496q-33 0 -79 -50t-88 -138q-42 -90 -42 -164t43 -74q33 0 80 50t88 138t41 156t-26 80q-6 2 -17 2zM1702 567q76 0 110 -71q20 -36 25 -35q7 1 25 23t85 56q149 76 224 -14q37 -47 43 -110q102 139 166 147
q25 4 33 4q78 0 114 -80q12 -27 21 -26q6 0 18 12q26 33 92 67q148 77 224 -14q45 -57 45 -147t-34 -158q-34 -69 -112 -145t-174 -76h-16q-82 6 -116 33t-42 27t-59 -126q-51 -125 -51 -141q-1 -16 24 -16h63q29 0 29 -26t-31 -25h-426q-31 0 -30 26q0 25 30 25h93
q29 0 39 20l262 604q8 33 8 60t-23 26q-54 0 -147 -153q-8 -66 -38 -124t-106 -134t-176 -76h-14q-84 6 -117 33t-39 26q-12 0 -20 -30q-92 -218 -92 -235t24 -17h64q29 0 29 -26t-31 -25h-426q-33 0 -33 26t33 25h92q29 0 39 20l260 604q10 19 10 53t-24 33q-14 0 -25 -8
q-53 -29 -123 -145q-8 -66 -36 -124q-27 -58 -105 -134t-176 -76h-15q-81 6 -115 33t-40 26q-12 0 -21 -30q-92 -218 -92 -235t25 -17h63q29 0 29 -26t-31 -25h-426q-31 0 -31 26t31 25h92q29 0 39 20l262 604q8 33 8 60t-24 26q-10 0 -25 -8q-51 -27 -122 -145
q-8 -72 -33 -115q-33 -67 -110 -143t-175 -76h-14q-84 6 -123 35q-25 25 -33 24q-12 0 -22 -30q-92 -225 -92 -238q-1 -14 24 -14h66q27 0 26 -25q0 -27 -31 -26h-424q-33 0 -32 26q0 25 32 25h93q29 0 37 20l262 604q8 33 8 60t-30 27t-76 -61q-46 -60 -70 -101l-23 -41
q-11 -25 -31 -25t-20 23l10 24q65 112 132 181t106 75q20 4 33 4q78 0 114 -80q15 -27 21 -27t24 24q18 22 84 56t127 34t97 -46q36 -45 43 -112q102 139 167 147q20 4 33 4q79 0 115 -80q12 -27 19 -27t20 13q27 33 93 67t122 33q115 0 143 -157q102 139 166 147q20 4 33 4
z" />
    <glyph glyph-name="uniE52A" unicode="&#xe520;&#xe520;&#xe520;" horiz-adv-x="2215" 
d="M2034 434q0 74 -41 74q-35 0 -81 -50t-87 -137t-41 -157t26 -82q4 -2 15 -2q35 0 81 49t87 140t41 165zM1323 426q0 66 -27 80q-4 2 -14 2q-35 0 -80 -50t-87 -139t-42 -157t27 -80q4 -2 14 -2q35 0 81 49t87 140t41 157zM403 80q33 0 80 50t88 140t41 156t-26 80
q-6 2 -17 2q-33 0 -79 -50t-88 -139t-42 -164t43 -75zM1837 471q7 1 25 23t85 56t126 34t98 -47q45 -61 45 -164t-72 -200q-117 -163 -250 -163h-8q-88 6 -124 34t-38 28q-12 0 -20 -33q-92 -218 -92 -234t24 -16h64q29 0 29 -27t-31 -26h-426q-33 0 -33 26t33 27h92
q29 0 39 18l260 607q10 14 10 49t-24 35q-14 0 -25 -9q-49 -25 -123 -143q-23 -177 -181 -289q-67 -47 -136 -47h-8q-86 6 -123 34t-39 28q-12 0 -21 -33q-92 -218 -92 -234t25 -16h63q29 0 29 -27t-31 -26h-426q-31 0 -31 26t31 27h92q29 0 39 18l262 607q27 84 -16 84
q-10 0 -25 -9q-47 -23 -122 -143q-8 -68 -33 -118t-77 -108q-100 -110 -208 -110h-8q-88 6 -123 34t-39 28q-12 0 -22 -33q-91 -222 -92 -236t24 -14h66q27 0 26 -25q0 -29 -31 -28h-424q-33 0 -32 26q0 27 32 27h93q29 0 37 18l262 607q8 24 8 54t-23 30q-36 0 -82 -60
q-47 -60 -71 -102l-23 -41q-10 -25 -28 -25q-7 0 -15 5t-8 18l10 24q43 78 112 164t126 94l33 3q76 0 110 -72l6 -8q13 -27 19 -27q6 1 24 23t84 56t127 34t97 -46t43 -110q100 137 167 147l33 3q78 0 111 -72l4 -6q12 -29 19 -29t20 12q27 33 93 67t124 34q59 0 95 -45
t46 -111q100 137 166 147l33 3q78 0 110 -72l7 -8q12 -27 18 -27z" />
    <glyph glyph-name="uniE52B" unicode="&#xe520;&#xe520;" horiz-adv-x="1505" 
d="M1282 496q-35 0 -80 -50t-87 -140t-42 -164t41 -74q35 0 81 49t87 140t41 157t-27 80q-4 2 -14 2zM569 496q-33 0 -79 -50t-88 -140t-42 -164t43 -74q33 0 80 50t88 140t41 156t-26 80q-6 2 -17 2zM1505 379q-1 -87 -27 -143t-59 -100t-99 -91t-136 -47h-8q-86 6 -123 34
t-39 27q-12 0 -21 -32q-92 -218 -92 -234t25 -16h63q29 0 29 -27t-31 -26h-426q-31 0 -31 26t31 27h92q29 0 39 18l262 606q8 25 8 55t-24 29q-53 0 -147 -151q-8 -68 -33 -118t-77 -108q-100 -110 -208 -110h-8q-88 6 -123 34t-39 27q-12 0 -22 -32q-91 -222 -92 -236
t24 -14h66q27 0 26 -25q0 -29 -31 -28h-424q-33 0 -32 26q0 27 32 27h93q29 0 37 18l262 606q8 25 8 55t-30 30t-76 -61q-46 -60 -70 -101l-23 -41q-10 -25 -28 -25q-7 0 -15 5t-8 18l10 24q43 78 112 164t126 94l33 2q76 0 110 -71l6 -9q13 -27 19 -27t24 24q18 22 84 56
t127 34t97 -47q36 -46 43 -109q100 137 167 147l33 2q78 0 111 -71l4 -7q12 -29 19 -29t20 13q27 33 93 67q147 77 222 -14q45 -57 45 -145z" />
    <glyph glyph-name="uniE52C" unicode="&#xe521;&#xe520;" horiz-adv-x="1628" 
d="M1196 139q0 -72 41 -76q35 1 81 51t87 139t41 162t-41 77q-35 0 -80 -50t-87 -140q-42 -91 -42 -163zM624 420q-30 0 -49 -33q-20 -41 -81 -193t-66 -159q-18 -35 -39 -35h-102q-18 0 -19 14q0 10 6 25q134 311 134 344t-31 33t-45 -27l-6 -10q-98 -182 -99 -207
q-76 -167 -94 -170q-4 -2 -14 -2h-80q-33 0 -33 11t64 153t88 211q18 37 18 77t-24 40t-89 -78q-16 -18 -44 -62l-42 -66q-14 -20 -24 -20q-23 0 -25 21q0 12 24 48q24 35 34 57q11 22 67 85q66 82 132 82t102 -57q12 -18 17 -18t55 37q51 38 93 38q70 0 100 -53
q11 -18 16 -18t48 35q43 36 88 36t80 -27t35 -101t-102 -312q-6 -19 -6 -33t12 -14q52 23 155 243q38 82 98 166t136 84t113 -76l4 -6q12 -27 20 -27t27 24q18 22 84 55t126 33t101 -53q41 -52 41 -140t-34 -158q-34 -69 -112 -145t-175 -76h-9q-80 0 -118 30t-43 29
q-12 0 -21 -32q-92 -218 -92 -234t25 -16h63q29 0 29 -27t-31 -27h-426q-31 0 -31 27t31 27h92q29 0 39 20l262 604l19 58q0 23 -25 22l-18 -2q-17 -4 -57 -84t-84 -171t-114 -167t-147 -76q-78 0 -100 64q-2 6 -2 23t12 51l25 67q13 46 51 150l16 57q1 31 -29 31z" />
    <glyph glyph-name="uniE52D" unicode="&#xe521;&#xe522;" horiz-adv-x="1632" 
d="M659 -287q15 -6 37 -6t66 38q45 38 76 114q8 20 82 293t75 291q0 19 -34 20h-70q-27 0 -32 6t-5 38t9 39t46 7h97q35 0 45 7t24 42q43 104 141 204t252 99h13q73 -2 113 -42t39 -97t-40 -100t-73 -43q-76 0 -76 75q0 33 18 58q14 27 36 35t26 12q6 4 6 24q-2 12 -19 13
h-8q-59 -2 -99 -34t-56 -65t-38 -91t-22 -74t12 -20q12 -3 52 -3h69q29 0 33 -5t4 -39t-5 -40t-34 -6h-84q-53 0 -64 -6q-23 -12 -79 -164l-43 -119q-50 -140 -68 -172q-49 -113 -73 -149q-72 -113 -156 -168t-166 -56q-72 -1 -122 49q-28 28 -28 86q0 56 32 94q31 38 67 38
q100 0 100 -97q0 -31 -22 -57q-39 -25 -54 -29zM617 420q-30 0 -48 -33q-19 -41 -81 -193t-66 -159q-16 -35 -39 -35h-102q-18 0 -19 14q0 10 6 25q133 311 133 344t-29 33t-40 -17q-16 -16 -81 -162q-65 -145 -81 -175t-18 -35q-20 -25 -39 -27h-80q-33 0 -33 11t64 153
t88 211q18 37 18 77t-24 40t-89 -78q-16 -18 -44 -62l-42 -66q-14 -20 -24 -20q-25 0 -25 21q0 12 24 48q24 35 34 57q11 22 67 85q66 82 132 82t102 -57q12 -18 17 -18t55 37q51 38 93 38q70 0 100 -53q11 -18 16 -18t48 35q43 36 88 36t80 -27t35 -101t-102 -312
q-9 -25 -9 -36t17 -17q25 0 63 57q34 43 52 71t33 31q15 2 16 -14q0 -41 -93 -153q-67 -81 -145 -81t-100 64q-2 6 -2 23t12 51l25 67q13 46 51 150l16 57q0 31 -30 31z" />
    <glyph glyph-name="uniE52E" unicode="&#xe520;&#xe522;" horiz-adv-x="1581" 
d="M942 470q0 19 -35 19h-45q-27 1 -32 7t-5 38q-1 32 9 38t47 8h71q35 0 45 7t25 42q44 103 142 203t251 100h12q74 -2 114 -42t39 -98t-40 -100q-39 -43 -74 -43q-76 0 -75 76q0 33 18 57q13 27 35 35t27 12t6 25q-2 12 -19 12h-8q-59 -2 -99 -34q-41 -32 -57 -64
q-16 -33 -38 -91q-22 -59 -21 -75q0 -16 12 -19t51 -3h70q29 0 33 -6t4 -38q0 -34 -5 -40t-34 -7h-92q-41 0 -54 -7q-26 -14 -81 -163l-43 -118q-48 -131 -82 -208q-90 -200 -213 -280q-86 -57 -168 -57q-73 0 -121 49q-28 29 -29 85q0 56 31 94t68 38q100 0 100 -96
q0 -31 -23 -57q-39 -25 -53 -29l4 -2l27 -4q26 0 57 24q59 51 90 127q8 20 83 293t75 292zM403 70q33 0 80 51t88 139t41 156t-26 80q-6 2 -17 2q-33 0 -79 -49t-88 -140t-42 -165t43 -74zM281 567q76 0 110 -71l4 -7q19 -42 37 -14q26 33 92 66t128 33t103 -55
q40 -54 40 -158t-72 -197q-23 -31 -59 -71q-81 -91 -191 -91h-8q-82 0 -129 35q-25 25 -33 24q-12 0 -22 -32q-91 -222 -92 -236t24 -14h66q27 0 26 -25q0 -29 -31 -28h-424q-33 0 -32 26q0 27 32 27h93q29 0 37 20l262 604q8 25 8 55t-23 29q-15 0 -35 -11t-57 -60t-61 -90
l-23 -41q-10 -25 -28 -25q-7 0 -15 5t-8 20l10 24q65 112 132 181t106 75q10 2 33 2z" />
    <glyph glyph-name="uniE52F" unicode="&#xe522;&#xe522;" horiz-adv-x="1374" 
d="M1208 932h13q73 -2 113 -42t39 -98t-40 -100q-39 -43 -73 -43q-76 0 -76 76q0 33 18 57q14 27 36 35t26 12q6 4 6 25q-2 12 -19 12h-8q-59 -2 -99 -34t-56 -64q-16 -33 -38 -91q-22 -59 -22 -75t12 -19t52 -3h69q27 0 32 -6t5 -38q0 -34 -5 -40t-34 -7h-84q-51 0 -63 -6
q-23 -12 -80 -164l-43 -118q-48 -131 -82 -208q-91 -201 -213 -280q-86 -57 -168 -57q-74 0 -122 49q-28 29 -28 85t31 94t68 38q100 0 100 -96q0 -31 -22 -57q-39 -25 -54 -29l4 -2l27 -4q27 0 57 24q59 51 91 127q8 20 82 293t75 292q0 19 -35 19h-192q-52 0 -64 -6
q-22 -11 -79 -164l-43 -118q-45 -125 -81 -205q-92 -203 -214 -283q-86 -57 -168 -57q-73 0 -121 49q-28 29 -29 85q0 56 31 94t68 38q100 0 100 -96q0 -31 -23 -57q-39 -25 -53 -29l4 -2l27 -4q25 0 57 24q59 51 90 127q8 20 83 293t75 292t-35 19h-70q-27 1 -31 7t-5 38
q0 32 9 38t46 8h96q35 0 45 7t25 42q44 103 142 203t251 100h12q74 -2 114 -42t39 -98t-40 -100q-39 -43 -74 -43q-76 0 -76 76q0 33 19 57q13 27 35 35t27 12t5 25q-2 12 -18 12h-8q-59 -2 -99 -34q-41 -32 -57 -64q-16 -33 -38 -91t-21 -79q0 -21 65 -20h26l193 2
q35 0 46 7q10 7 24 42q43 103 141 203t252 100z" />
    <glyph glyph-name="uniE530" unicode="&#xe522;&#xe522;&#xe522;" horiz-adv-x="1933" 
d="M168 470q0 19 -35 19h-70q-27 1 -31 7t-5 38q0 32 9 38t46 8h96q35 0 45 7t25 42q44 103 142 203t251 100h12q74 -2 114 -42t39 -98t-40 -100q-39 -43 -74 -43q-76 0 -76 76q0 33 19 57q13 27 35 35t27 12t5 25q-2 12 -18 12h-8q-59 -2 -99 -34q-41 -32 -57 -64
q-16 -33 -38 -91q-22 -59 -21 -75q0 -16 12 -19t51 -3h213q35 0 45 7t25 42q43 103 141 203t252 100h12q74 -2 114 -42t39 -98t-40 -100q-39 -43 -74 -43q-76 0 -75 76q0 33 18 57q14 27 36 35t26 12q5 4 6 25q-2 12 -19 12h-8q-59 -2 -99 -34t-56 -64q-16 -33 -38 -91
q-22 -59 -22 -75t12 -19t51 -3h222q35 0 45 7t24 42q43 103 141 203t252 100h13q74 -2 114 -42t38 -98q-1 -58 -40 -100q-39 -43 -73 -43q-76 0 -76 76q0 33 18 57q13 27 35 35t28 12t5 25q-2 12 -19 12h-8q-59 -2 -99 -34t-56 -64q-15 -33 -37 -91q-22 -59 -22 -75t11 -19
q12 -3 52 -3h69q29 0 33 -6t4 -38q0 -34 -5 -40t-34 -7h-84q-53 0 -64 -6q-23 -12 -79 -164l-43 -118q-52 -144 -68 -172q-49 -113 -73 -150q-72 -113 -156 -168t-166 -55q-72 0 -111 39q-38 39 -38 95t31 94t67 38q100 0 100 -96q0 -31 -22 -57q-39 -25 -54 -29l5 -2l26 -4
q26 0 58 24q59 51 90 127q9 20 83 293t74 292t-34 19h-193q-51 0 -63 -6q-23 -12 -80 -164l-43 -118q-48 -131 -82 -208q-90 -200 -213 -280q-86 -57 -168 -57q-74 0 -122 49q-28 29 -28 85t31 94t68 38q100 0 100 -96q0 -31 -23 -57q-39 -25 -53 -29l4 -2l27 -4q25 0 57 24
q59 51 90 127q8 20 83 293t75 292t-35 19h-184q-52 0 -64 -6q-22 -11 -79 -164l-43 -118q-45 -125 -81 -205q-92 -203 -214 -283q-86 -57 -168 -57q-73 0 -121 49q-28 29 -29 85q0 56 31 94t68 38q100 0 100 -96q0 -31 -23 -57q-39 -25 -53 -29l4 -2l27 -4q25 0 57 24
q59 51 90 127q8 20 83 293t75 292z" />
    <glyph glyph-name="uniE531" unicode="&#xe522;&#xe522;&#xe522;&#xe522;" horiz-adv-x="2492" 
d="M168 470q0 19 -35 19h-70q-27 1 -31 7t-5 38q0 32 9 38t46 8h96q35 0 45 7t25 42q44 103 142 203t251 100h12q74 -2 114 -42t39 -98t-40 -100q-39 -43 -74 -43q-76 0 -76 76q0 33 19 57q13 27 35 35t27 12t5 25q-2 12 -18 12h-8q-59 -2 -99 -34q-41 -32 -57 -64
q-16 -33 -38 -91q-22 -59 -21 -75q0 -16 12 -19t51 -3h217q35 0 45 7t25 42q43 103 141 203t252 100h13q73 -2 113 -42t39 -98t-40 -100q-39 -43 -74 -43q-76 0 -75 76q0 33 18 57q14 27 36 35t26 12q6 4 6 25q-2 12 -19 12h-8q-59 -2 -99 -34t-56 -64q-16 -33 -38 -91
q-22 -57 -22 -77t57 -20h219q35 0 46 7q10 7 24 42q44 103 142 203t251 100h13q74 -2 114 -42t38 -98q-1 -58 -40 -100q-39 -43 -73 -43q-76 0 -76 76q0 33 18 57q13 27 35 35t28 12t5 25q-2 12 -19 12h-8q-59 -2 -99 -34q-41 -32 -57 -64q-16 -33 -37 -91q-21 -57 -21 -77
t56 -20h224q35 0 45 7t24 42q43 103 141 203t253 100h12q73 -2 113 -42t39 -98t-40 -100q-39 -43 -73 -43q-76 0 -76 76q0 33 18 57q14 27 36 35t26 12q6 4 6 25q-2 12 -18 12h-9q-59 -2 -99 -34t-56 -64q-16 -33 -38 -91q-22 -59 -22 -75t12 -19t52 -3h69q27 0 32 -6t5 -38
q0 -34 -5 -40t-34 -7h-84q-51 0 -63 -6q-23 -12 -80 -164l-43 -118q-52 -144 -68 -172q-49 -113 -73 -150q-72 -113 -156 -168t-166 -55q-72 0 -111 39q-38 39 -38 95t31 94t67 38q100 0 100 -96q0 -31 -22 -57q-39 -25 -53 -29l4 -2l26 -4q26 0 58 24q59 51 90 127
q8 20 82 293t75 292q0 19 -34 19h-189q-53 0 -64 -6q-23 -12 -79 -164l-43 -118q-48 -131 -82 -208q-91 -201 -213 -280q-86 -57 -168 -57q-73 0 -121 49q-28 29 -29 85q0 56 31 94t68 38q100 0 100 -96q0 -31 -22 -57q-39 -25 -54 -29l4 -2l27 -4q27 0 57 24q59 51 91 127
q9 20 83 293t74 292t-35 19h-184q-53 0 -64 -6q-23 -12 -79 -164l-43 -118q-48 -131 -82 -208q-90 -200 -213 -280q-86 -57 -168 -57q-74 0 -122 49q-28 29 -28 85t31 94t68 38q100 0 100 -96q0 -31 -22 -57q-39 -25 -54 -29l4 -2l27 -4q27 0 57 24q59 51 90 127
q8 20 83 293t75 292t-35 19h-188q-52 0 -64 -6q-22 -11 -79 -164l-43 -118q-45 -125 -81 -205q-92 -203 -214 -283q-86 -57 -168 -57q-73 0 -121 49q-28 29 -29 85q0 56 31 94t68 38q100 0 100 -96q0 -31 -23 -57q-39 -25 -53 -29l4 -2l27 -4q25 0 57 24q59 51 90 127
q8 20 83 293t75 292z" />
    <glyph glyph-name="uniE532" unicode="&#xe522;&#xe522;&#xe522;&#xe522;&#xe522;" horiz-adv-x="3047" 
d="M168 470q0 19 -35 19h-70q-27 1 -31 7t-5 38q0 32 9 38t46 8h96q35 0 45 7t25 42q44 103 142 203t251 100h12q74 -2 114 -42t39 -98t-40 -100q-39 -43 -74 -43q-76 0 -76 76q0 33 19 57q13 27 35 35t27 12t5 25q-2 12 -18 12h-8q-59 -2 -99 -34q-41 -32 -57 -64
q-16 -33 -38 -91q-22 -57 -21 -77q0 -20 57 -20h223q35 0 45 7t25 42q43 103 141 203t252 100h13q73 -2 113 -42t39 -98t-40 -100q-39 -43 -74 -43q-76 0 -75 76q0 33 18 57q14 27 36 35t26 12q6 4 6 25q-2 12 -19 12h-8q-59 -2 -99 -34t-56 -64q-16 -33 -38 -91
q-22 -57 -22 -77t57 -20h222q35 0 45 7t24 42q44 103 142 203t251 100h13q74 -2 114 -42t38 -98q-1 -58 -40 -100q-39 -43 -73 -43q-76 0 -76 76q0 33 18 57q13 27 35 35t28 12t5 25q-2 12 -19 12h-8q-59 -2 -99 -34t-56 -64q-15 -33 -37 -91q-22 -57 -22 -77t56 -20h216
q35 0 45 7t24 42q43 103 141 203t252 100h13q73 -2 113 -42t39 -98t-40 -100q-39 -43 -73 -43q-76 0 -76 76q0 33 18 57q14 27 36 35t26 12q6 4 6 25q-2 12 -19 12h-8q-59 -2 -99 -34t-56 -64q-16 -33 -38 -91q-22 -57 -22 -77t58 -20h221q35 0 45 7t24 42q44 103 142 203
t252 100h12q74 -2 114 -42t38 -98q-1 -58 -40 -100q-39 -43 -73 -43q-76 0 -76 76q0 33 18 57q13 27 35 35t28 12t5 25q-2 12 -18 12h-9q-59 -2 -99 -34t-56 -64q-15 -33 -37 -91q-22 -59 -22 -75t12 -19t51 -3h69q29 0 33 -6t4 -38q0 -34 -5 -40t-34 -7h-84q-53 0 -64 -6
q-23 -12 -79 -164l-43 -118q-52 -144 -68 -172q-49 -113 -73 -150q-72 -113 -156 -168t-166 -55q-72 0 -111 39q-38 39 -38 95t31 94t67 38q100 0 100 -96q0 -31 -22 -57q-39 -25 -53 -29l4 -2l26 -4q26 0 58 24q59 51 90 127q9 20 83 293t74 292t-34 19h-187q-53 0 -64 -6
q-23 -12 -79 -164l-43 -118q-52 -144 -68 -172q-49 -113 -73 -150q-72 -113 -156 -168t-166 -55q-74 0 -122 49q-28 29 -28 85t32 94q31 38 67 38q100 0 100 -96q0 -31 -22 -57q-39 -25 -54 -29l5 -2l26 -4q27 0 57 24q59 51 91 127q8 20 82 293t75 292q0 19 -35 19h-180
q-51 0 -63 -6q-23 -12 -80 -164l-43 -118q-48 -131 -82 -208q-91 -201 -213 -280q-86 -57 -168 -57q-73 0 -121 49q-28 29 -28 85t31 94t67 38q100 0 100 -96q0 -31 -22 -57q-39 -25 -54 -29l5 -2l26 -4q27 0 57 24q59 51 91 127q9 20 83 293t74 292t-35 19h-186
q-53 0 -64 -6q-23 -12 -79 -164l-43 -118q-48 -131 -82 -208q-90 -200 -213 -280q-86 -57 -168 -57q-74 0 -122 49q-28 29 -28 85t31 94t68 38q100 0 100 -96q0 -31 -22 -57q-39 -25 -54 -29l4 -2l27 -4q27 0 57 24q59 51 90 127q8 20 83 293t75 292t-35 19h-188
q-52 0 -64 -6q-22 -11 -79 -164l-43 -118q-45 -125 -81 -205q-92 -203 -214 -283q-86 -57 -168 -57q-73 0 -121 49q-28 29 -29 85q0 56 31 94t68 38q100 0 100 -96q0 -31 -23 -57q-39 -25 -53 -29l4 -2l27 -4q25 0 57 24q59 51 90 127q8 20 83 293t75 292z" />
    <glyph glyph-name="uniE533" unicode="&#xe522;&#xe522;&#xe522;&#xe522;&#xe522;&#xe522;" horiz-adv-x="3590" 
d="M168 470q0 19 -35 19h-70q-27 1 -31 7t-5 38q0 32 9 38t46 8h96q35 0 45 7t25 42q44 103 142 203t251 100h12q74 -2 114 -42t39 -98t-40 -100q-39 -43 -74 -43q-76 0 -76 76q0 33 19 57q13 27 35 35t27 12t5 25q-2 12 -18 12h-8q-59 -2 -99 -34q-41 -32 -57 -64
q-16 -33 -38 -91q-22 -57 -21 -77q0 -20 57 -20h215q35 0 45 7t25 42q43 103 141 203t252 100h12q74 -2 114 -42t39 -98t-40 -100q-39 -43 -74 -43q-76 0 -76 76q0 33 19 57q14 27 36 35t26 12q5 4 5 25q-2 12 -18 12h-8q-59 -2 -99 -34t-56 -64q-16 -33 -38 -91
q-22 -57 -22 -77t57 -20h221q35 0 45 7t25 42q44 103 142 203t251 100h12q74 -2 114 -42t39 -98t-40 -100q-39 -43 -74 -43q-76 0 -75 76q0 33 18 57q13 27 35 35t27 12t6 25q-2 12 -19 12h-8q-59 -2 -99 -34q-41 -32 -57 -64q-16 -33 -38 -91q-22 -57 -21 -77q0 -20 57 -20
h217q35 0 45 7t25 42q43 103 141 203t252 100h13q73 -2 113 -42t39 -98t-40 -100q-39 -43 -74 -43q-76 0 -75 76q0 33 18 57q14 27 36 35t26 12q6 4 6 25q-2 12 -19 12h-8q-59 -2 -99 -34t-56 -64q-16 -33 -38 -91q-22 -57 -22 -77t57 -20h213q35 0 45 7t25 42
q44 103 142 203t251 100h12q74 -2 114 -42t39 -98t-40 -100q-39 -43 -74 -43q-76 0 -75 76q0 33 18 57q13 27 35 35t27 12t6 25q-2 12 -19 12h-8q-59 -2 -99 -34q-41 -32 -57 -64q-16 -33 -38 -91q-22 -57 -21 -77q0 -20 57 -20h217q35 0 45 7t25 42q43 103 141 203t252 100
h13q73 -2 113 -42t39 -98t-40 -100q-39 -43 -74 -43q-76 0 -75 76q0 33 18 57q14 27 36 35t26 12q6 4 6 25q-2 12 -19 12h-8q-59 -2 -99 -34t-56 -64q-16 -33 -38 -91q-22 -59 -22 -75t12 -19t52 -3h69q27 0 32 -6t5 -38q0 -34 -5 -40t-34 -7h-84q-51 0 -63 -6
q-23 -12 -80 -164l-43 -118q-48 -131 -82 -208q-90 -200 -213 -280q-86 -57 -168 -57q-74 0 -122 49q-28 29 -28 85t31 94t68 38q100 0 100 -96q0 -31 -22 -57q-39 -25 -54 -29l4 -2l27 -4q27 0 57 24q59 51 90 127q8 20 83 293t75 292t-35 19h-182q-51 0 -63 -6
q-23 -12 -80 -164l-43 -118q-48 -131 -82 -208q-90 -200 -213 -280q-86 -57 -168 -57q-73 0 -121 49q-28 29 -29 85q0 56 31 94t68 38q100 0 100 -96q0 -31 -23 -57q-39 -25 -53 -29l4 -2l27 -4q26 0 57 24q59 51 90 127q8 20 83 293t75 292t-35 19h-178q-51 0 -63 -6
q-23 -12 -80 -164l-43 -118q-48 -131 -82 -208q-90 -200 -213 -280q-86 -57 -168 -57q-74 0 -122 49q-28 29 -28 85t31 94t68 38q100 0 100 -96q0 -31 -22 -57q-39 -25 -54 -29l4 -2l27 -4q27 0 57 24q59 51 90 127q8 20 83 293t75 292t-35 19h-182q-51 0 -63 -6
q-23 -12 -80 -164l-43 -118q-48 -131 -82 -208q-90 -200 -213 -280q-86 -57 -168 -57q-73 0 -121 49q-28 29 -29 85q0 56 31 94t68 38q100 0 100 -96q0 -31 -23 -57q-39 -25 -53 -29l4 -2l27 -4q26 0 57 24q59 51 90 127q8 20 83 293t75 292t-35 19h-186q-51 0 -63 -6
q-22 -11 -80 -164l-43 -118q-48 -131 -82 -208q-90 -200 -213 -280q-86 -57 -168 -57q-74 0 -122 49q-28 29 -28 85t31 94t68 38q100 0 100 -96q0 -31 -23 -57q-39 -25 -53 -29l4 -2l27 -4q26 0 57 24q59 51 90 127q8 20 83 293t75 292t-35 19h-180q-52 0 -64 -6
q-22 -11 -79 -164l-43 -118q-45 -125 -81 -205q-92 -203 -214 -283q-86 -57 -168 -57q-73 0 -121 49q-28 29 -29 85q0 56 31 94t68 38q100 0 100 -96q0 -31 -23 -57q-39 -25 -53 -29l4 -2l27 -4q25 0 57 24q59 51 90 127q8 20 83 293t75 292z" />
    <glyph glyph-name="uniE534" unicode="&#xe522;&#xe520;" horiz-adv-x="1353" 
d="M1128 498q-32 0 -78 -49t-88 -140t-42 -156t28 -81q4 -2 15 -2q33 0 79 51t88 139t42 156t-27 80q-6 2 -17 2zM840 567q74 0 110 -71l4 -7q19 -42 37 -14q27 33 93 66t128 33t102 -55q40 -54 40 -158t-72 -197q-22 -31 -58 -71q-81 -91 -192 -91h-8q-82 0 -129 35
q-25 25 -33 24q-12 0 -22 -32q-92 -225 -92 -237q0 -13 24 -13h66q27 0 26 -25q0 -29 -30 -28h-424q-33 0 -33 26t33 27h92q29 0 37 20l262 604q8 25 8 55t-23 29q-16 0 -36 -11t-56 -60q-37 -49 -59 -90l-25 -41q-10 -25 -28 -25q-6 0 -14 5t-9 20l10 24q65 112 132 181
t106 75q10 2 33 2zM168 470q0 19 -35 19h-70q-27 1 -31 7t-5 38q0 32 9 38t46 8h96q35 0 45 7t25 42q44 103 142 203t251 100h12q74 -2 114 -42t39 -98t-40 -100q-39 -43 -74 -43q-76 0 -76 76q0 33 19 57q13 27 35 35t27 12t5 25q-2 12 -18 12h-8q-59 -2 -99 -34
q-41 -32 -57 -64q-16 -33 -38 -91q-22 -59 -21 -75q0 -16 12 -19t51 -3h70q29 0 33 -6t4 -38q0 -34 -5 -40t-34 -7h-84q-52 0 -64 -6q-22 -11 -79 -164l-43 -118q-45 -125 -81 -205q-92 -203 -214 -283q-86 -57 -168 -57q-73 0 -121 49q-28 29 -29 85q0 56 31 94t68 38
q100 0 100 -96q0 -31 -23 -57q-39 -25 -53 -29l4 -2l27 -4q25 0 57 24q59 51 90 127q8 20 83 293t75 292z" />
    <glyph glyph-name="uniE535" unicode="&#xe522;&#xe525;" horiz-adv-x="1105" 
d="M811 -10q-33 0 -90 28t-73 27q-16 1 -42 -23q-27 -24 -45 -24t-22 5t-4 15v11q0 14 18 30l371 375q0 20 -78 21h-76q-20 1 -59 -61t-57 -62t-19 20l2 21q0 39 39 106q6 16 13 49t28 33h10l178 -20q27 0 79 16t74 16t34 -15q14 -14 14 -30t-27 -34l-309 -293
q-8 -5 -19 -21t-12 -28q1 -8 15 -8t42 1q28 0 63 -20q36 -20 40 -23l16 -2q27 0 27 29t-16 36q-16 6 -35 9q-33 4 -33 36t21 44q14 14 39 14q83 -7 86 -100q0 -68 -52 -123t-141 -55zM168 470q0 19 -35 19h-70q-27 1 -31 7t-5 38q0 32 9 38t46 8h96q35 0 45 7t25 42
q44 103 142 203t251 100h12q74 -2 114 -42t39 -98t-40 -100q-39 -43 -74 -43q-76 0 -76 76q0 33 19 57q13 27 35 35t27 12t5 25q-2 12 -18 12h-8q-59 -2 -99 -34q-41 -32 -57 -64q-16 -33 -38 -91q-22 -59 -21 -75q0 -16 12 -19t51 -3h70q29 0 33 -6t4 -38q0 -34 -5 -40
t-34 -7h-84q-52 0 -64 -6q-22 -11 -79 -164l-43 -118q-45 -125 -81 -205q-92 -203 -214 -283q-86 -57 -168 -57q-73 0 -121 49q-28 29 -29 85q0 56 31 94t68 38q100 0 100 -96q0 -31 -23 -57q-39 -25 -53 -29l4 -2l27 -4q25 0 57 24q59 51 90 127q8 20 83 293t75 292z" />
    <glyph glyph-name="uniE536" unicode="&#xe524;&#xe522;" horiz-adv-x="1259" 
d="M618 470q0 19 -34 19h-70q-29 1 -33 7t-4 38t9 38t46 8h97q35 0 45 7t24 42q44 103 142 203t252 100h12q74 -2 114 -42t38 -98t-40 -100q-38 -43 -73 -43q-76 0 -76 76q0 33 18 57q13 27 35 35t28 12t5 25q-2 12 -18 12h-9q-59 -2 -99 -34t-56 -64q-15 -33 -37 -91
q-22 -59 -22 -75t12 -19t51 -3h69q29 0 33 -6t4 -38q0 -34 -5 -40t-34 -7h-84q-53 0 -64 -6q-23 -12 -79 -164l-43 -118q-50 -139 -83 -212q-88 -196 -212 -276q-86 -57 -168 -57q-72 0 -111 39q-38 39 -38 95t31 94t68 38q99 0 99 -96q0 -31 -22 -57q-39 -25 -53 -29l4 -2
l26 -4q26 0 58 24q59 51 90 127q9 20 83 293t74 292zM0 145q14 91 72 91q27 0 47 -18t20 -38q0 -22 -13 -49t-13 -31q6 -37 56 -37t85 24t37 52v8q-1 31 -17 53t-33 30t-59 26q-42 16 -74 57t-32 83q0 93 84 150t176 29q47 -16 83 -48t36 -72t-29 -60q-20 -18 -44 -18t-36 8
q-39 25 -39 66l10 30l-2 6q-25 25 -65 25q-66 0 -74 -49v-14q0 -43 39 -66q16 -13 51 -27q143 -59 146 -163q0 -43 -21 -80q-45 -74 -127 -97h-2q-32 -16 -92 -16t-114 47q-56 47 -56 98z" />
    <glyph glyph-name="uniE537" unicode="&#xe524;&#xe522;&#xe520;" horiz-adv-x="1775" 
d="M1384 70q33 0 80 51t88 139q42 88 42 156t-27 80q-6 2 -17 2q-33 0 -79 -49q-45 -49 -87 -140t-42 -165t42 -74zM1262 567q74 0 110 -71l4 -7q19 -42 37 -14q27 33 93 66t128 33t102 -55q40 -54 40 -158t-72 -197q-22 -31 -58 -71q-81 -91 -192 -91h-8q-82 0 -129 35
q-25 25 -33 24q-12 0 -22 -32q-91 -222 -92 -236t24 -14h66q27 0 26 -25q0 -29 -31 -28h-424q-33 0 -32 26q0 27 32 27h93q29 0 37 20l262 604q8 25 8 55t-23 29q-16 0 -36 -11t-56 -60q-37 -49 -59 -90l-25 -41q-10 -25 -28 -25q-6 0 -14 5t-9 20l10 24q65 112 132 181
t106 75q10 2 33 2zM618 470q0 19 -34 19h-70q-29 1 -33 7t-4 38t9 38t46 8h97q35 0 45 7t24 42q44 103 142 203t252 100h12q74 -2 114 -42t38 -98t-40 -100q-38 -43 -73 -43q-76 0 -76 76q0 33 18 57q13 27 35 35t28 12t5 25q-2 12 -18 12h-9q-59 -2 -99 -34t-56 -64
q-15 -33 -37 -91q-22 -59 -22 -75t12 -19t51 -3h69q29 0 33 -6t4 -38q0 -34 -5 -40t-34 -7h-84q-53 0 -64 -6q-23 -12 -79 -164l-43 -118q-50 -139 -83 -212q-88 -196 -212 -276q-86 -57 -168 -57q-72 0 -111 39q-38 39 -38 95t31 94t68 38q99 0 99 -96q0 -31 -22 -57
q-39 -25 -53 -29l4 -2l26 -4q26 0 58 24q59 51 90 127q9 20 83 293t74 292zM0 145q14 91 72 91q27 0 47 -18t20 -38q0 -22 -13 -49t-13 -31q6 -37 56 -37t85 24t37 52v8q-1 31 -17 53t-33 30t-59 26q-42 16 -74 57t-32 83q0 93 84 150t176 29q47 -16 83 -48t36 -72t-29 -60
q-20 -18 -44 -18t-36 8q-39 25 -39 66l10 30l-2 6q-25 25 -65 25q-66 0 -74 -49v-14q0 -43 39 -66q16 -13 51 -27q143 -59 146 -163q0 -43 -21 -80q-45 -74 -127 -97h-2q-32 -16 -92 -16t-114 47q-56 47 -56 98z" />
    <glyph glyph-name="uniE538" unicode="&#xe524;&#xe522;&#xe520;&#xe520;" horiz-adv-x="2551" 
d="M2512 519q40 -54 40 -158t-72 -197q-22 -31 -58 -71q-81 -91 -192 -91h-8q-82 0 -129 35q-25 25 -33 24q-12 0 -22 -32q-92 -225 -92 -237q0 -13 24 -13h66q27 0 26 -25q0 -29 -30 -28h-424q-33 0 -33 26t33 27h92q29 0 37 20l262 604q8 25 8 55t-22 29q-16 0 -36 -11
t-57 -60t-61 -90l-23 -41q-2 -4 -6 -11t-10 -31t-10 -24q-21 -44 -98 -130q-77 -87 -187 -87h-8q-82 0 -129 35q-25 25 -33 24q-12 0 -22 -32q-91 -222 -92 -236t24 -14h66q27 0 26 -25q0 -29 -31 -28h-424q-33 0 -32 26q0 27 32 27h93q29 0 37 20l262 604q8 25 8 55t-23 29
q-15 0 -35 -11t-57 -60t-61 -90l-23 -41q-10 -25 -28 -25q-7 0 -15 5t-8 20l10 24q65 112 132 181t106 75q10 2 33 2q76 0 110 -71l4 -7q19 -42 37 -14q26 33 92 66t128 33t96 -48q43 -55 47 -135q115 164 186 174q10 2 33 2q75 1 110 -71l4 -7q19 -42 37 -14q27 33 92 66
q157 78 231 -22zM1427 70q33 0 80 51t88 139t41 156t-26 80q-6 2 -17 2q-33 0 -79 -49t-88 -140t-42 -165t43 -74zM2327 498q-33 0 -79 -49t-88 -140t-42 -156t28 -81q4 -2 15 -2q33 0 80 51q46 51 87 139q42 88 42 156t-27 80q-6 2 -16 2zM639 470q0 19 -35 19h-69
q-27 1 -32 7t-5 38t9 38t46 8h96q35 0 45 7t25 42q43 103 141 203t252 100h12q74 -2 114 -42t39 -98t-40 -100q-39 -43 -74 -43q-76 0 -76 76q0 33 19 57q14 27 36 35t26 12q5 4 6 25q-3 12 -19 12h-8q-59 -2 -99 -34t-56 -64q-16 -33 -38 -91q-22 -59 -22 -75t12 -19t51 -3
h70q29 0 33 -6t4 -38q0 -34 -5 -40t-34 -7h-84q-53 0 -65 -6q-22 -11 -78 -164l-43 -118q-48 -131 -82 -208q-90 -200 -213 -280q-86 -57 -168 -57q-74 0 -122 49q-28 29 -28 85t31 94t68 38q100 0 100 -96q0 -31 -23 -57q-39 -25 -53 -29l4 -2l27 -4q26 0 57 24
q59 51 90 127q8 20 83 293t75 292zM76 236q23 0 43 -18t20 -38q0 -22 -13 -49t-13 -31q6 -37 56 -37t85 24t37 52v8q-1 31 -17 53t-33 30t-59 26q-42 16 -74 57t-32 83t18 80t69 72q50 34 98 35q92 2 143 -43t51 -85t-29 -60q-20 -18 -44 -18t-36 8q-39 25 -39 66l10 30
l-2 6q-25 25 -65 25q-66 0 -74 -49v-14q0 -43 39 -66q16 -13 51 -27q143 -59 146 -163q0 -43 -21 -80q-45 -74 -127 -97h-2q-32 -16 -92 -16t-114 47q-56 47 -56 98q14 91 76 91z" />
    <glyph glyph-name="uniE539" unicode="&#xe524;&#xe522;&#xe525;" horiz-adv-x="1536" 
d="M1241 -10q-33 0 -90 28t-73 27q-16 1 -42 -23q-27 -24 -45 -24t-22 5t-4 15v11q0 14 18 30l371 375q0 20 -78 21h-76q-20 1 -59 -61t-57 -62t-19 20l2 21q0 39 39 106q6 16 13 49t28 33h10l178 -20q27 0 79 16t74 16t34 -15q14 -14 14 -30t-27 -34l-309 -293
q-8 -5 -19 -21t-12 -28q1 -8 15 -8t28 1q60 0 117 -43l17 -2q26 0 26 29t-16 36q-16 6 -35 9q-33 4 -33 36t21 44q14 14 39 14q83 -7 86 -100q0 -68 -52 -123t-141 -55zM618 470q0 19 -34 19h-70q-29 1 -33 7t-4 38t9 38t46 8h97q35 0 45 7t24 42q44 103 142 203t252 100h12
q74 -2 114 -42t38 -98t-40 -100q-38 -43 -73 -43q-76 0 -76 76q0 33 18 57q13 27 35 35t28 12t5 25q-2 12 -18 12h-9q-59 -2 -99 -34t-56 -64q-15 -33 -37 -91q-22 -59 -22 -75t12 -19t51 -3h69q29 0 33 -6t4 -38q0 -34 -5 -40t-34 -7h-84q-53 0 -64 -6q-23 -12 -79 -164
l-43 -118q-50 -139 -83 -212q-88 -196 -212 -276q-86 -57 -168 -57q-72 0 -111 39q-38 39 -38 95t31 94t68 38q99 0 99 -96q0 -31 -22 -57q-39 -25 -53 -29l4 -2l26 -4q26 0 58 24q59 51 90 127q9 20 83 293t74 292zM0 145q14 91 72 91q27 0 47 -18t20 -38q0 -22 -13 -49
t-13 -31q6 -37 56 -37t85 24t37 52v8q-1 31 -17 53t-33 30t-59 26q-42 16 -74 57t-32 83q0 93 84 150t176 29q47 -16 83 -48t36 -72t-29 -60q-20 -18 -44 -18t-36 8q-39 25 -39 66l10 30l-2 6q-25 25 -65 25q-66 0 -74 -49v-14q0 -43 39 -66q16 -13 51 -27q143 -59 146 -163
q0 -43 -21 -80q-45 -74 -127 -97h-2q-32 -16 -92 -16t-114 47q-56 47 -56 98z" />
    <glyph glyph-name="uniE53A" unicode="&#xe524;&#xe522;&#xe525;&#xe520;" horiz-adv-x="2248" 
d="M2023 498q-33 0 -79 -49t-87 -140q-42 -91 -42 -156t28 -81q4 -2 15 -2q34 0 80 51t87 139t41 156t-26 80q-6 2 -17 2zM1735 567q76 0 110 -71l4 -7q19 -42 37 -14q26 33 92 66t128 33t103 -55q40 -54 40 -158t-72 -197q-23 -31 -59 -71q-81 -91 -191 -91h-8
q-82 0 -129 35q-25 25 -33 24q-12 0 -22 -32q-91 -222 -92 -236t24 -14h66q27 0 26 -25q0 -29 -30 -28h-424q-33 0 -33 26t33 27h92q29 0 37 20l262 604q8 25 8 55t-23 29q-15 0 -35 -11t-57 -60t-61 -90l-23 -41q-10 -25 -28 -25q-7 0 -15 5t-8 20l10 24q65 112 132 181
t106 75q10 2 33 2zM1241 -10q-33 0 -90 28t-73 27q-16 1 -42 -23q-27 -24 -45 -24t-22 5t-4 15v11q0 14 18 30l371 375q0 20 -78 21h-76q-20 1 -59 -61t-57 -62t-19 20l2 21q0 39 39 106q6 16 13 49t28 33h10l178 -20q27 0 79 16t74 16t34 -15q14 -14 14 -30t-27 -34
l-309 -293q-8 -5 -19 -21t-12 -28q1 -8 15 -8t28 1q60 0 117 -43l17 -2q26 0 26 29t-16 36q-16 6 -35 9q-33 4 -33 36t21 44q14 14 39 14q83 -7 86 -100q0 -68 -52 -123t-141 -55zM618 470q0 19 -34 19h-70q-29 1 -33 7t-4 38t9 38t46 8h97q35 0 45 7t24 42q44 103 142 203
t252 100h12q74 -2 114 -42t38 -98t-40 -100q-38 -43 -73 -43q-76 0 -76 76q0 33 18 57q13 27 35 35t28 12t5 25q-2 12 -18 12h-9q-59 -2 -99 -34t-56 -64q-15 -33 -37 -91q-22 -59 -22 -75t12 -19t51 -3h69q29 0 33 -6t4 -38q0 -34 -5 -40t-34 -7h-84q-53 0 -64 -6
q-23 -12 -79 -164l-43 -118q-50 -139 -83 -212q-88 -196 -212 -276q-86 -57 -168 -57q-72 0 -111 39q-38 39 -38 95t31 94t68 38q99 0 99 -96q0 -31 -22 -57q-39 -25 -53 -29l4 -2l26 -4q26 0 58 24q59 51 90 127q9 20 83 293t74 292zM0 145q14 91 72 91q27 0 47 -18t20 -38
q0 -22 -13 -49t-13 -31q6 -37 56 -37t85 24t37 52v8q-1 31 -17 53t-33 30t-59 26q-42 16 -74 57t-32 83q0 93 84 150t176 29q47 -16 83 -48t36 -72t-29 -60q-20 -18 -44 -18t-36 8q-39 25 -39 66l10 30l-2 6q-25 25 -65 25q-66 0 -74 -49v-14q0 -43 39 -66q16 -13 51 -27
q143 -59 146 -163q0 -43 -21 -80q-45 -74 -127 -97h-2q-32 -16 -92 -16t-114 47q-56 47 -56 98z" />
    <glyph glyph-name="uniE53B" unicode="&#xe524;&#xe522;&#xe522;&#xe525;" horiz-adv-x="2109" 
d="M1720 561h11l178 -20q27 0 79 16t73 16t35 -15q14 -14 13 -30q0 -16 -26 -34l-309 -293q-8 -5 -20 -21t-11 -26q0 -10 14 -10t44 1q30 0 102 -43l16 -2q27 0 27 29t-17 36t-35 9q-32 4 -32 36t20 44q14 14 39 14q86 -7 86 -100q0 -68 -51 -123t-141 -55q-33 0 -91 28
t-72 27q-15 1 -42 -23t-45 -24t-23 5q-4 5 -4 15v11q0 14 18 30l371 375q0 20 -78 21h-75q-20 1 -60 -61t-57 -62q-18 0 -19 20l2 21q0 39 39 106q6 16 13 49q8 33 28 33zM618 470q0 19 -34 19h-70q-29 1 -33 7t-4 38t9 38t46 8h97q35 0 45 7t24 42q44 103 142 203t252 100
h12q74 -2 114 -42t38 -98t-40 -100q-38 -43 -73 -43q-76 0 -76 76q0 33 18 57q13 27 35 35t28 12t5 25q-2 12 -18 12h-9q-59 -2 -99 -34t-56 -64q-15 -33 -37 -91q-22 -59 -22 -75t12 -19t51 -3h211q35 0 45 7t24 42q43 103 141 203t253 100h12q74 -2 114 -42t39 -98
t-40 -100q-39 -43 -74 -43q-76 0 -76 76q0 33 18 57q14 27 36 35t26 12q6 4 6 25q-2 12 -18 12h-9q-59 -2 -99 -34t-56 -64q-16 -33 -38 -91q-22 -59 -22 -75t12 -19t52 -3h70q28 0 32 -6t4 -38q0 -34 -5 -40t-34 -7h-83q-52 0 -64 -6q-23 -12 -80 -164l-43 -118
q-50 -139 -83 -212q-88 -196 -212 -276q-86 -57 -168 -57q-72 0 -111 39q-38 39 -38 95t31 94t68 38q101 0 99 -96q0 -31 -22 -57q-39 -25 -53 -29l4 -2l26 -4q26 0 58 24q59 51 90 127q8 20 82 289t76 297q0 18 -35 18h-183q-53 0 -64 -6q-23 -12 -79 -164l-43 -118
q-50 -139 -83 -212q-88 -196 -212 -276q-86 -57 -168 -57q-72 0 -111 39q-38 39 -38 95t31 94t68 38q99 0 99 -96q0 -31 -22 -57q-39 -25 -53 -29l4 -2l26 -4q26 0 58 24q59 51 90 127q9 20 83 293t74 292zM76 236q23 0 43 -18t20 -38q0 -22 -13 -49t-13 -31q6 -37 56 -37
t85 24t37 52v8q-1 31 -17 53t-33 30t-59 26q-42 16 -74 57t-32 83t18 80t69 72q50 34 98 35q92 2 143 -43t51 -85t-29 -60q-20 -18 -44 -18t-36 8q-39 25 -39 66l10 30l-2 6q-25 25 -65 25q-66 0 -74 -49v-14q0 -43 39 -66q16 -13 51 -27q143 -59 146 -163q0 -43 -21 -80
q-45 -74 -127 -97h-2q-32 -16 -92 -16t-114 47q-56 47 -56 98q14 91 76 91z" />
    <glyph glyph-name="uniE53C" unicode="&#xe523;&#xe522;" horiz-adv-x="1443" 
d="M770 489h-70q-28 1 -32 7t-4 38t9 38t46 8h96q35 0 45 7t25 42q43 103 141 203t252 100h12q74 -2 114 -42t39 -98t-40 -100q-39 -43 -74 -43q-76 0 -76 76q0 33 19 57q14 27 36 35t26 12q5 4 5 25q-2 12 -18 12h-8q-59 -2 -100 -33q-40 -32 -56 -65q-15 -33 -37 -91
q-22 -59 -22 -75t12 -19t51 -3h70q27 0 32 -6t5 -38q0 -34 -5 -40t-34 -7h-84q-51 0 -68 -8t-76 -162l-43 -118q-50 -139 -83 -212q-88 -196 -211 -276q-86 -57 -168 -57q-74 0 -122 49q-28 29 -28 85t31 94t68 38q100 0 100 -96q0 -31 -23 -57q-39 -25 -53 -29l4 -2l27 -4
q26 0 57 24q59 51 90 127q8 20 82 289t76 297q0 18 -35 18zM627 502q0 -30 -4 -48q-4 -20 -36 -47t-81 -4q-37 20 -37 58q-16 33 -33 33q-49 0 -78 -60l-188 -411q-8 -23 -31 -23h-114q-25 0 -25 11t18 49t42 94t53 127q29 73 53 121t22 79q0 31 -19 31q-35 0 -88 -76
q-22 -31 -24 -33l-47 -77q-6 -12 -14 -12q-22 -1 -23 20q0 20 19 39q87 145 149 180t109 22q61 -12 72 -79q2 -10 11 -10t9 10q114 89 169 91q56 1 86 -27t30 -58z" />
    <glyph glyph-name="uniE53D" unicode="&#xe523;&#xe522;&#xe525;" horiz-adv-x="1751" 
d="M1456 -10q-31 0 -90 28q-60 28 -74 27q-14 1 -41 -23t-45 -24t-22 5t-4 15v11q0 14 18 30l371 375q0 20 -78 21h-76q-20 1 -59 -61q-40 -62 -58 -62t-18 20l2 21q0 39 39 106q6 16 13 49t28 33h10l178 -20q27 0 79 16q51 16 73 16t36 -15q14 -14 13 -30q0 -16 -27 -34
l-309 -293q-8 -5 -19 -21t-12 -28q0 -8 14 -8t29 1q60 0 117 -43l17 -2q27 0 27 29t-16 35q-15 6 -36 10q-33 4 -33 36t21 44q14 14 39 14q83 -7 86 -100q1 -68 -51 -123t-142 -55zM770 489h-70q-28 1 -32 7t-4 38t9 38t46 8h96q35 0 45 7t25 42q43 103 141 203t252 100h12
q74 -2 114 -42t39 -98t-40 -100q-39 -43 -74 -43q-76 0 -76 76q0 33 19 57q14 27 36 35t26 12q5 4 5 25q-2 12 -18 12h-8q-59 -2 -100 -33q-40 -32 -56 -65q-15 -33 -37 -91q-22 -59 -22 -75t12 -19t51 -3h70q27 0 32 -6t5 -38q0 -34 -5 -40t-34 -7h-84q-51 0 -68 -8
t-76 -162l-43 -118q-50 -139 -83 -212q-88 -196 -211 -276q-86 -57 -168 -57q-74 0 -122 49q-28 29 -28 85t31 94t68 38q100 0 100 -96q0 -31 -23 -57q-39 -25 -53 -29l4 -2l27 -4q26 0 57 24q59 51 90 127q8 20 82 289t76 297q0 18 -35 18zM627 502q0 -30 -4 -48
q-4 -20 -36 -47t-81 -4q-37 20 -37 58q-16 33 -33 33q-49 0 -78 -60l-188 -411q-8 -23 -31 -23h-114q-25 0 -25 11t18 49t42 94t53 127q29 73 53 121t22 79q0 31 -19 31q-35 0 -88 -76q-22 -31 -24 -33l-47 -77q-6 -12 -14 -12q-22 -1 -23 20q0 20 19 39q87 145 149 180
t109 22q61 -12 72 -79q2 -10 11 -10t9 10q114 89 169 91q56 1 86 -27t30 -58z" />
    <glyph glyph-name="uniE062_uniE885" unicode="&#xe062;&#xe885;" horiz-adv-x="1482" 
d="M606 -1167q0 -106 -180 -107q-35 0 -76 8t-43 9q-16 0 -26 -29l-25 -88q-2 -6 -2 -11t6 -6q4 1 34 17t58 16q222 0 221 -180q0 -25 -6 -55q-43 -221 -260 -222q-76 0 -121 33t-54 64q-9 32 -9 64q1 32 25 54t57 21q32 -5 53 -23q36 -32 14 -75q-4 -15 -21 -29
q-24 -20 -13 -48t61 -28q84 0 117 185q8 41 8 77q0 104 -74 105q-31 0 -74 -22t-61 -37t-35 -15q-23 0 -22 21l73 276l-12 -6q-164 -74 -213 -74t-49 18t41 44q10 6 131 72t178 108q317 242 402 502q74 221 73 444q0 332 -125 473q-74 80 -192 80q-27 0 -77 -14
q-50 -15 -89 -35t-82 -64t-70 -104q-2 -4 -2 -12q0 -45 52 -45h12q12 2 45 2q88 0 154 -47q66 -46 66 -154t-53 -164q-52 -56 -145 -57h-10q-94 -1 -169 75t-91 209q-2 10 -2 29q0 156 144 302t360 147h10q34 0 133 -23t186 -82q87 -60 135 -118t81 -151t34 -206v-12
q-1 -328 -205 -619t-538 -465q61 -6 113 -6l135 12q16 0 16 -16q0 -2 -2 -6v-12zM1165 249q0 45 34 79t80 34t80 -32t34 -80q0 -47 -34 -81t-81 -34t-80 34t-33 80zM1278 -137q47 0 81 -34t34 -81t-34 -81t-80 -34t-80 34t-34 81t33 81t80 34z" />
    <glyph glyph-name="uniE058_uniE880" unicode="&#xe058;&#xe880;" 
d="M864 516q206 0 352 -146t146 -340t-109 -331t-292 -197l36 -303q7 -55 7 -141t-37 -177q-61 -149 -222 -204q-61 -20 -113 -20t-65 24q-57 -23 -128 -23t-115 68q-44 66 -45 140q0 74 16 137q45 166 128 253t172 87t142 -71t54 -177q0 -45 -13 -94q-51 -197 -133 -271
q77 4 158 63q47 34 84 130t16 272l-29 285h-10q-25 -2 -106 -2q-209 0 -393 92q-104 51 -183 128q-78 77 -128 199t-54 273v25q0 149 78 326q54 119 178 256q125 136 430 376l-14 129q-6 68 -6 135q0 303 104 533t268 293q32 -16 75 -72q42 -55 69 -131q68 -190 67 -361
q0 -296 -206 -549q-75 -92 -117 -135t-131 -133q33 -264 41 -346h28zM741 1356q0 -32 3 -57t10 -93q348 240 401 494q6 31 6 55q0 76 -39 119t-92 43q-115 -3 -202 -195t-87 -366zM156 29q0 -131 64 -230q65 -98 164 -148q198 -100 386 -100q57 0 94 11l-73 661
q-256 -33 -256 -237q0 -119 122 -213q16 -23 17 -37q0 -12 -16 -12t-37 8q-76 29 -133 104q-80 109 -80 251t99 260t251 155l-37 321q-403 -269 -515 -539q-48 -116 -50 -241v-14zM443 -1284q80 0 113 99q20 61 52 155l10 26q54 152 54 207t-49 55t-70 -22q-19 -24 -29 -38
t-20 -46q-10 -33 -21 -65t-23 -91q-13 -59 -37 -134t-26 -103q0 -43 46 -43zM1190 -98q0 131 -93 227t-223 100q33 -313 78 -645q238 86 238 318z" />
    <glyph glyph-name="uniE058_uniE881_uniE880" unicode="&#xe058;&#xe881;&#xe880;" 
d="M252 -1292q16 0 16 -25q-8 -27 -30 -26h-252q-23 0 -23 28q6 27 30 27t44 13t26 36l105 344q0 14 -10 14t-23 -12l-63 -68q-8 -12 -26 -12t-17 15l12 24l160 248q13 20 33 19t49 -1l45 2h12q20 0 20 -16q0 -8 -2 -12l-149 -549l-2 -8q0 -13 14 -27q15 -14 31 -14z
M1362 30q0 -192 -109 -329t-292 -197l36 -303q6 -55 7 -102q0 -219 -119 -338q-47 -47 -135 -76t-194 -29t-172 62q-66 61 -67 172q0 53 19 121q45 166 128 253t172 87t142 -71t53 -177q0 -45 -12 -94q-51 -199 -133 -273q223 43 223 359q0 45 -6 100l-29 285h-10
q-25 -2 -106 -2q-209 0 -393 92q-104 51 -183 128q-78 77 -128 199t-54 273v25q0 149 78 326q54 119 178 256q125 136 430 376l-14 129q-6 68 -6 135q0 303 104 533t268 293q32 -16 75 -72q42 -55 69 -131q68 -190 67 -361q0 -296 -206 -549q-75 -92 -117 -135t-131 -133
q33 -264 41 -346h28q207 0 353 -146q145 -148 145 -340zM741 1356q0 -32 3 -57t10 -93q348 240 401 494q6 31 6 55q0 76 -39 119t-92 43q-115 -3 -202 -195t-87 -366zM156 29q0 -131 64 -230q65 -98 164 -148q198 -100 386 -100q57 0 94 11l-73 661q-256 -33 -256 -237
q0 -119 122 -213q16 -23 17 -37q0 -12 -16 -12t-37 8q-76 29 -133 104q-80 109 -80 251t99 260t251 155l-37 321q-403 -269 -515 -539q-48 -116 -50 -241v-14zM1190 -98q0 131 -93 227t-223 100q33 -313 78 -645q238 86 238 318zM659 -737q-49 -1 -68 -23t-37 -48t-41 -108
t-44 -142t-21 -133t54 -73q42 0 58 18q17 18 31 32q14 15 40 91q26 77 57 162q30 85 30 155t-59 69z" />
    <glyph glyph-name="uniE058_uniE881_uniE881" unicode="&#xe058;&#xe881;&#xe881;" 
d="M381 -668q20 0 20 -16q0 -8 -2 -12l-149 -549v-4l-2 -4q0 -13 14 -27t30 -14t17 -25q-8 -27 -30 -27h-252q-23 0 -23 29q6 27 30 27t44 13t26 36l105 344q0 14 -10 14t-23 -12l-63 -68q-7 -12 -25 -12t-18 14l12 25l160 248q12 20 32 19t50 -1l45 2h12zM741 1356
q0 -32 3 -57t10 -93q348 240 401 494q6 31 6 55q0 76 -39 119t-92 43q-115 -3 -202 -195t-87 -366zM156 29q0 -131 64 -230q65 -98 164 -148q198 -100 386 -100q57 0 94 11l-73 661q-256 -33 -256 -237q0 -119 122 -213q16 -23 17 -37q0 -12 -16 -12t-37 8q-76 29 -133 104
q-80 109 -80 251t99 260t251 155l-37 321q-403 -269 -515 -539q-48 -116 -50 -241v-14zM1190 -98q0 131 -93 227t-223 100q33 -313 78 -645q238 86 238 318zM733 -668q21 0 21 -12t-2 -16l-154 -561q0 -22 78 -12q24 3 70 23t79 57q33 36 65 127t13 255l-29 285h-10
q-25 -2 -106 -2q-209 0 -393 92q-104 51 -183 128q-78 77 -128 199t-54 273v25q0 149 78 326q54 119 178 256q125 136 430 376l-14 129q-6 68 -6 135q0 303 104 533t268 293q32 -16 75 -72q42 -55 69 -131q68 -190 67 -361q0 -296 -206 -549q-75 -92 -117 -135t-131 -133
q33 -264 41 -346h28q206 0 352 -146t146 -340t-109 -331t-292 -197l36 -303q7 -55 7 -141t-37 -177q-61 -149 -222 -204q-61 -20 -124 -21h-236q-27 0 -27 33q2 13 14 21t17 8q59 0 70 41l104 346q0 14 -10 14t-23 -12l-63 -68q-7 -12 -25 -12t-18 14l12 25l158 248
q12 20 32 19t50 -1l45 2h12z" />
    <glyph glyph-name="uniE058_uniE881_uniE882" unicode="&#xe058;&#xe881;&#xe882;" 
d="M252 -1294q16 0 16 -25q-8 -27 -30 -27h-252q-23 0 -23 29q6 27 30 27t44 13t26 36l105 344q0 14 -10 14t-23 -12l-63 -68q-8 -12 -26 -12t-17 14l12 25l156 227q12 19 32 19h50l43 2h10q20 0 20 -17l-145 -546q0 -15 14 -29q15 -14 31 -14zM565 -1151q53 0 69 -11
t38 -32q21 -21 43 -23q55 0 102 21q92 92 92 291q0 45 -6 100l-29 285h-10q-25 -2 -106 -2q-209 0 -393 92q-104 51 -183 128q-78 77 -128 199t-54 273v25q0 149 78 326q54 119 178 256q125 136 430 376l-14 129q-6 68 -6 135q0 303 104 533t268 293q32 -16 75 -72
q42 -55 69 -131q68 -190 67 -361q0 -296 -206 -549q-75 -92 -117 -135t-131 -133q33 -264 41 -346h28q206 0 352 -146t146 -340t-109 -331t-292 -197l36 -303q7 -55 7 -141t-37 -177q-61 -149 -222 -204q-61 -20 -124 -20h-15q-25 1 -86 41t-87 40q-25 0 -57 -22t-32 -43
q-10 -14 -20 -14q-23 -1 -21 37q4 83 61 148t118 115t77 64q82 74 90 121q2 8 2 27q0 92 -71 92q-57 0 -74 -56q-2 -4 -2 -11t13 -26t13 -44v-13q-4 -39 -22 -50t-45 -11q-57 0 -72 57q-2 8 -2 42t36 83q73 100 193 98q80 0 136 -43t57 -120l-2 -25q-4 -82 -82 -137
t-122 -65t-86 -44q-42 -33 -64 -86q57 37 110 37zM741 1356q0 -32 3 -57t10 -93q348 240 401 494q6 31 6 55q0 76 -39 119t-92 43q-115 -3 -202 -195t-87 -366zM156 29q0 -131 64 -230q65 -98 164 -148q198 -100 386 -100q57 0 94 11l-73 661q-256 -33 -256 -237
q0 -119 122 -213q16 -23 17 -37q0 -12 -16 -12t-37 8q-76 29 -133 104q-80 109 -80 251t99 260t251 155l-37 321q-403 -269 -515 -539q-48 -116 -50 -241v-14zM1190 -98q0 131 -93 227t-223 100q33 -313 78 -645q238 86 238 318z" />
    <glyph glyph-name="uniE058_uniE881_uniE883" unicode="&#xe058;&#xe881;&#xe883;" 
d="M381 -668q20 0 20 -16q0 -8 -2 -12l-149 -549v-4l-2 -4q0 -13 14 -27t30 -14t17 -25q-8 -27 -30 -27h-252q-23 0 -23 29q6 27 30 27t44 13t26 36l105 344q0 14 -10 14t-23 -12l-63 -68q-7 -12 -25 -12t-18 14l12 25l160 248q12 20 32 19t50 -1l45 2h12zM741 1356
q0 -32 3 -57t10 -93q348 240 401 494q6 31 6 55q0 76 -39 119t-92 43q-115 -3 -202 -195t-87 -366zM156 29q0 -131 64 -230q65 -98 164 -148q198 -100 386 -100q57 0 94 11l-73 661q-256 -33 -256 -237q0 -119 122 -213q16 -23 17 -37q0 -12 -16 -12t-37 8q-76 29 -133 104
q-80 109 -80 251t99 260t251 155l-37 321q-403 -269 -515 -539q-48 -116 -50 -241v-14zM1190 -98q0 131 -93 227t-223 100q33 -313 78 -645q238 86 238 318zM514 -870q-62 0 -74 77v9q0 55 65 94t135 39t125 -44q54 -45 53 -91t-7 -70t-35 -56t-84 -59q-14 -8 -14 -22
q0 -8 12 -8q86 -39 86 -109q-8 -111 -98 -160q37 0 92 37q139 84 139 326q0 47 -6 102l-29 285h-10q-25 -2 -106 -2q-209 0 -393 92q-104 51 -183 128q-78 77 -128 199t-54 273v25q0 149 78 326q54 119 178 256q125 136 430 376l-14 129q-6 68 -6 135q0 303 104 533t268 293
q32 -16 75 -72q42 -55 69 -131q68 -190 67 -361q0 -296 -206 -549q-75 -92 -117 -135t-131 -133q33 -264 41 -346h28q206 0 352 -146t146 -340t-109 -331t-292 -197l36 -303q7 -55 7 -141t-37 -177q-61 -149 -222 -204q-61 -20 -150 -20q-160 0 -231 78q-30 32 -30 77t29 65
q29 21 57 21t45 -18q18 -18 18 -45v-11q-4 -39 -47 -59q-6 -2 -6 -12q0 -27 66 -27q106 0 129 125q2 6 2 35q0 30 -30 64t-71 34h-8q-55 0 -55 43q0 37 63 37h39q31 0 70 26q57 38 57 114t-51 89q-5 2 -25 2t-32 -24q-4 -6 -4 -21l4 -49q0 -31 -20 -51t-50 -20z" />
    <glyph glyph-name="uniE058_uniE881_uniE884" unicode="&#xe058;&#xe881;&#xe884;" 
d="M299 -668q20 0 20 -16q0 -8 -2 -12l-149 -549v-4l-2 -4q0 -13 14 -27t30 -14t17 -25q-8 -27 -30 -27h-252q-23 0 -23 29q6 27 30 27q56 0 71 49l104 344q0 14 -10 14t-23 -12l-63 -68q-7 -12 -25 -12t-18 14l12 25l160 248q12 20 32 19t50 -1l45 2h12zM741 1356
q0 -32 3 -57t10 -93q348 240 401 494q6 31 6 55q0 76 -39 119t-92 43q-115 -3 -202 -195t-87 -366zM156 29q0 -131 64 -230q65 -98 164 -148q198 -100 386 -100q57 0 94 11l-73 661q-256 -33 -256 -237q0 -119 122 -213q16 -23 17 -37q0 -12 -16 -12t-37 8q-76 29 -133 104
q-80 109 -80 251t99 260t251 155l-37 321q-403 -269 -515 -539q-48 -116 -50 -241v-14zM1190 -98q0 131 -93 227t-223 100q33 -313 78 -645q238 86 238 318zM692 -680q0 -6 -3 -14t-61 -87t-146 -179t-144 -142h166l20 109q2 12 19 35l92 100q17 12 31 12t14 -15t-2 -22
l-45 -219h78q16 0 16 -16l-2 -10q-4 -27 -25 -27h-77l-15 -80q0 -2 -2 -6v-4q0 -29 53 -29t129 53q121 86 121 314q0 47 -6 102l-29 285h-10q-25 -2 -106 -2q-209 0 -393 92q-104 51 -183 128q-78 77 -128 199t-54 273v25q0 149 78 326q54 119 178 256q125 136 430 376
l-14 129q-6 68 -6 135q0 303 104 533t268 293q32 -16 75 -72q42 -55 69 -131q68 -190 67 -361q0 -296 -206 -549q-75 -92 -117 -135t-131 -133q33 -264 41 -346h28q206 0 352 -146t146 -340t-109 -331t-292 -197l36 -303q7 -55 7 -141t-38 -177q-62 -149 -222 -204
q-60 -20 -123 -20h-261q-20 0 -20 20v10q4 25 49 25t67 24t38 109h-234q-23 0 -22 20q0 12 10 23q207 246 237 422q4 27 37 26l78 -4l78 4q14 0 14 -16z" />
    <glyph glyph-name="uniE058_uniE881_uniE885" unicode="&#xe058;&#xe881;&#xe885;" 
d="M362 -664q20 0 20 -12t-1 -16l-150 -549l-2 -4v-4q1 -13 15 -27t30 -14t17 -25q-8 -27 -31 -26h-252q-23 0 -22 28q6 27 30 27q56 0 70 49l104 344q0 14 -10 14t-22 -12l-64 -67q-13 -19 -28 -13t-15 15l12 24l160 248q13 20 33 19t49 -1l45 2h12zM743 1360q-1 -36 3 -56
t6 -46t4 -48q348 240 401 494q6 31 6 55q0 76 -39 119t-92 43q-115 -3 -202 -195t-87 -366zM158 33q0 -131 64 -230q65 -98 164 -148q200 -101 386 -99q57 0 94 10l-73 661q-256 -33 -256 -237q0 -119 122 -213q16 -23 17 -37q0 -12 -16 -12t-37 8q-76 29 -133 104
q-80 109 -80 251t99 260t251 155l-37 321q-403 -269 -515 -539q-48 -116 -50 -241v-14zM1192 -94q0 131 -93 227t-222 100q32 -313 77 -645q238 86 238 318zM819 -674v-6l-2 -4v-6q0 -109 -182 -109q-35 0 -76 7t-43 8q-16 0 -27 -29l-22 -100q-2 -5 -2 -11t5 -6t13 4
q74 41 127 41q8 0 37 -4q156 -18 156 -170q0 -118 -70 -198q178 82 178 346q0 51 -6 108l-28 285h-11q-26 -2 -106 -2q-210 0 -393 92q-104 51 -183 128q-78 77 -128 199t-54 273v25q0 149 78 326q54 119 178 256q125 136 430 376l-14 129q-6 68 -6 135q0 303 104 533
t268 293q32 -16 75 -72q42 -55 69 -131q68 -190 67 -361q0 -296 -205 -548q-75 -91 -117 -135t-132 -134q33 -264 41 -346h28q206 0 352 -146t146 -340t-109 -331t-292 -197l36 -303q6 -55 7 -104q0 -285 -197 -393q-84 -45 -167 -45t-137 12t-104 51q-49 39 -49 85t28 69
t59 19q67 -10 69 -69q0 -37 -20 -51t-19 -26q0 -52 66 -52q80 0 110 179q8 41 8 77q0 104 -73 105q-31 0 -74 -22q-44 -22 -62 -36t-36 -16q-18 0 -19 15v8l64 313q4 20 36 21q135 -13 179 -13t135 13q16 0 16 -15z" />
    <glyph glyph-name="uniE058_uniE881_uniE886" unicode="&#xe058;&#xe881;&#xe886;" 
d="M282 -1292q16 0 17 -25q-8 -27 -31 -26h-252q-23 0 -22 28q6 27 30 27t44 13t26 36l105 344q-1 14 -11 14t-22 -12l-64 -68q-8 -12 -25 -12t-18 15l13 24l159 248q13 20 33 19t49 -1l45 2h13q20 0 20 -16q0 -8 -2 -12l-149 -549l-2 -8q0 -13 14 -27t30 -14zM752 1358
q0 -32 3 -54t5 -48t4 -48q348 240 401 494q6 31 6 55q0 76 -38 119q-40 43 -93 43q-116 -3 -202 -195t-86 -366zM166 31q0 -131 64 -230q65 -98 164 -148q200 -101 386 -99q57 0 94 10l-73 661q-256 -33 -256 -237q0 -119 123 -213q16 -23 16 -36t-15 -13t-38 8
q-76 28 -132 104q-81 109 -81 251t99 260t251 155l-37 321q-403 -269 -515 -539q-48 -116 -50 -241v-14zM963 -414q238 86 237 318q0 131 -93 227t-222 100q33 -313 78 -645zM731 -732q0 12 -17 13q-17 0 -34 -8q-121 -57 -121 -160q0 -31 23 -31q27 6 53 7q74 0 115 -46
t41 -118q0 -121 -103 -201q131 39 186 150q41 78 41 215q0 51 -6 108l-28 285h-11q-26 -2 -106 -2q-208 0 -393 92q-104 51 -183 128q-78 77 -128 199t-54 273v25q0 149 78 326q54 119 178 256q125 136 430 376l-14 129q-6 68 -6 135q0 303 104 533t268 293q32 -16 75 -72
q42 -55 69 -131q68 -190 67 -361q0 -296 -205 -548q-75 -91 -117 -135t-132 -134q33 -264 41 -346h28q206 0 352 -146t146 -340t-108 -331t-293 -197l37 -303q6 -55 6 -104q0 -229 -129 -348q-100 -90 -294 -90t-216 139q-6 37 -6 78q0 184 103 329t257 146q47 0 90 -46
t43 -104v-12q-10 -72 -82 -72q-30 0 -54 23q-24 24 -24 56t17 50h8q8 10 8 22zM461 -1198q0 -78 51 -78q41 0 81 44t58 108q11 22 11 60t-20 65t-55 27q-36 0 -71 -44q-35 -43 -45 -102t-10 -80z" />
    <glyph glyph-name="uniE058_uniE881_uniE887" unicode="&#xe058;&#xe881;&#xe887;" 
d="M346 -664q20 0 20 -12t-1 -16l-150 -549l-2 -4v-4q0 -13 14 -27q15 -14 31 -14t16 -25q-8 -27 -30 -26h-252q-23 0 -23 28q6 27 30 27q56 0 71 49l104 344q0 14 -10 14t-23 -12l-63 -67q-14 -21 -28 -14q-15 7 -15 16l12 24l160 248q13 20 33 19t49 -1l45 2h12zM748 1360
q0 -32 3 -54t5 -48t4 -48q348 240 401 494q6 31 6 55q0 76 -39 119t-92 43q-116 -3 -202 -195t-86 -366zM162 33q0 -131 64 -230q65 -98 164 -148q200 -101 386 -99q57 0 94 10l-73 661q-256 -33 -256 -237q0 -119 123 -213q16 -23 16 -36t-15 -13t-38 8q-76 28 -132 104
q-81 109 -81 251t99 260t251 155l-37 321q-403 -269 -515 -539q-48 -116 -50 -241v-14zM1196 -94q0 131 -93 227t-222 100q32 -313 77 -645q238 86 238 318zM673 -708q34 -50 66 -50t58 40q25 40 37 40q4 0 11 -7t7 -20t-20 -68q-20 -54 -30 -79q-11 -25 -57 -88l-49 -82
q-4 -4 -9 -12t-9 -13q-45 -90 -72 -217h19q122 0 198 83q33 36 65 127t13 255l-29 285h-10q-25 -2 -106 -2q-208 0 -394 92q-104 51 -182 128t-128 199t-54 273v25q0 149 78 326q52 115 181 258t427 374l-14 129q-6 68 -6 135q0 303 104 533t268 293q32 -16 75 -72
q42 -55 69 -131q68 -190 67 -360q0 -299 -206 -549q-75 -91 -117 -135t-131 -134q33 -264 41 -346h28q207 0 352 -146q146 -146 146 -340t-109 -330q-109 -138 -293 -198l37 -303q6 -55 6 -141q-1 -86 -37 -177q-60 -149 -221 -204q-61 -20 -105 -20t-74 9q-28 9 -62 9
t-52 -10q-20 -10 -26 -10q-14 0 -14 20q0 96 157 260q17 19 29 31t74 104q10 18 10 36t-4 22t-31 7t-59 29q-31 25 -59 25q-29 0 -45 -3t-50 -67q-34 -65 -40 -74t-19 -9h-4q-16 0 -17 20v4q2 4 4 15t40 120t42 117l6 4q4 23 18 23q14 1 28 -19q12 -20 23 -21t38 17t57 18
q30 2 65 -48z" />
    <glyph glyph-name="uniE059_uniE882" unicode="&#xe059;&#xe882;" 
d="M1329 2007q39 0 81 -31t60 -30q51 0 97 53q14 18 22 18q23 0 23 -18l-2 -2q0 -22 -26 -73q-57 -112 -150 -112q-20 0 -82 41t-89 41q-26 0 -58 -22t-31 -43q-10 -14 -23 -14q-19 0 -21 22v8q8 92 61 153t116 113t77 64q76 69 76 156t-74 88q-55 0 -71 -56q-2 -4 -2 -10
t12 -26t12 -46v-12q-4 -39 -22 -50t-49 -11t-44 9q-30 21 -30 74q0 54 38 101q79 98 202 97t170 -91q16 -33 16 -74l-2 -24q-4 -84 -74 -139t-108 -63t-78 -37q-40 -28 -58 -58q25 4 31 4zM1192 -96q0 131 -93 227t-222 100q32 -313 77 -645q238 86 238 318zM158 31
q0 -131 64 -230q65 -98 164 -148q200 -101 386 -99q57 0 94 10l-73 661q-256 -33 -256 -237q0 -119 122 -213q16 -23 17 -37q0 -12 -16 -12t-37 8q-76 29 -133 104q-80 109 -80 251t99 260t251 155l-37 321q-403 -269 -515 -539q-48 -116 -50 -241v-14zM1249 1679
q1 -105 -29 -209t-66 -175t-110 -163t-116 -134q-42 -44 -131 -134q33 -264 41 -346h28q206 0 352 -146t146 -340t-109 -331t-292 -197l36 -303q7 -55 7 -141t-38 -177q-94 -224 -378 -224q-96 -1 -184 31q-145 52 -186 190q-15 49 -15 104l10 92q13 70 69 115t136 45
t141 -59t61 -139t-42 -134q-54 -66 -162 -82q-18 -2 -19 -14q0 -10 17 -20q63 -55 213 -56q125 0 199 83q32 36 64 127t13 255l-28 285h-11q-26 -2 -106 -2q-210 0 -393 92q-104 51 -183 128q-78 77 -128 199t-54 273v25q0 149 78 326q54 119 178 256q125 136 430 376
l-14 129q-6 68 -6 135q0 303 104 533t268 293h9q6 2 10 2q45 0 47 -31v-14q0 -88 -33 -215q-18 -68 -41 -68q-78 -2 -146 -100q-68 -99 -106 -227q-37 -128 -37 -200q-1 -72 3 -90q4 -20 6 -46t4 -48q348 240 401 494q6 31 49 31q18 0 30 -17t13 -37z" />
    <glyph glyph-name="uniE058_uniE882" unicode="&#xe058;&#xe882;" 
d="M565 -1151q53 0 69 -11t38 -32q21 -21 43 -23q55 0 102 21q92 92 92 291q0 45 -6 100l-29 285h-10q-25 -2 -106 -2q-209 0 -393 92q-104 51 -183 128q-78 77 -128 199t-54 273v25q0 149 78 326q54 119 178 256q125 136 430 376l-14 129q-6 68 -6 135q0 303 104 533
t268 293q32 -16 75 -72q42 -55 69 -131q68 -190 67 -361q0 -296 -206 -549q-75 -92 -117 -135t-131 -133q33 -264 41 -346h28q206 0 352 -146t146 -340t-109 -331t-292 -197l36 -303q7 -55 7 -141t-37 -177q-61 -149 -222 -204q-61 -20 -124 -20h-15q-25 1 -86 41t-87 40
q-25 0 -57 -22t-32 -43q-10 -14 -20 -14q-23 -1 -21 37q4 83 61 148t118 115t77 64q82 74 90 121q2 8 2 27q0 92 -71 92q-57 0 -74 -56q-2 -4 -2 -11t13 -26t13 -44v-13q-4 -39 -22 -50t-45 -11q-57 0 -72 57q-2 8 -2 42t36 83q73 100 193 98q80 0 136 -43t57 -120l-2 -25
q-4 -82 -82 -137t-122 -65t-86 -44q-42 -33 -64 -86q57 37 110 37zM741 1356q0 -32 3 -57t10 -93q348 240 401 494q6 31 6 55q0 76 -39 119t-92 43q-115 -3 -202 -195t-87 -366zM156 29q0 -131 64 -230q65 -98 164 -148q198 -100 386 -100q57 0 94 11l-73 661
q-256 -33 -256 -237q0 -119 122 -213q16 -23 17 -37q0 -12 -16 -12t-37 8q-76 29 -133 104q-80 109 -80 251t99 260t251 155l-37 321q-403 -269 -515 -539q-48 -116 -50 -241v-14zM1190 -98q0 131 -93 227t-223 100q33 -313 78 -645q238 86 238 318z" />
    <glyph glyph-name="uniE059_uniE883" unicode="&#xe059;&#xe883;" 
d="M1249 2367q0 59 50 95q51 35 137 35q86 -1 141 -45t59 -97v-12q0 -113 -135 -178q-12 -5 -12 -15t6 -16q30 -18 52 -61q23 -44 24 -74v-10q-8 -63 -74 -119t-172 -58q-106 0 -150 48q-45 48 -45 100q0 53 32 69q32 17 63 17q49 0 55 -78q0 -31 -47 -55q-6 -4 -6 -12
q1 -9 21 -23t50 -14q61 0 103 106q8 18 8 56t-19 72t-55 34h-18q-55 0 -55 31q0 8 2 12q10 37 61 37h49q31 0 71 26q58 37 58 112t-53 91q-6 2 -20 2t-34 -18t-3 -62v-2l2 -16q0 -29 -22 -48q-21 -19 -51 -19t-49 22q-19 23 -24 55v12zM1192 -96q0 131 -93 227t-222 100
q32 -313 77 -645q238 86 238 318zM158 31q0 -131 64 -230q65 -98 164 -148q200 -101 386 -99q57 0 94 10l-73 661q-256 -33 -256 -237q0 -119 122 -213q16 -23 17 -37q0 -12 -16 -12t-37 8q-76 29 -133 104q-80 109 -80 251t99 260t251 155l-37 321q-403 -269 -515 -539
q-48 -116 -50 -241v-14zM1249 1679q1 -105 -29 -209t-66 -175t-110 -163t-116 -134q-42 -44 -131 -134q33 -264 41 -346h28q206 0 352 -146t146 -340t-109 -331t-292 -197l36 -303q7 -55 7 -141t-38 -177q-94 -224 -378 -224q-96 -1 -184 31q-145 52 -186 190
q-15 49 -15 104l10 92q13 70 69 115t136 45t141 -59t61 -139t-42 -134q-54 -66 -162 -82q-18 -2 -19 -14q0 -10 17 -20q63 -55 213 -56q125 0 199 83q32 36 64 127t13 255l-28 285h-11q-26 -2 -106 -2q-210 0 -393 92q-104 51 -183 128q-78 77 -128 199t-54 273v25
q0 149 78 326q54 119 178 256q125 136 430 376l-14 129q-6 68 -6 135q0 303 104 533t268 293h9q6 2 10 2q45 0 47 -31v-14q0 -88 -33 -215q-18 -68 -41 -68q-78 -2 -146 -100q-68 -99 -106 -227q-37 -128 -37 -200q-1 -72 3 -90q4 -20 6 -46t4 -48q348 240 401 494
q6 31 49 31q18 0 30 -17t13 -37z" />
    <glyph glyph-name="uniE058_uniE883" unicode="&#xe058;&#xe883;" 
d="M741 1356q0 -32 3 -57t10 -93q348 240 401 494q6 31 6 55q0 76 -39 119t-92 43q-115 -3 -202 -195t-87 -366zM156 29q0 -131 64 -230q65 -98 164 -148q198 -100 386 -100q57 0 94 11l-73 661q-256 -33 -256 -237q0 -119 122 -213q16 -23 17 -37q0 -12 -16 -12t-37 8
q-76 29 -133 104q-80 109 -80 251t99 260t251 155l-37 321q-403 -269 -515 -539q-48 -116 -50 -241v-14zM1190 -98q0 131 -93 227t-223 100q33 -313 78 -645q238 86 238 318zM514 -870q-62 0 -74 77v9q0 55 65 94t135 39t125 -44q54 -45 53 -91t-7 -70t-35 -56t-84 -59
q-14 -8 -14 -22q0 -8 12 -8q86 -39 86 -109q-8 -111 -98 -160q37 0 92 37q139 84 139 326q0 47 -6 102l-29 285h-10q-25 -2 -106 -2q-209 0 -393 92q-104 51 -183 128q-78 77 -128 199t-54 273v25q0 149 78 326q54 119 178 256q125 136 430 376l-14 129q-6 68 -6 135
q0 303 104 533t268 293q32 -16 75 -72q42 -55 69 -131q68 -190 67 -361q0 -296 -206 -549q-75 -92 -117 -135t-131 -133q33 -264 41 -346h28q206 0 352 -146t146 -340t-109 -331t-292 -197l36 -303q7 -55 7 -141t-37 -177q-61 -149 -222 -204q-61 -20 -150 -20
q-160 0 -231 78q-30 32 -30 77t29 65q29 21 57 21t45 -18q18 -18 18 -45v-11q-4 -39 -47 -59q-6 -2 -6 -12q0 -27 66 -27q106 0 129 125q2 6 2 35q0 30 -30 64t-71 34h-8q-55 0 -55 43q0 37 63 37h39q31 0 70 26q57 38 57 114t-51 89q-5 2 -25 2t-32 -24q-4 -6 -4 -21l4 -49
q0 -31 -20 -51t-50 -20z" />
    <glyph glyph-name="uniE059_uniE884" unicode="&#xe059;&#xe884;" 
d="M1585 2462q0 -6 -3 -14t-61 -88q-57 -79 -145 -179t-145 -141h166l20 108q2 12 19 35l92 101q16 12 30 12t15 -16q0 -16 -2 -21l-45 -219h78q16 0 16 -17l-2 -10q-4 -27 -25 -26h-77l-15 -80v-11q0 -41 53 -41q25 0 25 -26q-6 -29 -35 -29h-250q-20 0 -20 19v10
q4 25 37 24q56 0 68 83q1 6 3 24t4 27h-233q-23 0 -23 20q0 12 11 23q207 246 237 421q4 27 37 27l76 -4l80 4q14 0 14 -16zM1192 -96q0 131 -93 227t-222 100q32 -313 77 -645q238 86 238 318zM158 31q0 -131 64 -230q65 -98 164 -148q200 -101 386 -99q57 0 94 10l-73 661
q-256 -33 -256 -237q0 -119 122 -213q16 -23 17 -37q0 -12 -16 -12t-37 8q-76 29 -133 104q-80 109 -80 251t99 260t251 155l-37 321q-403 -269 -515 -539q-48 -116 -50 -241v-14zM1249 1679q1 -105 -29 -209t-66 -175t-110 -163t-116 -134q-42 -44 -131 -134
q33 -264 41 -346h28q206 0 352 -146t146 -340t-109 -331t-292 -197l36 -303q7 -55 7 -141t-38 -177q-94 -224 -378 -224q-96 -1 -184 31q-145 52 -186 190q-15 49 -15 104l10 92q13 70 69 115t136 45t141 -59t61 -139t-42 -134q-54 -66 -162 -82q-18 -2 -19 -14
q0 -10 17 -20q63 -55 213 -56q125 0 199 83q32 36 64 127t13 255l-28 285h-11q-26 -2 -106 -2q-210 0 -393 92q-104 51 -183 128q-78 77 -128 199t-54 273v25q0 149 78 326q54 119 178 256q125 136 430 376l-14 129q-6 68 -6 135q0 303 104 533t268 293h9q6 2 10 2
q45 0 47 -31v-14q0 -88 -33 -215q-18 -68 -41 -68q-78 -2 -146 -100q-68 -99 -106 -227q-37 -128 -37 -200q-1 -72 3 -90q4 -20 6 -46t4 -48q348 240 401 494q6 31 49 31q18 0 30 -17t13 -37z" />
    <glyph glyph-name="uniE058_uniE884" unicode="&#xe058;&#xe884;" 
d="M741 1356q0 -32 3 -57t10 -93q348 240 401 494q6 31 6 55q0 76 -39 119t-92 43q-115 -3 -202 -195t-87 -366zM156 29q0 -131 64 -230q65 -98 164 -148q198 -100 386 -100q57 0 94 11l-73 661q-256 -33 -256 -237q0 -119 122 -213q16 -23 17 -37q0 -12 -16 -12t-37 8
q-76 29 -133 104q-80 109 -80 251t99 260t251 155l-37 321q-403 -269 -515 -539q-48 -116 -50 -241v-14zM1190 -98q0 131 -93 227t-223 100q33 -313 78 -645q238 86 238 318zM692 -680q0 -6 -3 -14t-61 -87t-146 -179t-144 -142h166l20 109q2 12 19 35l92 100q17 12 31 12
t14 -15t-2 -22l-45 -219h78q16 0 16 -16l-2 -10q-4 -27 -25 -27h-77l-15 -80q0 -2 -2 -6v-4q0 -29 53 -29t129 53q121 86 121 314q0 47 -6 102l-29 285h-10q-25 -2 -106 -2q-209 0 -393 92q-104 51 -183 128q-78 77 -128 199t-54 273v25q0 149 78 326q54 119 178 256
q125 136 430 376l-14 129q-6 68 -6 135q0 303 104 533t268 293q32 -16 75 -72q42 -55 69 -131q68 -190 67 -361q0 -296 -206 -549q-75 -92 -117 -135t-131 -133q33 -264 41 -346h28q206 0 352 -146t146 -340t-109 -331t-292 -197l36 -303q7 -55 7 -141t-38 -177
q-62 -149 -222 -204q-60 -20 -123 -20h-261q-20 0 -20 20v10q4 25 49 25t67 24t38 109h-234q-23 0 -22 20q0 12 10 23q207 246 237 422q4 27 37 26l78 -4l78 4q14 0 14 -16z" />
    <glyph glyph-name="uniE059_uniE885" unicode="&#xe059;&#xe885;" 
d="M1593 2447q0 -106 -180 -106q-35 0 -76 8t-43 8q-16 0 -26 -28l-23 -101q-2 -6 -2 -11t5 -5t7 1q88 44 134 44q7 0 36 -4q156 -25 156 -176q0 -25 -6 -56q-43 -221 -260 -221q-76 0 -121 33t-54 63t-10 64q0 32 25 54t57 22q33 -4 54 -23q20 -18 20 -50t-22 -50t-23 -33
q5 -27 18 -37t48 -10q84 0 116 184q8 41 9 78q0 104 -74 105q-31 0 -74 -22t-61 -37t-35 -15q-23 0 -23 20l64 314q4 23 37 22q135 -12 178 -12l135 12q16 0 16 -16q0 -2 -2 -6v-13zM1192 -96q0 131 -93 227t-222 100q32 -313 77 -645q238 86 238 318zM158 31
q0 -131 64 -230q65 -98 164 -148q200 -101 386 -99q57 0 94 10l-73 661q-256 -33 -256 -237q0 -119 122 -213q16 -23 17 -37q0 -12 -16 -12t-37 8q-76 29 -133 104q-80 109 -80 251t99 260t251 155l-37 321q-403 -269 -515 -539q-48 -116 -50 -241v-14zM1249 1679
q1 -105 -29 -209t-66 -175t-110 -163t-116 -134q-42 -44 -131 -134q33 -264 41 -346h28q206 0 352 -146t146 -340t-109 -331t-292 -197l36 -303q7 -55 7 -141t-38 -177q-94 -224 -378 -224q-96 -1 -184 31q-145 52 -186 190q-15 49 -15 104l10 92q13 70 69 115t136 45
t141 -59t61 -139t-42 -134q-54 -66 -162 -82q-18 -2 -19 -14q0 -10 17 -20q63 -55 213 -56q125 0 199 83q32 36 64 127t13 255l-28 285h-11q-26 -2 -106 -2q-210 0 -393 92q-104 51 -183 128q-78 77 -128 199t-54 273v25q0 149 78 326q54 119 178 256q125 136 430 376
l-14 129q-6 68 -6 135q0 303 104 533t268 293h9q6 2 10 2q45 0 47 -31v-14q0 -88 -33 -215q-18 -68 -41 -68q-78 -2 -146 -100q-68 -99 -106 -227q-37 -128 -37 -200q-1 -72 3 -90q4 -20 6 -46t4 -48q348 240 401 494q6 31 49 31q18 0 30 -17t13 -37z" />
    <glyph glyph-name="uniE058_uniE885" unicode="&#xe058;&#xe885;" 
d="M743 1360q-1 -36 3 -56t6 -46t4 -48q348 240 401 494q6 31 6 55q0 76 -39 119t-92 43q-115 -3 -202 -195t-87 -366zM158 33q0 -131 64 -230q65 -98 164 -148q200 -101 386 -99q57 0 94 10l-73 661q-256 -33 -256 -237q0 -119 122 -213q16 -23 17 -37q0 -12 -16 -12t-37 8
q-76 29 -133 104q-80 109 -80 251t99 260t251 155l-37 321q-403 -269 -515 -539q-48 -116 -50 -241v-14zM1192 -94q0 131 -93 227t-222 100q32 -313 77 -645q238 86 238 318zM819 -674v-6l-2 -4v-6q0 -109 -182 -109q-35 0 -76 7t-43 8q-16 0 -27 -29l-22 -100q-2 -5 -2 -11
t5 -6t13 4q74 41 127 41q8 0 37 -4q156 -18 156 -170q0 -118 -70 -198q178 82 178 346q0 51 -6 108l-28 285h-11q-26 -2 -106 -2q-210 0 -393 92q-104 51 -183 128q-78 77 -128 199t-54 273v25q0 149 78 326q54 119 178 256q125 136 430 376l-14 129q-6 68 -6 135
q0 303 104 533t268 293q32 -16 75 -72q42 -55 69 -131q68 -190 67 -361q0 -296 -205 -548q-75 -91 -117 -135t-132 -134q33 -264 41 -346h28q206 0 352 -146t146 -340t-109 -331t-292 -197l36 -303q6 -55 7 -104q0 -285 -197 -393q-84 -45 -167 -45t-137 12t-104 51
q-49 39 -49 85t28 69t59 19q67 -10 69 -69q0 -37 -20 -51t-19 -26q0 -52 66 -52q80 0 110 179q8 41 8 77q0 104 -73 105q-31 0 -74 -22q-44 -22 -62 -36t-36 -16q-18 0 -19 15v8l64 313q4 20 36 21q135 -13 179 -13t135 13q16 0 16 -15z" />
    <glyph glyph-name="uniE059_uniE886" unicode="&#xe059;&#xe886;" 
d="M1355 2169q-36 0 -70 -43q-34 -42 -44 -102t-10 -80q0 -78 51 -78q41 0 81 44t61 114q20 70 -14 118q-20 26 -55 27zM1493 2406q-1 16 -19 16t-34 -7q-119 -55 -119 -158q0 -31 22 -31q18 4 54 4q71 0 113 -49t42 -123q0 -120 -90 -198q-68 -60 -146 -60t-123 39
q-46 39 -54 90t-9 88q0 185 102 331t257 146q47 0 91 -47t44 -104v-12q-10 -70 -80 -70q-32 -1 -54 21t-22 55t12 46q13 13 13 23zM1192 -96q0 131 -93 227t-222 100q32 -313 77 -645q238 86 238 318zM158 31q0 -131 64 -230q65 -98 164 -148q200 -101 386 -99q57 0 94 10
l-73 661q-256 -33 -256 -237q0 -119 122 -213q16 -23 17 -37q0 -12 -16 -12t-37 8q-76 29 -133 104q-80 109 -80 251t99 260t251 155l-37 321q-403 -269 -515 -539q-48 -116 -50 -241v-14zM1249 1679q1 -105 -29 -209t-66 -175t-110 -163t-116 -134q-42 -44 -131 -134
q33 -264 41 -346h28q206 0 352 -146t146 -340t-109 -331t-292 -197l36 -303q7 -55 7 -141t-38 -177q-94 -224 -378 -224q-96 -1 -184 31q-145 52 -186 190q-15 49 -15 104l10 92q13 70 69 115t136 45t141 -59t61 -139t-42 -134q-54 -66 -162 -82q-18 -2 -19 -14
q0 -10 17 -20q63 -55 213 -56q125 0 199 83q32 36 64 127t13 255l-28 285h-11q-26 -2 -106 -2q-210 0 -393 92q-104 51 -183 128q-78 77 -128 199t-54 273v25q0 149 78 326q54 119 178 256q125 136 430 376l-14 129q-6 68 -6 135q0 303 104 533t268 293h9q6 2 10 2
q45 0 47 -31v-14q0 -88 -33 -215q-18 -68 -41 -68q-78 -2 -146 -100q-68 -99 -106 -227q-37 -128 -37 -200q-1 -72 3 -90q4 -20 6 -46t4 -48q348 240 401 494q6 31 49 31q18 0 30 -17t13 -37z" />
    <glyph glyph-name="uniE058_uniE886" unicode="&#xe058;&#xe886;" 
d="M752 1358q0 -32 3 -54t5 -48t4 -48q348 240 401 494q6 31 6 55q0 76 -38 119q-40 43 -93 43q-116 -3 -202 -195t-86 -366zM166 31q0 -131 64 -230q65 -98 164 -148q200 -101 386 -99q57 0 94 10l-73 661q-256 -33 -256 -237q0 -119 123 -213q16 -23 16 -36t-15 -13t-38 8
q-76 28 -132 104q-81 109 -81 251t99 260t251 155l-37 321q-403 -269 -515 -539q-48 -116 -50 -241v-14zM963 -414q238 86 237 318q0 131 -93 227t-222 100q33 -313 78 -645zM731 -732q0 12 -17 13q-17 0 -34 -8q-121 -57 -121 -160q0 -31 23 -31q27 6 53 7q74 0 115 -46
t41 -118q0 -121 -103 -201q131 39 186 150q41 78 41 215q0 51 -6 108l-28 285h-11q-26 -2 -106 -2q-208 0 -393 92q-104 51 -183 128q-78 77 -128 199t-54 273v25q0 149 78 326q54 119 178 256q125 136 430 376l-14 129q-6 68 -6 135q0 303 104 533t268 293q32 -16 75 -72
q42 -55 69 -131q68 -190 67 -361q0 -296 -205 -548q-75 -91 -117 -135t-132 -134q33 -264 41 -346h28q206 0 352 -146t146 -340t-108 -331t-293 -197l37 -303q6 -55 6 -104q0 -229 -129 -348q-100 -90 -294 -90t-216 139q-6 37 -6 78q0 184 103 329t257 146q47 0 90 -46
t43 -104v-12q-10 -72 -82 -72q-30 0 -54 23q-24 24 -24 56t17 50h8q8 10 8 22zM461 -1198q0 -78 51 -78q41 0 81 44t58 108q11 22 11 60t-20 65t-55 27q-36 0 -71 -44q-35 -43 -45 -102t-10 -80z" />
    <glyph glyph-name="uniE059_uniE887" unicode="&#xe059;&#xe887;" 
d="M1235 1796q-12 0 -12 19q0 53 52 130t105 132q20 27 27 30q25 25 78 105q10 18 10 34t-4 21q-4 4 -27 8q-22 5 -32 11t-28 19q-47 35 -99 24q-24 -3 -57 -69q-33 -65 -40 -73t-16 -8h-6q-18 0 -19 21v4q2 4 4 15t40 120t42 117q4 25 23 24q10 0 24 -19q13 -19 24 -21
t38 18q28 18 58 18t64 -49t67 -49t53 32t30 43q10 10 21 -1q10 -11 10 -23t-5 -27t-12 -32t-16 -45t-18 -49q-10 -22 -55 -85l-50 -82q-4 -4 -8 -13q-4 -8 -13 -24t-38 -104t-34 -130t-27 -42q-2 0 -5 2h-4l-75 14q-27 0 -43 -8t-27 -8zM1190 -98q0 131 -93 227t-223 100
q33 -313 78 -645q238 86 238 318zM156 29q0 -131 64 -230q65 -98 164 -148q198 -100 386 -100q57 0 94 11l-73 661q-256 -33 -256 -237q0 -119 122 -213q16 -23 17 -37q0 -12 -16 -12t-37 8q-76 29 -133 104q-80 109 -80 251t99 260t251 155l-37 321q-403 -269 -515 -539
q-48 -116 -50 -241v-14zM1249 1679q0 -296 -206 -549q-75 -92 -117 -135t-131 -133q33 -264 41 -346h28q206 0 352 -146t146 -340t-109 -331t-292 -197l36 -303q7 -55 7 -141t-38 -177q-94 -224 -378 -224q-96 -1 -184 31q-144 51 -186 190q-15 49 -15 104l10 92
q13 70 69 115t136 45t141 -59t61 -139t-42 -134q-54 -66 -162 -82q-18 -2 -19 -14q0 -10 17 -20q63 -55 213 -56q122 0 198 83q33 36 65 127t13 255l-29 285h-10q-25 -2 -106 -2q-209 0 -393 92q-104 51 -183 128q-78 77 -128 199t-54 273v25q0 149 78 326q54 119 178 256
q125 136 430 376l-14 129q-6 68 -6 135q0 303 104 533t268 293l6 2h13q45 0 47 -31v-14q0 -90 -33 -218q-18 -66 -41 -65q-78 -2 -146 -100q-68 -99 -106 -227q-37 -128 -37 -197t3 -94t10 -93q348 240 401 494q6 31 49 31q18 0 32 -17t13 -35z" />
    <glyph glyph-name="uniE058_uniE887" unicode="&#xe058;&#xe887;" 
d="M748 1360q0 -32 3 -54t5 -48t4 -48q348 240 401 494q6 31 6 55q0 76 -39 119t-92 43q-116 -3 -202 -195t-86 -366zM162 33q0 -131 64 -230q65 -98 164 -148q200 -101 386 -99q57 0 94 10l-73 661q-256 -33 -256 -237q0 -119 123 -213q16 -23 16 -36t-15 -13t-38 8
q-76 28 -132 104q-81 109 -81 251t99 260t251 155l-37 321q-403 -269 -515 -539q-48 -116 -50 -241v-14zM1196 -94q0 131 -93 227t-222 100q32 -313 77 -645q238 86 238 318zM673 -708q34 -50 66 -50t58 40q25 40 37 40q4 0 11 -7t7 -20t-20 -68q-20 -54 -30 -79
q-11 -25 -57 -88l-49 -82q-4 -4 -9 -12t-9 -13q-45 -90 -72 -217h19q122 0 198 83q33 36 65 127t13 255l-29 285h-10q-25 -2 -106 -2q-208 0 -394 92q-104 51 -182 128t-128 199t-54 273v25q0 149 78 326q52 115 181 258t427 374l-14 129q-6 68 -6 135q0 303 104 533
t268 293q32 -16 75 -72q42 -55 69 -131q68 -190 67 -360q0 -299 -206 -549q-75 -91 -117 -135t-131 -134q33 -264 41 -346h28q207 0 352 -146q146 -146 146 -340t-109 -330q-109 -138 -293 -198l37 -303q6 -55 6 -141q-1 -86 -37 -177q-60 -149 -221 -204q-61 -20 -105 -20
t-74 9q-28 9 -62 9t-52 -10q-20 -10 -26 -10q-14 0 -14 20q0 96 157 260q17 19 29 31t74 104q10 18 10 36t-4 22t-31 7t-59 29q-31 25 -59 25q-29 0 -45 -3t-50 -67q-34 -65 -40 -74t-19 -9h-4q-16 0 -17 20v4q2 4 4 15t40 120t42 117l6 4q4 23 18 23q14 1 28 -19
q12 -20 23 -21t38 17t57 18q30 2 65 -48z" />
    <glyph glyph-name="uniE059_uniE888" unicode="&#xe059;&#xe888;" horiz-adv-x="1669" 
d="M1306 2124q-20 0 -46 -35q-5 -3 -15 -21t-10 -48q0 -89 70 -135q47 -32 90 -31t69 23t27 47q0 25 -12 46q-37 74 -129 135q-24 19 -44 19zM1445 2427q-35 -1 -59 -19t-25 -55t42 -80q78 -78 117 -80q51 0 51 127q-2 37 -46 72t-80 35zM1397 2480h14q155 -12 220 -78
q34 -35 38 -82v-18q0 -74 -74 -123q-20 -18 -20 -40q-1 -21 25 -59t26 -96t-30 -101q-55 -81 -193 -83q-80 0 -161 44q-106 58 -112 159q0 55 37 106t88 68q16 6 17 12q0 4 -8 13q-55 55 -56 125q0 96 101 137q43 16 88 16zM1192 -96q0 131 -93 227t-222 100
q32 -313 77 -645q238 86 238 318zM158 31q0 -131 64 -230q65 -98 164 -148q200 -101 386 -99q57 0 94 10l-73 661q-256 -33 -256 -237q0 -119 122 -213q16 -23 17 -37q0 -12 -16 -12t-37 8q-76 29 -133 104q-80 109 -80 251t99 260t251 155l-37 321q-403 -269 -515 -539
q-48 -116 -50 -241v-14zM1249 1679q1 -105 -29 -209t-66 -175t-110 -163t-116 -134q-42 -44 -131 -134q33 -264 41 -346h28q206 0 352 -146t146 -340t-109 -331t-292 -197l36 -303q7 -55 7 -141t-38 -177q-94 -224 -378 -224q-96 -1 -184 31q-145 52 -186 190
q-15 49 -15 104l10 92q13 70 69 115t136 45t141 -59t61 -139t-42 -134q-54 -66 -162 -82q-18 -2 -19 -14q0 -10 17 -20q63 -55 213 -56q125 0 199 83q32 36 64 127t13 255l-28 285h-11q-26 -2 -106 -2q-210 0 -393 92q-104 51 -183 128q-78 77 -128 199t-54 273v25
q0 149 78 326q54 119 178 256q125 136 430 376l-14 129q-6 68 -6 135q0 303 104 533t268 293h9q6 2 10 2q45 0 47 -31v-14q0 -88 -33 -215q-18 -68 -41 -68q-78 -2 -146 -100q-68 -99 -106 -227q-37 -128 -37 -200q-1 -72 3 -90q4 -20 6 -46t4 -48q348 240 401 494
q6 31 49 31q18 0 30 -17t13 -37z" />
    <glyph glyph-name="uniE058_uniE888" unicode="&#xe058;&#xe888;" 
d="M743 1356q-1 -36 3 -56t6 -46t4 -48q348 240 401 494q6 31 6 55q0 76 -39 119t-92 43q-115 -3 -202 -195t-87 -366zM158 29q0 -131 64 -230q65 -98 164 -148q198 -100 386 -100q57 0 94 11l-73 661q-256 -33 -256 -237q0 -119 122 -213q16 -23 17 -37q0 -12 -16 -12
t-37 8q-76 29 -133 104q-80 109 -80 251t99 260t251 155l-37 321q-403 -269 -515 -539q-48 -116 -50 -241v-14zM1192 -98q0 131 -93 227t-222 100q32 -313 77 -645q238 86 238 318zM608 -659q49 -1 109 -21q118 -40 127 -137v-21q0 -82 -72 -143q-20 -18 -20 -40
q0 -21 26 -59t25 -74q0 -36 -4 -60q111 92 110 303q0 49 -6 104l-29 285h-10q-25 -2 -106 -2q-209 0 -393 92q-104 51 -183 128q-78 77 -128 199t-54 273v25q0 149 78 326q54 119 178 256q125 136 430 376l-14 129q-6 68 -6 135q0 303 104 533t268 293q32 -16 75 -72
q42 -55 69 -131q68 -190 67 -361q0 -296 -206 -549q-75 -92 -117 -135t-131 -133q33 -264 41 -346h28q206 0 352 -146t146 -340t-109 -331t-292 -197l36 -303q6 -55 7 -104q0 -250 -152 -365q-121 -90 -272 -90q-80 0 -161 44t-106 118q-6 20 -6 58t37 89t88 68q25 10 8 27
q-49 49 -49 110q0 60 30 106q53 80 173 83h14zM535 -801q0 -41 44 -85q79 -79 115 -81q47 0 47 127q-2 37 -44 70t-81 33q-75 -1 -81 -64zM410 -1144q0 -27 4 -38q31 -106 159 -106q94 4 95 61q0 14 -13 37q-37 74 -129 135q-26 19 -46 19t-46 -35q0 -2 -12 -24t-12 -49z
" />
    <glyph glyph-name="uniE059_uniE889" unicode="&#xe059;&#xe889;" 
d="M1311 2212q0 -72 49 -72q41 2 91 61t50 145q0 87 -67 87q-80 -2 -113 -143q-10 -47 -10 -78zM1281 1870q54 0 100 75q32 50 32 111q0 31 -22 31q-27 -6 -54 -6q-75 0 -115 44t-40 111q0 118 89 191q65 53 145 53t127 -46q48 -46 54 -120v-26q0 -203 -87 -346t-246 -144
q-47 0 -89 47t-42 103v14q8 72 75 72q31 0 56 -23q26 -23 26 -53t-14 -46q-14 -14 -14 -28t19 -14zM1192 -96q0 131 -93 227t-222 100q32 -313 77 -645q238 86 238 318zM158 31q0 -131 64 -230q65 -98 164 -148q200 -101 386 -99q57 0 94 10l-73 661q-256 -33 -256 -237
q0 -119 122 -213q16 -23 17 -37q0 -12 -16 -12t-37 8q-76 29 -133 104q-80 109 -80 251t99 260t251 155l-37 321q-403 -269 -515 -539q-48 -116 -50 -241v-14zM1249 1679q1 -105 -29 -209t-66 -175t-110 -163t-116 -134q-42 -44 -131 -134q33 -264 41 -346h28
q206 0 352 -146t146 -340t-109 -331t-292 -197l36 -303q7 -55 7 -141t-38 -177q-94 -224 -378 -224q-96 -1 -184 31q-145 52 -186 190q-15 49 -15 104l10 92q13 70 69 115t136 45t141 -59t61 -139t-42 -134q-54 -66 -162 -82q-18 -2 -19 -14q0 -10 17 -20q63 -55 213 -56
q125 0 199 83q32 36 64 127t13 255l-28 285h-11q-26 -2 -106 -2q-210 0 -393 92q-104 51 -183 128q-78 77 -128 199t-54 273v25q0 149 78 326q54 119 178 256q125 136 430 376l-14 129q-6 68 -6 135q0 303 104 533t268 293h9q6 2 10 2q45 0 47 -31v-14q0 -88 -33 -215
q-18 -68 -41 -68q-78 -2 -146 -100q-68 -99 -106 -227q-37 -128 -37 -200q-1 -72 3 -90q4 -20 6 -46t4 -48q348 240 401 494q6 31 49 31q18 0 30 -17t13 -37z" />
    <glyph glyph-name="uniE058_uniE889" unicode="&#xe058;&#xe889;" 
d="M741 1356q0 -32 3 -57t10 -93q348 240 401 494q6 31 6 55q0 76 -39 119t-92 43q-115 -3 -202 -195t-87 -366zM156 29q0 -131 64 -230q65 -98 164 -148q198 -100 386 -100q57 0 94 11l-73 661q-256 -33 -256 -237q0 -119 122 -213q16 -23 17 -37q0 -12 -16 -12t-37 8
q-76 29 -133 104q-80 109 -80 251t99 260t251 155l-37 321q-403 -269 -515 -539q-48 -116 -50 -241v-14zM1190 -98q0 131 -93 227t-223 100q33 -313 78 -645q238 86 238 318zM643 -1087q0 31 -20 30q-29 -6 -62 -6q-74 0 -116 44t-42 114q0 25 7 49q18 86 84 139t144 53
t127 -46q48 -46 54 -119v-37q0 -276 -127 -398q217 51 217 361q0 47 -6 98l-29 285h-10q-25 -2 -106 -2q-209 0 -393 92q-104 51 -183 128q-78 77 -128 199t-54 273v25q0 149 78 326q54 119 178 256q125 136 430 376l-14 129q-6 68 -6 135q0 303 104 533t268 293
q32 -16 75 -72q42 -55 69 -131q68 -190 67 -361q0 -296 -206 -549q-75 -92 -117 -135t-131 -133q33 -264 41 -346h28q206 0 352 -146t146 -340t-109 -331t-292 -197l36 -303q6 -55 7 -104q0 -307 -222 -406q-74 -33 -177 -33t-177 38q-74 36 -74 112v12q10 72 76 72
q34 0 58 -25t24 -53t-14 -44q-14 -15 -15 -25q1 -17 21 -17q54 -1 104 75q35 50 35 112zM535 -932q0 -72 49 -72q94 4 129 160q8 29 8 56q0 78 -62 77q-81 -2 -114 -143q-10 -47 -10 -78z" />
    <glyph glyph-name="uniE058_uniE881_uniE880_uniE260" unicode="&#xe058;&#xe881;&#xe880;&#xe260;" 
d="M1090 -643q27 0 26 -23q0 -193 -6 -278q0 -18 20 -23q10 -1 44 19t51 20q115 -8 114 -106q0 -113 -157 -221q-14 -10 -55 -45t-50 -35q-8 0 -14 6q-14 14 -14 489l-2 160q4 37 43 37zM1130 -1235q4 0 13 4q41 27 61 87q34 102 5 134t-66 -8q-19 -23 -25 -35t-6 -43
l4 -116q0 -23 14 -23zM252 -1292q16 0 16 -25q-8 -27 -30 -26h-252q-23 0 -23 28q6 27 30 27t44 13t26 36l105 344q0 14 -10 14t-23 -12l-63 -68q-8 -12 -26 -12t-17 15l12 24l160 248q13 20 33 19t49 -1l45 2h12q20 0 20 -16q0 -8 -2 -12l-149 -549l-2 -8q0 -13 14 -27
q15 -14 31 -14zM1362 30q0 -192 -109 -329t-292 -197l36 -303q6 -55 7 -102q0 -219 -119 -338q-47 -47 -135 -76t-194 -29t-172 62q-66 61 -67 172q0 53 19 121q45 166 128 253t172 87t142 -71t53 -177q0 -45 -12 -94q-51 -199 -133 -273q223 43 223 359q0 45 -6 100
l-29 285h-10q-25 -2 -106 -2q-209 0 -393 92q-104 51 -183 128q-78 77 -128 199t-54 273v25q0 149 78 326q54 119 178 256q125 136 430 376l-14 129q-6 68 -6 135q0 303 104 533t268 293q32 -16 75 -72q42 -55 69 -131q68 -190 67 -361q0 -296 -206 -549q-75 -92 -117 -135
t-131 -133q33 -264 41 -346h28q207 0 353 -146q145 -148 145 -340zM741 1356q0 -32 3 -57t10 -93q348 240 401 494q6 31 6 55q0 76 -39 119t-92 43q-115 -3 -202 -195t-87 -366zM156 29q0 -131 64 -230q65 -98 164 -148q198 -100 386 -100q57 0 94 11l-73 661
q-256 -33 -256 -237q0 -119 122 -213q16 -23 17 -37q0 -12 -16 -12t-37 8q-76 29 -133 104q-80 109 -80 251t99 260t251 155l-37 321q-403 -269 -515 -539q-48 -116 -50 -241v-14zM1190 -98q0 131 -93 227t-223 100q33 -313 78 -645q238 86 238 318zM659 -737
q-49 -1 -68 -23t-37 -48t-41 -108t-44 -142t-21 -133t54 -73q42 0 58 18q17 18 31 32q14 15 40 91q26 77 57 162q30 85 30 155t-59 69z" />
    <glyph glyph-name="uniE058_uniE881_uniE881_uniE260" unicode="&#xe058;&#xe881;&#xe881;&#xe260;" 
d="M1112 -645q27 0 27 -23q0 -193 -6 -278q0 -16 20 -23q10 -1 43 19t51 20q115 -8 115 -106q0 -113 -158 -221q-14 -10 -55 -45t-50 -35q-8 0 -16 8t-14 487v160q4 37 43 37zM1153 -1237q4 0 12 4q41 27 61 87t21 88q0 28 -14 44q-31 35 -68 -6q-20 -23 -25 -35t-5 -43
l4 -116q0 -23 14 -23zM360 -668q20 0 20 -12t-1 -16l-150 -549v-4l-2 -4q1 -13 15 -27t30 -14t17 -25q-8 -27 -31 -27h-252q-23 0 -22 29q6 27 30 27q56 0 70 49l104 344q0 14 -10 14t-22 -12l-64 -68q-8 -12 -26 -12t-17 14l12 25l160 248q13 20 33 19t49 -1l45 2h12z
M741 1356q0 -32 3 -57t10 -93q348 240 401 494q6 31 6 55q0 76 -39 119t-92 43q-115 -3 -202 -195t-87 -366zM156 29q0 -131 64 -230q65 -98 164 -148q198 -100 386 -100q57 0 94 11l-73 661q-256 -33 -256 -237q0 -119 122 -213q16 -23 17 -37q0 -12 -16 -12t-37 8
q-76 29 -133 104q-80 109 -80 251t99 260t251 155l-37 321q-403 -269 -515 -539q-48 -116 -50 -241v-14zM1190 -98q0 131 -93 227t-223 100q33 -313 78 -645q238 86 238 318zM733 -668q21 0 21 -12t-2 -16l-154 -561q0 -22 78 -12q24 3 70 23t79 57q33 36 65 127t13 255
l-29 285h-10q-25 -2 -106 -2q-209 0 -393 92q-104 51 -183 128q-78 77 -128 199t-54 273v25q0 149 78 326q54 119 178 256q125 136 430 376l-14 129q-6 68 -6 135q0 303 104 533t268 293q32 -16 75 -72q42 -55 69 -131q68 -190 67 -361q0 -296 -206 -549q-75 -92 -117 -135
t-131 -133q33 -264 41 -346h28q206 0 352 -146t146 -340t-109 -331t-292 -197l36 -303q7 -55 7 -141t-37 -177q-61 -149 -222 -204q-61 -20 -124 -21h-236q-27 0 -27 33q2 13 14 21t17 8q59 0 70 41l104 346q0 14 -10 14t-23 -12l-63 -68q-7 -12 -25 -12t-18 14l12 25
l158 248q12 20 32 19t50 -1l45 2h12z" />
    <glyph glyph-name="uniE058_uniE881_uniE883_uniE260" unicode="&#xe058;&#xe881;&#xe883;&#xe260;" 
d="M1090 -645q27 0 26 -23q0 -193 -6 -278q0 -16 20 -23q10 -1 44 19t51 20q115 -8 114 -106q0 -113 -157 -221q-14 -10 -55 -45t-50 -35q-8 0 -14 6q-14 14 -14 489l-2 160q4 37 43 37zM1130 -1237q4 0 13 4q41 27 61 87q34 102 5 134t-66 -8q-19 -23 -25 -35t-6 -43
l4 -116q0 -23 14 -23zM401 -668q21 0 21 -12t-2 -16l-150 -549v-4l-2 -4q0 -13 14 -27t31 -14q16 0 17 -25q-8 -27 -31 -27h-252q-23 0 -22 29q5 27 29 27q56 0 71 49l104 344q0 14 -10 14t-22 -12l-64 -68q-7 -12 -25 -12t-18 14l12 25l160 248q12 20 32 19t50 -1l45 2h12z
M741 1356q0 -32 3 -57t10 -93q348 240 401 494q6 31 6 55q0 76 -39 119t-92 43q-115 -3 -202 -195t-87 -366zM156 29q0 -131 64 -230q65 -98 164 -148q198 -100 386 -100q57 0 94 11l-73 661q-256 -33 -256 -237q0 -119 122 -213q16 -23 17 -37q0 -12 -16 -12t-37 8
q-76 29 -133 104q-80 109 -80 251t99 260t251 155l-37 321q-403 -269 -515 -539q-48 -116 -50 -241v-14zM1190 -98q0 131 -93 227t-223 100q33 -313 78 -645q238 86 238 318zM514 -870q-62 0 -74 77v9q0 55 65 94t135 39t125 -44q54 -45 53 -91t-7 -70t-35 -56t-84 -59
q-14 -8 -14 -22q0 -8 12 -8q86 -39 86 -109q-8 -111 -98 -160q37 0 92 37q139 84 139 326q0 47 -6 102l-29 285h-10q-25 -2 -106 -2q-209 0 -393 92q-104 51 -183 128q-78 77 -128 199t-54 273v25q0 149 78 326q54 119 178 256q125 136 430 376l-14 129q-6 68 -6 135
q0 303 104 533t268 293q32 -16 75 -72q42 -55 69 -131q68 -190 67 -361q0 -296 -206 -549q-75 -92 -117 -135t-131 -133q33 -264 41 -346h28q206 0 352 -146t146 -340t-109 -331t-292 -197l36 -303q7 -55 7 -141t-37 -177q-61 -149 -222 -204q-61 -20 -150 -20
q-160 0 -231 78q-30 32 -30 77t29 65q29 21 57 21t45 -18q18 -18 18 -45v-11q-4 -39 -47 -59q-6 -2 -6 -12q0 -27 66 -27q106 0 129 125q2 6 2 35q0 30 -30 64t-71 34h-8q-55 0 -55 43q0 37 63 37h39q31 0 70 26q57 38 57 114t-51 89q-5 2 -25 2t-32 -24q-4 -6 -4 -21l4 -49
q0 -31 -20 -51t-50 -20z" />
    <glyph glyph-name="uniE058_uniE881_uniE884_uniE260" unicode="&#xe058;&#xe881;&#xe884;&#xe260;" 
d="M1090 -645q27 0 26 -23q0 -193 -6 -278q0 -16 20 -23q10 -1 44 19t51 20q115 -8 114 -106q0 -113 -157 -221q-14 -10 -55 -45t-50 -35q-8 0 -14 6q-14 14 -14 489l-2 160q4 37 43 37zM1130 -1237q4 0 13 4q41 27 61 87q34 102 5 134t-66 -8q-19 -23 -25 -35t-6 -43
l4 -116q0 -23 14 -23zM299 -668q20 0 20 -16q0 -8 -2 -12l-149 -549v-4l-2 -4q0 -13 14 -27t30 -14t17 -25q-8 -27 -30 -27h-252q-23 0 -23 29q6 27 30 27q56 0 71 49l104 344q0 14 -10 14t-23 -12l-63 -68q-7 -12 -25 -12t-18 14l12 25l160 248q12 20 32 19t50 -1l45 2h12z
M741 1356q0 -32 3 -57t10 -93q348 240 401 494q6 31 6 55q0 76 -39 119t-92 43q-115 -3 -202 -195t-87 -366zM156 29q0 -131 64 -230q65 -98 164 -148q198 -100 386 -100q57 0 94 11l-73 661q-256 -33 -256 -237q0 -119 122 -213q16 -23 17 -37q0 -12 -16 -12t-37 8
q-76 29 -133 104q-80 109 -80 251t99 260t251 155l-37 321q-403 -269 -515 -539q-48 -116 -50 -241v-14zM1190 -98q0 131 -93 227t-223 100q33 -313 78 -645q238 86 238 318zM692 -680q0 -6 -3 -14t-61 -87t-146 -179t-144 -142h166l20 109q2 12 19 35l92 100q17 12 31 12
t14 -15t-2 -22l-45 -219h78q16 0 16 -16l-2 -10q-4 -27 -25 -27h-77l-15 -80q0 -2 -2 -6v-4q0 -29 53 -29t129 53q121 86 121 314q0 47 -6 102l-29 285h-10q-25 -2 -106 -2q-209 0 -393 92q-104 51 -183 128q-78 77 -128 199t-54 273v25q0 149 78 326q54 119 178 256
q125 136 430 376l-14 129q-6 68 -6 135q0 303 104 533t268 293q32 -16 75 -72q42 -55 69 -131q68 -190 67 -361q0 -296 -206 -549q-75 -92 -117 -135t-131 -133q33 -264 41 -346h28q206 0 352 -146t146 -340t-109 -331t-292 -197l36 -303q7 -55 7 -141t-38 -177
q-62 -149 -222 -204q-60 -20 -123 -20h-261q-20 0 -20 20v10q4 25 49 25t67 24t38 109h-234q-23 0 -22 20q0 12 10 23q207 246 237 422q4 27 37 26l78 -4l78 4q14 0 14 -16z" />
    <glyph glyph-name="uniE058_uniE881_uniE885_uniE260" unicode="&#xe058;&#xe881;&#xe885;&#xe260;" 
d="M1092 -641q27 0 26 -23q0 -193 -6 -278q0 -16 21 -23q10 -1 43 19t51 20q115 -8 114 -106q0 -113 -157 -221q-14 -10 -55 -45t-50 -35q-8 0 -16 8t-14 487v160q4 37 43 37zM1133 -1233q4 0 12 4q41 27 61 87q34 102 5 134t-66 -8q-19 -23 -25 -35t-6 -43l4 -116
q0 -23 15 -23zM362 -664q20 0 20 -12t-1 -16l-150 -549l-2 -4v-4q1 -13 15 -27t30 -14t17 -25q-8 -27 -31 -26h-252q-23 0 -22 28q6 27 30 27q56 0 70 49l104 344q0 14 -10 14t-22 -12l-64 -67q-13 -19 -28 -13t-15 15l12 24l160 248q13 20 33 19t49 -1l45 2h12zM743 1360
q-1 -36 3 -56t6 -46t4 -48q348 240 401 494q6 31 6 55q0 76 -39 119t-92 43q-115 -3 -202 -195t-87 -366zM158 33q0 -131 64 -230q65 -98 164 -148q200 -101 386 -99q57 0 94 10l-73 661q-256 -33 -256 -237q0 -119 122 -213q16 -23 17 -37q0 -12 -16 -12t-37 8
q-76 29 -133 104q-80 109 -80 251t99 260t251 155l-37 321q-403 -269 -515 -539q-48 -116 -50 -241v-14zM1192 -94q0 131 -93 227t-222 100q32 -313 77 -645q238 86 238 318zM819 -674v-6l-2 -4v-6q0 -109 -182 -109q-35 0 -76 7t-43 8q-16 0 -27 -29l-22 -100q-2 -5 -2 -11
t5 -6t13 4q74 41 127 41q8 0 37 -4q156 -18 156 -170q0 -118 -70 -198q178 82 178 346q0 51 -6 108l-28 285h-11q-26 -2 -106 -2q-210 0 -393 92q-104 51 -183 128q-78 77 -128 199t-54 273v25q0 149 78 326q54 119 178 256q125 136 430 376l-14 129q-6 68 -6 135
q0 303 104 533t268 293q32 -16 75 -72q42 -55 69 -131q68 -190 67 -361q0 -296 -205 -548q-75 -91 -117 -135t-132 -134q33 -264 41 -346h28q206 0 352 -146t146 -340t-109 -331t-292 -197l36 -303q6 -55 7 -104q0 -285 -197 -393q-84 -45 -167 -45t-137 12t-104 51
q-49 39 -49 85t28 69t59 19q67 -10 69 -69q0 -37 -20 -51t-19 -26q0 -52 66 -52q80 0 110 179q8 41 8 77q0 104 -73 105q-31 0 -74 -22q-44 -22 -62 -36t-36 -16q-18 0 -19 15v8l64 313q4 20 36 21q135 -13 179 -13t135 13q16 0 16 -15z" />
    <glyph glyph-name="uniE058_uniE881_uniE886_uniE260" unicode="&#xe058;&#xe881;&#xe886;&#xe260;" 
d="M1120 -643q27 0 27 -23q0 -193 -6 -278q0 -18 20 -23q10 -1 43 19t51 20q115 -8 115 -106q0 -113 -158 -221q-14 -10 -55 -45t-49 -35t-16 8t-15 487v160q4 37 43 37zM1161 -1235q4 0 13 4q41 27 61 87t20 88t-14 44q-15 16 -31 16t-36 -22q-20 -23 -26 -35t-5 -43
l4 -116q0 -23 14 -23zM282 -1292q16 0 17 -25q-8 -27 -31 -26h-252q-23 0 -22 28q6 27 30 27t44 13t26 36l105 344q-1 14 -11 14t-22 -12l-64 -68q-8 -12 -25 -12t-18 15l13 24l159 248q13 20 33 19t49 -1l45 2h13q20 0 20 -16q0 -8 -2 -12l-149 -549l-2 -8q0 -13 14 -27
t30 -14zM752 1358q0 -32 3 -54t5 -48t4 -48q348 240 401 494q6 31 6 55q0 76 -38 119q-40 43 -93 43q-116 -3 -202 -195t-86 -366zM166 31q0 -131 64 -230q65 -98 164 -148q200 -101 386 -99q57 0 94 10l-73 661q-256 -33 -256 -237q0 -119 123 -213q16 -23 16 -36t-15 -13
t-38 8q-76 28 -132 104q-81 109 -81 251t99 260t251 155l-37 321q-403 -269 -515 -539q-48 -116 -50 -241v-14zM963 -414q238 86 237 318q0 131 -93 227t-222 100q33 -313 78 -645zM731 -732q0 12 -17 13q-17 0 -34 -8q-121 -57 -121 -160q0 -31 23 -31q27 6 53 7
q74 0 115 -46t41 -118q0 -121 -103 -201q131 39 186 150q41 78 41 215q0 51 -6 108l-28 285h-11q-26 -2 -106 -2q-208 0 -393 92q-104 51 -183 128q-78 77 -128 199t-54 273v25q0 149 78 326q54 119 178 256q125 136 430 376l-14 129q-6 68 -6 135q0 303 104 533t268 293
q32 -16 75 -72q42 -55 69 -131q68 -190 67 -361q0 -296 -205 -548q-75 -91 -117 -135t-132 -134q33 -264 41 -346h28q206 0 352 -146t146 -340t-108 -331t-293 -197l37 -303q6 -55 6 -104q0 -229 -129 -348q-100 -90 -294 -90t-216 139q-6 37 -6 78q0 184 103 329t257 146
q47 0 90 -46t43 -104v-12q-10 -72 -82 -72q-30 0 -54 23q-24 24 -24 56t17 50h8q8 10 8 22zM461 -1198q0 -78 51 -78q41 0 81 44t58 108q11 22 11 60t-20 65t-55 27q-36 0 -71 -44q-35 -43 -45 -102t-10 -80z" />
    <glyph glyph-name="uniE058_uniE260_uniE881" unicode="&#xe058;&#xe260;&#xe881;" 
d="M96 -645q27 0 27 -23q0 -193 -6 -278q0 -16 20 -23q10 -1 43 19t51 20q115 -8 115 -106q0 -113 -158 -221q-14 -10 -55 -45t-49 -35t-16 8t-15 487v160q4 37 43 37zM137 -1237q4 0 13 4q41 27 61 87t20 88t-14 44q-15 16 -31 16t-36 -22q-20 -23 -26 -35t-5 -43l4 -116
q0 -23 14 -23zM741 1356q0 -32 3 -57t10 -93q348 240 401 494q6 31 6 55q0 76 -39 119t-92 43q-115 -3 -202 -195t-87 -366zM156 29q0 -131 64 -230q65 -98 164 -148q198 -100 386 -100q57 0 94 11l-73 661q-256 -33 -256 -237q0 -119 122 -213q16 -23 17 -37q0 -12 -16 -12
t-37 8q-76 29 -133 104q-80 109 -80 251t99 260t251 155l-37 321q-403 -269 -515 -539q-48 -116 -50 -241v-14zM1190 -98q0 131 -93 227t-223 100q33 -313 78 -645q238 86 238 318zM733 -668q21 0 21 -12t-2 -16l-154 -561q0 -22 78 -12q24 3 70 23t79 57q33 36 65 127
t13 255l-29 285h-10q-25 -2 -106 -2q-209 0 -393 92q-104 51 -183 128q-78 77 -128 199t-54 273v25q0 149 78 326q54 119 178 256q125 136 430 376l-14 129q-6 68 -6 135q0 303 104 533t268 293q32 -16 75 -72q42 -55 69 -131q68 -190 67 -361q0 -296 -206 -549
q-75 -92 -117 -135t-131 -133q33 -264 41 -346h28q206 0 352 -146t146 -340t-109 -331t-292 -197l36 -303q7 -55 7 -141t-37 -177q-61 -149 -222 -204q-61 -20 -124 -21h-236q-27 0 -27 33q2 13 14 21t17 8q59 0 70 41l104 346q0 14 -10 14t-23 -12l-63 -68q-7 -12 -25 -12
t-18 14l12 25l158 248q12 20 32 19t50 -1l45 2h12z" />
    <glyph glyph-name="uniE059_uniE882_uniE260" unicode="&#xe059;&#xe882;&#xe260;" 
d="M1327 2005q39 0 81 -31t60 -30q51 0 97 53q14 18 22 18q23 0 23 -18v-2l-37 -90q-16 -33 -53 -64t-88 -31q-20 0 -82 41t-90 41q-26 0 -58 -22t-31 -43q-10 -15 -26 -15t-17 23v8q8 92 61 153t116 113t77 64q76 69 76 156t-74 88q-55 0 -71 -56q-2 -4 -2 -10q0 -7 12 -27
t12 -45v-12q-4 -39 -22 -50t-49 -11t-44 9q-30 21 -30 74q0 54 38 101q79 98 202 97t169 -91q16 -33 17 -74l-2 -24q-4 -84 -74 -139t-108 -63t-78 -37q-40 -28 -58 -58q25 4 31 4zM1190 -98q0 131 -93 227t-223 100q33 -313 78 -645q238 86 238 318zM156 29q0 -131 64 -230
q65 -98 164 -148q198 -100 386 -100q57 0 94 11l-73 661q-256 -33 -256 -237q0 -119 122 -213q16 -23 17 -37q0 -12 -16 -12t-37 8q-76 29 -133 104q-80 109 -80 251t99 260t251 155l-37 321q-403 -269 -515 -539q-48 -116 -50 -241v-14zM1249 1679q0 -296 -206 -549
q-75 -92 -117 -135t-131 -133q33 -264 41 -346h28q206 0 352 -146t146 -340t-109 -331t-292 -197l36 -303q7 -55 7 -141t-38 -177q-94 -224 -378 -224q-96 -1 -184 31q-144 51 -186 190q-15 49 -15 104l10 92q13 70 69 115t136 45t141 -59t61 -139t-42 -134
q-54 -66 -162 -82q-18 -2 -19 -14q0 -10 17 -20q63 -55 213 -56q122 0 198 83q33 36 65 127t13 255l-29 285h-10q-25 -2 -106 -2q-209 0 -393 92q-104 51 -183 128q-78 77 -128 199t-54 273v25q0 149 78 326q54 119 178 256q125 136 430 376l-14 129q-6 68 -6 135
q0 303 104 533t268 293l6 2h13q45 0 47 -31v-14q0 -90 -33 -218q-18 -66 -41 -65q-78 -2 -146 -100q-68 -99 -106 -227q-37 -128 -37 -197t3 -94t10 -93q348 240 401 494q6 31 49 31q18 0 32 -17t13 -35zM1722 2425q0 -176 -4 -221q0 -14 15 -19q7 -1 35 15t42 16
q90 -8 90 -92t-124 -168q-37 -37 -80 -64q-2 -4 -6 -4t-11 6q-6 6 -12 392v129q3 29 29 29t26 -19zM1810 2116q0 20 -12 33q-26 28 -53 -3q-27 -30 -27 -61l4 -96q0 -18 13 -19q1 0 21 14t37 62q17 50 17 70z" />
    <glyph glyph-name="uniE058_uniE260_uniE882" unicode="&#xe058;&#xe260;&#xe882;" 
d="M76 -645q27 0 26 -23q0 -193 -6 -278q0 -16 21 -23q10 -1 43 19t51 20q115 -8 115 -106q0 -113 -158 -221q-14 -10 -55 -45t-50 -35q-8 0 -16 8t-14 487v160q4 37 43 37zM117 -1237q4 0 12 4q41 27 61 87t21 88q0 28 -14 44q-31 35 -68 -6q-19 -23 -25 -35t-6 -43l4 -116
q0 -23 15 -23zM565 -1151q53 0 69 -11t38 -32q21 -21 43 -23q55 0 102 21q92 92 92 291q0 45 -6 100l-29 285h-10q-25 -2 -106 -2q-209 0 -393 92q-104 51 -183 128q-78 77 -128 199t-54 273v25q0 149 78 326q54 119 178 256q125 136 430 376l-14 129q-6 68 -6 135
q0 303 104 533t268 293q32 -16 75 -72q42 -55 69 -131q68 -190 67 -361q0 -296 -206 -549q-75 -92 -117 -135t-131 -133q33 -264 41 -346h28q206 0 352 -146t146 -340t-109 -331t-292 -197l36 -303q7 -55 7 -141t-37 -177q-61 -149 -222 -204q-61 -20 -124 -20h-15
q-25 1 -86 41t-87 40q-25 0 -57 -22t-32 -43q-10 -14 -20 -14q-23 -1 -21 37q4 83 61 148t118 115t77 64q82 74 90 121q2 8 2 27q0 92 -71 92q-57 0 -74 -56q-2 -4 -2 -11t13 -26t13 -44v-13q-4 -39 -22 -50t-45 -11q-57 0 -72 57q-2 8 -2 42t36 83q73 100 193 98
q80 0 136 -43t57 -120l-2 -25q-4 -82 -82 -137t-122 -65t-86 -44q-42 -33 -64 -86q57 37 110 37zM741 1356q0 -32 3 -57t10 -93q348 240 401 494q6 31 6 55q0 76 -39 119t-92 43q-115 -3 -202 -195t-87 -366zM156 29q0 -131 64 -230q65 -98 164 -148q198 -100 386 -100
q57 0 94 11l-73 661q-256 -33 -256 -237q0 -119 122 -213q16 -23 17 -37q0 -12 -16 -12t-37 8q-76 29 -133 104q-80 109 -80 251t99 260t251 155l-37 321q-403 -269 -515 -539q-48 -116 -50 -241v-14zM1190 -98q0 131 -93 227t-223 100q33 -313 78 -645q238 86 238 318z" />
    <glyph glyph-name="uniE059_uniE883_uniE260" unicode="&#xe059;&#xe883;&#xe260;" 
d="M1915 2126q0 -84 -125 -168q-37 -37 -80 -64q-2 -4 -6 -4t-11 7t-10 393l-2 127q3 29 29 29t27 -19q0 -176 -4 -221q0 -14 14 -19q8 -1 36 15t42 16q90 -8 90 -92zM1737 1991q0 -18 12 -19q1 0 21 14t37 62q28 81 3 106t-47 -1q-22 -25 -26 -35t-4 -31zM1249 2367
q0 59 50 95q51 35 137 35q86 -1 141 -45t59 -97v-12q0 -113 -135 -178q-12 -5 -12 -15t6 -16q30 -18 52 -61q23 -44 24 -74v-10q-8 -63 -74 -119t-172 -58q-106 0 -150 48q-45 48 -45 100q0 53 32 69q32 17 63 17q49 0 55 -78q0 -31 -47 -55q-6 -4 -6 -12q1 -9 21 -23
t50 -14q61 0 103 106q8 18 8 56t-19 72t-55 34h-18q-55 0 -55 31q0 8 2 12q10 37 61 37h49q31 0 71 26q58 37 58 112t-53 91q-6 2 -20 2t-34 -18t-3 -62v-2l2 -16q0 -29 -22 -48q-21 -19 -51 -19t-49 22q-19 23 -24 55v12zM1192 -96q0 131 -93 227t-222 100q32 -313 77 -645
q238 86 238 318zM158 31q0 -131 64 -230q65 -98 164 -148q200 -101 386 -99q57 0 94 10l-73 661q-256 -33 -256 -237q0 -119 122 -213q16 -23 17 -37q0 -12 -16 -12t-37 8q-76 29 -133 104q-80 109 -80 251t99 260t251 155l-37 321q-403 -269 -515 -539q-48 -116 -50 -241
v-14zM1249 1679q1 -105 -29 -209t-66 -175t-110 -163t-116 -134q-42 -44 -131 -134q33 -264 41 -346h28q206 0 352 -146t146 -340t-109 -331t-292 -197l36 -303q7 -55 7 -141t-38 -177q-94 -224 -378 -224q-96 -1 -184 31q-145 52 -186 190q-15 49 -15 104l10 92
q13 70 69 115t136 45t141 -59t61 -139t-42 -134q-54 -66 -162 -82q-18 -2 -19 -14q0 -10 17 -20q63 -55 213 -56q125 0 199 83q32 36 64 127t13 255l-28 285h-11q-26 -2 -106 -2q-210 0 -393 92q-104 51 -183 128q-78 77 -128 199t-54 273v25q0 149 78 326q54 119 178 256
q125 136 430 376l-14 129q-6 68 -6 135q0 303 104 533t268 293h9q6 2 10 2q45 0 47 -31v-14q0 -88 -33 -215q-18 -68 -41 -68q-78 -2 -146 -100q-68 -99 -106 -227q-37 -128 -37 -200q-1 -72 3 -90q4 -20 6 -46t4 -48q348 240 401 494q6 31 49 31q18 0 30 -17t13 -37z" />
    <glyph glyph-name="uniE058_uniE260_uniE883" unicode="&#xe058;&#xe260;&#xe883;" 
d="M76 -645q27 0 26 -23q0 -193 -6 -278q0 -16 21 -23q10 -1 43 19t51 20q115 -8 115 -106q0 -113 -158 -221q-14 -10 -55 -45t-50 -35q-8 0 -16 8t-14 487v160q4 37 43 37zM117 -1237q4 0 12 4q41 27 61 87t21 88q0 28 -14 44q-31 35 -68 -6q-19 -23 -25 -35t-6 -43l4 -116
q0 -23 15 -23zM741 1356q0 -32 3 -57t10 -93q348 240 401 494q6 31 6 55q0 76 -39 119t-92 43q-115 -3 -202 -195t-87 -366zM156 29q0 -131 64 -230q65 -98 164 -148q198 -100 386 -100q57 0 94 11l-73 661q-256 -33 -256 -237q0 -119 122 -213q16 -23 17 -37q0 -12 -16 -12
t-37 8q-76 29 -133 104q-80 109 -80 251t99 260t251 155l-37 321q-403 -269 -515 -539q-48 -116 -50 -241v-14zM1190 -98q0 131 -93 227t-223 100q33 -313 78 -645q238 86 238 318zM514 -870q-62 0 -74 77v9q0 55 65 94t135 39t125 -44q54 -45 53 -91t-7 -70t-35 -56
t-84 -59q-14 -8 -14 -22q0 -8 12 -8q86 -39 86 -109q-8 -111 -98 -160q37 0 92 37q139 84 139 326q0 47 -6 102l-29 285h-10q-25 -2 -106 -2q-209 0 -393 92q-104 51 -183 128q-78 77 -128 199t-54 273v25q0 149 78 326q54 119 178 256q125 136 430 376l-14 129
q-6 68 -6 135q0 303 104 533t268 293q32 -16 75 -72q42 -55 69 -131q68 -190 67 -361q0 -296 -206 -549q-75 -92 -117 -135t-131 -133q33 -264 41 -346h28q206 0 352 -146t146 -340t-109 -331t-292 -197l36 -303q7 -55 7 -141t-37 -177q-61 -149 -222 -204q-61 -20 -150 -20
q-160 0 -231 78q-30 32 -30 77t29 65q29 21 57 21t45 -18q18 -18 18 -45v-11q-4 -39 -47 -59q-6 -2 -6 -12q0 -27 66 -27q106 0 129 125q2 6 2 35q0 30 -30 64t-71 34h-8q-55 0 -55 43q0 37 63 37h39q31 0 70 26q57 38 57 114t-51 89q-5 2 -25 2t-32 -24q-4 -6 -4 -21l4 -49
q0 -31 -20 -51t-50 -20z" />
    <glyph glyph-name="uniE058_uniE260_uniE884" unicode="&#xe058;&#xe260;&#xe884;" 
d="M-16 -645q27 0 26 -23q0 -193 -6 -278q0 -16 21 -23q10 -1 43 19t51 20q115 -8 114 -106q0 -113 -157 -221q-14 -10 -55 -45t-50 -35q-8 0 -14 6q-14 14 -14 489l-2 160q4 37 43 37zM25 -1237q4 0 12 4q41 27 61 87q34 102 5 134t-66 -8q-19 -23 -25 -35t-6 -43l4 -116
q0 -23 15 -23zM741 1356q0 -32 3 -57t10 -93q348 240 401 494q6 31 6 55q0 76 -39 119t-92 43q-115 -3 -202 -195t-87 -366zM156 29q0 -131 64 -230q65 -98 164 -148q198 -100 386 -100q57 0 94 11l-73 661q-256 -33 -256 -237q0 -119 122 -213q16 -23 17 -37q0 -12 -16 -12
t-37 8q-76 29 -133 104q-80 109 -80 251t99 260t251 155l-37 321q-403 -269 -515 -539q-48 -116 -50 -241v-14zM1190 -98q0 131 -93 227t-223 100q33 -313 78 -645q238 86 238 318zM692 -680q0 -6 -3 -14t-61 -87t-146 -179t-144 -142h166l20 109q2 12 19 35l92 100
q17 12 31 12t14 -15t-2 -22l-45 -219h78q16 0 16 -16l-2 -10q-4 -27 -25 -27h-77l-15 -80q0 -2 -2 -6v-4q0 -29 53 -29t129 53q121 86 121 314q0 47 -6 102l-29 285h-10q-25 -2 -106 -2q-209 0 -393 92q-104 51 -183 128q-78 77 -128 199t-54 273v25q0 149 78 326
q54 119 178 256q125 136 430 376l-14 129q-6 68 -6 135q0 303 104 533t268 293q32 -16 75 -72q42 -55 69 -131q68 -190 67 -361q0 -296 -206 -549q-75 -92 -117 -135t-131 -133q33 -264 41 -346h28q206 0 352 -146t146 -340t-109 -331t-292 -197l36 -303q7 -55 7 -141
t-38 -177q-62 -149 -222 -204q-60 -20 -123 -20h-261q-20 0 -20 20v10q4 25 49 25t67 24t38 109h-234q-23 0 -22 20q0 12 10 23q207 246 237 422q4 27 37 26l78 -4l78 4q14 0 14 -16z" />
    <glyph glyph-name="uniE059_uniE885_uniE260" unicode="&#xe059;&#xe885;&#xe260;" 
d="M1882 2126q0 -84 -125 -168q-37 -37 -80 -64q-2 -4 -6 -4t-12 8t-8 392l-2 127q4 29 29 29t26 -19q0 -176 -4 -221q0 -14 14 -19q8 -1 36 15t42 16q90 -8 90 -92zM1792 2118q0 22 -12 34q-26 28 -53 -3q-27 -30 -27 -62l4 -96q0 -18 12 -19q2 0 22 14t36 62q18 49 18 70z
M1593 2447q0 -106 -180 -106q-35 0 -76 8t-43 8q-16 0 -26 -28l-23 -101q-2 -6 -2 -11t5 -5t7 1q88 44 134 44q7 0 36 -4q156 -25 156 -176q0 -25 -6 -56q-43 -221 -260 -221q-76 0 -121 33t-54 63t-10 64q0 32 25 54t57 22q33 -4 54 -23q20 -18 20 -50t-22 -50t-23 -33
q5 -27 18 -37t48 -10q84 0 116 184q8 41 9 78q0 104 -74 105q-31 0 -74 -22t-61 -37t-35 -15q-23 0 -23 20l64 314q4 23 37 22q135 -12 178 -12l135 12q16 0 16 -16q0 -2 -2 -6v-13zM1192 -96q0 131 -93 227t-222 100q32 -313 77 -645q238 86 238 318zM158 31
q0 -131 64 -230q65 -98 164 -148q200 -101 386 -99q57 0 94 10l-73 661q-256 -33 -256 -237q0 -119 122 -213q16 -23 17 -37q0 -12 -16 -12t-37 8q-76 29 -133 104q-80 109 -80 251t99 260t251 155l-37 321q-403 -269 -515 -539q-48 -116 -50 -241v-14zM1249 1679
q1 -105 -29 -209t-66 -175t-110 -163t-116 -134q-42 -44 -131 -134q33 -264 41 -346h28q206 0 352 -146t146 -340t-109 -331t-292 -197l36 -303q7 -55 7 -141t-38 -177q-94 -224 -378 -224q-96 -1 -184 31q-145 52 -186 190q-15 49 -15 104l10 92q13 70 69 115t136 45
t141 -59t61 -139t-42 -134q-54 -66 -162 -82q-18 -2 -19 -14q0 -10 17 -20q63 -55 213 -56q125 0 199 83q32 36 64 127t13 255l-28 285h-11q-26 -2 -106 -2q-210 0 -393 92q-104 51 -183 128q-78 77 -128 199t-54 273v25q0 149 78 326q54 119 178 256q125 136 430 376
l-14 129q-6 68 -6 135q0 303 104 533t268 293h9q6 2 10 2q45 0 47 -31v-14q0 -88 -33 -215q-18 -68 -41 -68q-78 -2 -146 -100q-68 -99 -106 -227q-37 -128 -37 -200q-1 -72 3 -90q4 -20 6 -46t4 -48q348 240 401 494q6 31 49 31q18 0 30 -17t13 -37z" />
    <glyph glyph-name="uniE059_uniE886_uniE260" unicode="&#xe059;&#xe886;&#xe260;" 
d="M1720 2427q0 -176 -4 -221q0 -14 15 -19q7 -1 35 15t42 16q90 -8 90 -92t-124 -168q-37 -37 -80 -64q-2 -4 -6 -4t-13 8q-8 8 -8 392l-2 127q3 29 29 29t26 -19zM1808 2118q0 21 -14 34q-20 31 -49 -2q-29 -32 -29 -63l4 -96q0 -18 13 -19q1 0 21 14t37 62q17 49 17 70z
M1355 2169q-36 0 -70 -43q-34 -42 -44 -102t-10 -80q0 -78 51 -78q41 0 81 44t61 114q20 70 -14 118q-20 26 -55 27zM1493 2406q-1 16 -19 16t-34 -7q-119 -55 -119 -158q0 -31 22 -31q18 4 54 4q71 0 113 -49t42 -123q0 -120 -90 -198q-68 -60 -146 -60t-123 39
q-46 39 -54 90t-9 88q0 185 102 331t257 146q47 0 91 -47t44 -104v-12q-10 -70 -80 -70q-32 -1 -54 21t-22 55t12 46q13 13 13 23zM1192 -96q0 131 -93 227t-222 100q32 -313 77 -645q238 86 238 318zM158 31q0 -131 64 -230q65 -98 164 -148q200 -101 386 -99q57 0 94 10
l-73 661q-256 -33 -256 -237q0 -119 122 -213q16 -23 17 -37q0 -12 -16 -12t-37 8q-76 29 -133 104q-80 109 -80 251t99 260t251 155l-37 321q-403 -269 -515 -539q-48 -116 -50 -241v-14zM1249 1679q1 -105 -29 -209t-66 -175t-110 -163t-116 -134q-42 -44 -131 -134
q33 -264 41 -346h28q206 0 352 -146t146 -340t-109 -331t-292 -197l36 -303q7 -55 7 -141t-38 -177q-94 -224 -378 -224q-96 -1 -184 31q-145 52 -186 190q-15 49 -15 104l10 92q13 70 69 115t136 45t141 -59t61 -139t-42 -134q-54 -66 -162 -82q-18 -2 -19 -14
q0 -10 17 -20q63 -55 213 -56q125 0 199 83q32 36 64 127t13 255l-28 285h-11q-26 -2 -106 -2q-210 0 -393 92q-104 51 -183 128q-78 77 -128 199t-54 273v25q0 149 78 326q54 119 178 256q125 136 430 376l-14 129q-6 68 -6 135q0 303 104 533t268 293h9q6 2 10 2
q45 0 47 -31v-14q0 -88 -33 -215q-18 -68 -41 -68q-78 -2 -146 -100q-68 -99 -106 -227q-37 -128 -37 -200q-1 -72 3 -90q4 -20 6 -46t4 -48q348 240 401 494q6 31 49 31q18 0 30 -17t13 -37z" />
    </font>
</defs>
</svg>
